{
.appVersion = "3205";
.formatVersion = 3;
axes = (
{
name = Weight;
tag = wght;
},
{
name = Width;
tag = wdth;
}
);
classes = (
{
code = "maiHanaKat-thai
maiHanaKat-thai.narrow
maiEk-thai
maiEk-thai.small
maiEk-thai.narrow
maiTho-thai
maiTho-thai.small
maiTho-thai.narrow
maiTri-thai
maiTri-thai.small
maiTri-thai.narrow
maiChattawa-thai
maiChattawa-thai.small
thanthakhat-thai
thanthakhat-thai.small
thanthakhat-thai.narrow
maitaikhu-thai
maitaikhu-thai.narrow
yamakkan-thai
saraI-thai
saraI-thai.narrow
saraIi-thai
saraIi-thai.narrow
saraUe-thai
saraUe-thai.narrow
saraUee-thai
saraUee-thai.narrow
nikhahit-thai
nikhahit_maiEk-thai
nikhahit_maiTho-thai
nikhahit_maiTri-thai
nikhahit_maiChattawa-thai
phinthu-thai
maiChattawa-thai.narrow
nikhahit-thai.narrow
nikhahit_maiEk-thai.narrow
nikhahit_maiTho-thai.narrow
nikhahit_maiTri-thai.narrow
nikhahit_maiChattawa-thai.narrow
";
name = abovemarks;
}
);
customParameters = (
{
name = glyphOrder;
value = (
.notdef,
NULL,
CR,
space
);
},
{
name = fsType;
value = (
);
},
{
name = "Has WWS Names";
value = 1;
},
{
name = unicodeRanges;
value = (
0,
1,
5,
6,
24,
31,
45
);
},
{
name = "Use Typo Metrics";
value = 1;
}
);
date = "2016-06-24 13:18:50 +0000";
familyName = "Noto Serif Thai";
featurePrefixes = (
{
automatic = 1;
code = "languagesystem DFLT dflt;
languagesystem thai dflt;
";
name = Languagesystems;
},
{
code = "lookup to_macron {
sub [saraU-thai saraUu-thai] by macronbelowcomb;
} to_macron;

lookup to_sarau {
sub macronbelowcomb by saraU-thai;
} to_sarau;

lookup to_sarauu {
sub macronbelowcomb by saraUu-thai;
} to_sarauu;
";
name = swaps;
}
);
features = (
{
automatic = 1;
code = "feature ccmp;
";
tag = aalt;
},
{
code = "lookup thai_decomb {
	script thai;
	sub saraAm-thai by nikhahit-thai saraAa-thai;
} thai_decomb;

# Disabled - see #3
#lookup thai_comb {
#    script thai;
#sub maiEk-thai nikhahit-thai by nikhahit_maiEk-thai;
#sub maiTho-thai nikhahit-thai by nikhahit_maiTho-thai;

glyphs = (
{
glyphname = .notdef;
lastChange = "2016-11-15 17:20:48 +0000";
layers = (
{
layerId = "22BDAFBE-6308-4010-9D0C-693FDF26AFAA";
shapes = (
{
closed = 1;
nodes = (
(496,0,l),
(496,714,l),
(85,714,l),
(85,0,l)
);
},
{
closed = 1;
nodes = (
(136,663,l),
(445,663,l),
(445,51,l),
(136,51,l)
);
}
);
width = 582;
},
{
layerId = "3CAB0083-C9A5-4E42-9C5D-0009229A2EB9";
shapes = (
{
closed = 1;
nodes = (
(496,0,l),
(496,714,l),
(85,714,l),
(85,0,l)
);
},
{
closed = 1;
nodes = (
(136,663,l),
(445,663,l),
(445,51,l),
(136,51,l)
);
}
);
width = 582;
},
{
layerId = "CAA0A3A7-F9A4-46B2-91A1-CB381E1B2EFA";
shapes = (
{
closed = 1;
nodes = (
(505,0,l),
(505,714,l),
(94,714,l),
(94,0,l)
);
},
{
closed = 1;
nodes = (
(145,663,l),
(454,663,l),
(454,51,l),
(145,51,l)
);
}
);
width = 600;
},
{
layerId = "B641F77A-82CB-48D8-9AD6-887D7864CC63";
shapes = (
{
closed = 1;
nodes = (
(505,0,l),
(505,714,l),
(94,714,l),
(94,0,l)
);
},
{
closed = 1;
nodes = (
(145,663,l),
(454,663,l),
(454,51,l),
(145,51,l)
);
}
);
width = 600;
},
{
layerId = "2C876074-2AE3-4D36-A7C1-2DCA66F9377D";
shapes = (
{
closed = 1;
nodes = (
(496,0,l),
(496,714,l),
(85,714,l),
(85,0,l)
);
},
{
closed = 1;
nodes = (
(136,663,l),
(445,663,l),
(445,51,l),
(136,51,l)
);
}
);
width = 595;
},
{
layerId = "1A87246E-116E-4BF6-B440-8206DB76EC4A";
shapes = (
{
closed = 1;
nodes = (
(496,0,l),
(496,714,l),
(85,714,l),
(85,0,l)
);
},
{
closed = 1;
nodes = (
(136,663,l),
(445,663,l),
(445,51,l),
(136,51,l)
);
}
);
width = 587;
},
{
layerId = "2AF6F853-87AC-417E-A249-876B8C389FCE";
shapes = (
{
closed = 1;
nodes = (
(505,0,l),
(505,714,l),
(94,714,l),
(94,0,l)
);
},
{
closed = 1;
nodes = (
(145,663,l),
(454,663,l),
(454,51,l),
(145,51,l)
);
}
);
width = 600;
},
{
layerId = "8AE4ADC8-9A9B-483B-9DC3-8C129A33EC0D";
shapes = (
{
closed = 1;
nodes = (
(496,0,l),
(496,714,l),
(85,714,l),
(85,0,l)
);
},
{
closed = 1;
nodes = (
(136,663,l),
(445,663,l),
(445,51,l),
(136,51,l)
);
}
);
width = 600;
}
);
subCategory = Other;
},
{
glyphname = "koKai-thai";
lastChange = "2020-01-23 22:17:12 +0000";
layers = (
{
anchors = (
{
name = bottom;
pos = (505,0);
},
{
name = top;
pos = (505,536);
}
);
layerId = "CAA0A3A7-F9A4-46B2-91A1-CB381E1B2EFA";
shapes = (
{
closed = 1;
nodes = (
(466,-6,l),
(515,52,l),
(515,383,ls),
(515,499,o),
(441,558,o),
(297,558,cs),
(163,558,o),
(81,507,o),
(81,423,cs),
(81,410,o),
(83,395,o),
(87,379,c),
(194,348,l),
(194,345,l),
(126,327,o),
(95,287,o),
(95,216,cs),
(95,0,l),
(177,0,l),
(177,213,ls),
(177,280,o),
(206,313,o),
(270,318,c),
(274,322,o),
(277,330,o),
(277,337,cs),
(277,346,o),
(272,354,o),
(262,359,cs),
(165,408,l),
(165,478,o),
(211,516,o),
(296,516,cs),
(388,516,o),
(433,469,o),
(433,372,cs),
(433,-6,l)
);
}
);
width = 610;
},
{
anchors = (
{
name = bottom;
pos = (579,0);
},
{
name = top;
pos = (579,536);
}
);
layerId = "22BDAFBE-6308-4010-9D0C-693FDF26AFAA";
shapes = (
{
closed = 1;
nodes = (
(527,-6,l),
(589,66,l),
(589,383,ls),
(589,501,o),
(496,562,o),
(319,562,cs),
(151,562,o),
(47,507,o),
(47,420,cs),
(47,412,o),
(48,400,o),
(52,379,c),
(160,348,l),
(160,344,l),
(89,319,o),
(61,281,o),
(61,216,cs),
(61,0,l),
(250,0,l),
(250,213,ls),
(250,290,o),
(270,314,o),
(330,308,c),
(337,315,o),
(341,325,o),
(341,336,cs),
(341,353,o),
(331,362,o),
(301,375,cs),
(240,401,l),
(240,473,o),
(267,507,o),
(321,507,cs),
(377,507,o),
(400,470,o),
(400,372,cs),
(400,-6,l)
);
}
);
width = 647;
},
{
anchors = (
{
name = bottom;
pos = (468,0);
},
{
name = top;
pos = (458,536);
}
);
layerId = "2AF6F853-87AC-417E-A249-876B8C389FCE";
shapes = (
{
closed = 1;
nodes = (
(448,-4,l),
(468,21,l),
(468,382,ls),
(468,494,o),
(400,552,o),
(278,552,cs),
(163,552,o),
(88,501,o),
(88,416,cs),
(88,406,o),
(89,395,o),
(91,385,c),
(201,343,l),
(201,340,l),
(134,330,o),
(102,290,o),
(102,215,cs),
(102,0,l),
(130,0,l),
(130,222,ls),
(130,285,o),
(167,322,o),
(230,322,c),
(236,325,o),
(239,331,o),
(239,338,cs),
(239,347,o),
(235,352,o),
(225,356,cs),
(118,401,l),
(114,483,o),
(173,527,o),
(275,527,cs),
(384,527,o),
(440,477,o),
(440,371,cs),
(440,-4,l)
);
}
);
width = 570;
},
{
anchors = (
{
name = bottom;
pos = (544,0);
},
{
name = top;
pos = (544,536);
}
);
layerId = "B641F77A-82CB-48D8-9AD6-887D7864CC63";
shapes = (
{
closed = 1;
nodes = (
(499,-6,l),
(555,59,l),
(555,383,ls),
(555,500,o),
(470,560,o),
(309,560,cs),
(157,560,o),
(63,507,o),
(63,421,cs),
(63,411,o),
(64,398,o),
(68,379,c),
(176,348,l),
(176,344,l),
(106,323,o),
(77,284,o),
(77,216,cs),
(77,0,l),
(216,0,l),
(216,213,ls),
(216,285,o),
(240,314,o),
(302,313,c),
(308,318,o),
(311,327,o),
(311,336,cs),
(311,350,o),
(304,358,o),
(283,368,cs),
(205,404,l),
(205,475,o),
(241,511,o),
(309,511,cs),
(382,511,o),
(416,470,o),
(416,372,cs),
(416,-6,l)
);
}
);
width = 630;
},
{
anchors = (
{
name = bottom;
pos = (372,0);
},
{
name = top;
pos = (362,536);
}
);
layerId = "8AE4ADC8-9A9B-483B-9DC3-8C129A33EC0D";
shapes = (
{
closed = 1;
nodes = (
(353,-4,l),
(372,21,l),
(372,382,ls),
(372,494,o),
(319,552,o),
(224,552,cs),
(134,552,o),
(76,501,o),
(76,416,cs),
(76,406,o),
(77,395,o),
(79,385,c),
(162,343,l),
(162,340,l),
(111,330,o),
(87,290,o),
(87,215,cs),
(87,0,l),
(115,0,l),
(115,222,ls),
(115,285,o),
(142,322,o),
(190,322,c),
(194,325,o),
(196,331,o),
(196,338,cs),
(196,347,o),
(194,352,o),
(186,356,cs),
(106,401,l),
(103,483,o),
(146,527,o),
(222,527,cs),
(302,527,o),
(344,477,o),
(344,371,cs),
(344,-4,l)
);
}
);
width = 459;
},
{
anchors = (
{
name = bottom;
pos = (401,0);
},
{
name = top;
pos = (401,536);
}
);
layerId = "2C876074-2AE3-4D36-A7C1-2DCA66F9377D";
shapes = (
{
closed = 1;
nodes = (
(369,-6,l),
(409,52,l),
(409,383,ls),
(409,499,o),
(349,558,o),
(234,558,cs),
(125,558,o),
(59,507,o),
(59,423,cs),
(59,410,o),
(60,395,o),
(63,379,c),
(145,348,l),
(145,345,l),
(93,327,o),
(70,287,o),
(70,216,cs),
(70,0,l),
(152,0,l),
(152,213,ls),
(152,280,o),
(172,313,o),
(220,318,c),
(224,322,o),
(226,330,o),
(226,337,cs),
(226,346,o),
(221,353,o),
(211,360,cs),
(143,408,l),
(143,478,o),
(174,516,o),
(233,516,cs),
(296,516,o),
(327,469,o),
(327,372,cs),
(327,-6,l)
);
}
);
width = 478;
},
{
anchors = (
{
name = bottom;
pos = (479,0);
},
{
name = top;
pos = (479,536);
}
);
layerId = "3CAB0083-C9A5-4E42-9C5D-0009229A2EB9";
shapes = (
{
closed = 1;
nodes = (
(436,-6,l),
(487,62,l),
(487,383,ls),
(487,500,o),
(411,561,o),
(266,561,cs),
(129,561,o),
(43,507,o),
(43,421,cs),
(43,411,o),
(44,399,o),
(47,379,c),
(133,348,l),
(133,344,l),
(77,321,o),
(54,283,o),
(54,216,cs),
(54,0,l),
(216,0,l),
(216,213,ls),
(216,287,o),
(231,314,o),
(278,311,c),
(285,317,o),
(288,326,o),
(288,336,cs),
(288,351,o),
(279,358,o),
(255,373,cs),
(207,403,l),
(207,474,o),
(227,509,o),
(269,509,cs),
(309,509,o),
(325,470,o),
(325,372,cs),
(325,-6,l)
);
}
);
width = 537;
},
{
anchors = (
{
name = bottom;
pos = (451,0);
},
{
name = top;
pos = (451,536);
}
);
layerId = "1A87246E-116E-4BF6-B440-8206DB76EC4A";
shapes = (
{
closed = 1;
nodes = (
(413,-6,l),
(459,56,l),
(459,383,ls),
(459,499,o),
(389,559,o),
(255,559,cs),
(128,559,o),
(49,507,o),
(49,421,cs),
(49,410,o),
(50,397,o),
(53,379,c),
(139,348,l),
(139,344,l),
(84,323,o),
(60,285,o),
(60,216,cs),
(60,0,l),
(188,0,l),
(188,214,ls),
(188,285,o),
(206,314,o),
(255,314,c),
(260,319,o),
(263,328,o),
(263,336,cs),
(263,349,o),
(256,356,o),
(237,368,cs),
(179,404,l),
(179,476,o),
(205,512,o),
(256,512,cs),
(308,512,o),
(331,470,o),
(331,372,cs),
(331,-6,l)
);
}
);
width = 517;
}
);
note = uni0E01;
unicode = 3585;
},
{
glyphname = "thoThung-thai";
lastChange = "2016-11-15 17:20:48 +0000";
layers = (
{
anchors = (
{
name = bottom;
pos = (502,0);
},
{
name = top;
pos = (502,536);
}
);
layerId = "CAA0A3A7-F9A4-46B2-91A1-CB381E1B2EFA";
shapes = (
{
closed = 1;
nodes = (
(255,-10,o),
(289,27,o),
(289,82,cs),
(289,139,o),
(250,176,o),
(197,176,cs),
(181,176,o),
(162,172,o),
(153,164,c),
(172,156,l),
(172,213,ls),
(172,280,o),
(203,313,o),
(267,318,c),
(271,322,o),
(274,330,o),
(274,337,cs),
(274,346,o),
(269,354,o),
(259,359,cs),
(162,408,l),
(162,478,o),
(208,516,o),
(293,516,cs),
(385,516,o),
(430,469,o),
(430,372,cs),
(430,-6,l),
(463,-6,l),
(512,52,l),
(512,383,ls),
(512,499,o),
(438,558,o),
(294,558,cs),
(160,558,o),
(78,507,o),
(78,423,cs),
(78,410,o),
(80,395,o),
(84,379,c),
(191,348,l),
(191,345,l),
(123,327,o),
(90,287,o),
(90,216,cs),
(90,94,ls),
(90,25,o),
(125,-10,o),
(189,-10,cs)
);
},
{
closed = 1;
nodes = (
(155,30,o),
(141,51,o),
(141,82,cs),
(141,113,o),
(155,134,o),
(191,134,cs),
(227,134,o),
(241,113,o),
(241,81,cs),
(241,50,o),
(228,30,o),
(192,30,cs)
);
}
);
width = 611;
},
{
anchors = (
{
name = bottom;
pos = (577,0);
},
{
name = top;
pos = (577,536);
}
);
layerId = "22BDAFBE-6308-4010-9D0C-693FDF26AFAA";
shapes = (
{
closed = 1;
nodes = (
(299,-12,o),
(345,26,o),
(345,91,cs),
(345,155,o),
(303,185,o),
(254,185,cs),
(238,185,o),
(227,181,o),
(219,177,c),
(248,159,l),
(248,213,ls),
(248,278,o),
(263,319,o),
(328,308,c),
(335,315,o),
(339,325,o),
(339,336,cs),
(339,353,o),
(329,362,o),
(299,375,cs),
(238,401,l),
(238,473,o),
(265,507,o),
(319,507,cs),
(375,507,o),
(398,470,o),
(398,372,cs),
(398,-6,l),
(525,-6,l),
(587,66,l),
(587,383,ls),
(587,501,o),
(494,562,o),
(317,562,cs),
(149,562,o),
(45,507,o),
(45,420,cs),
(45,412,o),
(46,400,o),
(50,379,c),
(158,348,l),
(158,344,l),
(87,319,o),
(59,281,o),
(59,216,cs),
(59,125,ls),
(59,37,o),
(107,-12,o),
(211,-12,cs)
);
},
{
closed = 1;
nodes = (
(209,42,o),
(194,60,o),
(194,91,cs),
(194,122,o),
(209,140,o),
(242,140,cs),
(275,140,o),
(290,122,o),
(290,91,cs),
(290,60,o),
(275,42,o),
(242,42,cs)
);
}
);
width = 645;
},
{
anchors = (
{
name = bottom;
pos = (468,0);
},
{
name = top;
pos = (457,536);
}
);
layerId = "2AF6F853-87AC-417E-A249-876B8C389FCE";
shapes = (
{
closed = 1;
nodes = (
(230,-4,o),
(263,25,o),
(263,69,cs),
(263,117,o),
(227,142,o),
(185,142,cs),
(161,142,o),
(142,134,o),
(133,123,c),
(130,124,l),
(130,222,ls),
(130,285,o),
(167,322,o),
(230,322,c),
(236,325,o),
(239,331,o),
(239,338,cs),
(239,347,o),
(235,352,o),
(225,356,cs),
(118,401,l),
(114,483,o),
(173,527,o),
(275,527,cs),
(384,527,o),
(440,477,o),
(440,371,cs),
(440,-4,l),
(448,-4,l),
(468,21,l),
(468,382,ls),
(468,494,o),
(400,552,o),
(278,552,cs),
(163,552,o),
(88,501,o),
(88,416,cs),
(88,406,o),
(89,395,o),
(91,385,c),
(201,343,l),
(201,340,l),
(134,330,o),
(102,290,o),
(102,215,cs),
(102,73,ls),
(102,24,o),
(132,-4,o),
(181,-4,cs)
);
},
{
closed = 1;
nodes = (
(149,17,o),
(130,36,o),
(130,69,cs),
(130,102,o),
(149,121,o),
(183,121,cs),
(216,121,o),
(235,102,o),
(235,69,cs),
(235,36,o),
(215,17,o),
(182,17,cs)
);
}
);
width = 570;
},
{
anchors = (
{
name = bottom;
pos = (542,0);
},
{
name = top;
pos = (542,536);
}
);
layerId = "B641F77A-82CB-48D8-9AD6-887D7864CC63";
shapes = (
{
closed = 1;
nodes = (
(278,-11,o),
(318,26,o),
(318,87,cs),
(318,148,o),
(278,181,o),
(227,181,cs),
(211,181,o),
(196,177,o),
(188,171,c),
(212,158,l),
(212,213,ls),
(212,279,o),
(235,316,o),
(299,313,c),
(305,318,o),
(308,327,o),
(308,336,cs),
(308,350,o),
(301,358,o),
(280,368,cs),
(202,404,l),
(202,475,o),
(238,511,o),
(306,511,cs),
(379,511,o),
(413,470,o),
(413,372,cs),
(413,-6,l),
(496,-6,l),
(552,59,l),
(552,383,ls),
(552,500,o),
(467,560,o),
(306,560,cs),
(154,560,o),
(60,507,o),
(60,421,cs),
(60,411,o),
(61,398,o),
(65,379,c),
(173,348,l),
(173,344,l),
(103,323,o),
(73,284,o),
(73,216,cs),
(73,111,ls),
(73,31,o),
(115,-11,o),
(200,-11,cs)
);
},
{
closed = 1;
nodes = (
(184,36,o),
(169,56,o),
(169,87,cs),
(169,118,o),
(184,137,o),
(218,137,cs),
(252,137,o),
(267,118,o),
(267,86,cs),
(267,55,o),
(253,36,o),
(218,36,cs)
);
}
);
width = 629;
},
{
anchors = (
{
name = bottom;
pos = (371,0);
},
{
name = top;
pos = (361,536);
}
);
layerId = "8AE4ADC8-9A9B-483B-9DC3-8C129A33EC0D";
shapes = (
{
closed = 1;
nodes = (
(185,-4,o),
(209,21,o),
(209,69,cs),
(209,118,o),
(184,142,o),
(151,142,cs),
(140,142,o),
(124,139,o),
(117,128,c),
(114,130,l),
(114,222,ls),
(114,285,o),
(142,322,o),
(190,322,c),
(194,325,o),
(196,331,o),
(196,338,cs),
(196,347,o),
(194,352,o),
(186,356,cs),
(106,401,l),
(103,483,o),
(146,527,o),
(222,527,cs),
(302,527,o),
(344,477,o),
(344,371,cs),
(344,-4,l),
(353,-4,l),
(372,21,l),
(372,382,ls),
(372,494,o),
(319,552,o),
(224,552,cs),
(134,552,o),
(76,501,o),
(76,416,cs),
(76,406,o),
(77,395,o),
(79,385,c),
(162,343,l),
(162,340,l),
(111,330,o),
(86,290,o),
(86,215,cs),
(86,77,ls),
(86,22,o),
(110,-4,o),
(148,-4,cs)
);
},
{
closed = 1;
nodes = (
(124,17,o),
(110,36,o),
(110,69,cs),
(110,102,o),
(125,121,o),
(149,121,cs),
(173,121,o),
(186,102,o),
(186,69,cs),
(186,36,o),
(173,17,o),
(149,17,cs)
);
}
);
width = 459;
},
{
anchors = (
{
name = bottom;
pos = (399,0);
},
{
name = top;
pos = (399,536);
}
);
layerId = "2C876074-2AE3-4D36-A7C1-2DCA66F9377D";
shapes = (
{
closed = 1;
nodes = (
(210,-10,o),
(238,27,o),
(238,82,cs),
(238,139,o),
(208,176,o),
(164,176,cs),
(152,176,o),
(139,172,o),
(132,164,c),
(148,156,l),
(148,213,ls),
(148,280,o),
(169,313,o),
(218,318,c),
(222,322,o),
(224,330,o),
(224,337,cs),
(224,346,o),
(219,353,o),
(209,360,cs),
(141,408,l),
(141,478,o),
(172,516,o),
(231,516,cs),
(294,516,o),
(325,469,o),
(325,372,cs),
(325,-6,l),
(367,-6,l),
(407,52,l),
(407,383,ls),
(407,499,o),
(347,558,o),
(232,558,cs),
(123,558,o),
(57,507,o),
(57,423,cs),
(57,410,o),
(58,395,o),
(61,379,c),
(143,348,l),
(143,345,l),
(91,327,o),
(66,287,o),
(66,216,cs),
(66,94,ls),
(66,25,o),
(95,-10,o),
(151,-10,cs)
);
},
{
closed = 1;
nodes = (
(132,30,o),
(121,51,o),
(121,82,cs),
(121,113,o),
(132,134,o),
(158,134,cs),
(185,134,o),
(196,113,o),
(196,81,cs),
(196,50,o),
(186,30,o),
(159,30,cs)
);
}
);
width = 479;
},
{
anchors = (
{
name = bottom;
pos = (477,0);
},
{
name = top;
pos = (477,536);
}
);
layerId = "3CAB0083-C9A5-4E42-9C5D-0009229A2EB9";
shapes = (
{
closed = 1;
nodes = (
(253,-11,o),
(290,26,o),
(290,89,cs),
(290,151,o),
(255,183,o),
(217,183,cs),
(204,183,o),
(196,179,o),
(190,174,c),
(213,158,l),
(213,213,ls),
(213,279,o),
(225,317,o),
(276,311,c),
(283,317,o),
(286,326,o),
(286,336,cs),
(286,351,o),
(277,358,o),
(253,373,cs),
(205,403,l),
(205,474,o),
(225,509,o),
(267,509,cs),
(307,509,o),
(323,470,o),
(323,372,cs),
(323,-6,l),
(434,-6,l),
(485,62,l),
(485,383,ls),
(485,500,o),
(409,561,o),
(264,561,cs),
(127,561,o),
(41,507,o),
(41,421,cs),
(41,411,o),
(42,399,o),
(45,379,c),
(131,348,l),
(131,344,l),
(75,321,o),
(51,283,o),
(51,216,cs),
(51,117,ls),
(51,34,o),
(92,-11,o),
(180,-11,cs)
);
},
{
closed = 1;
nodes = (
(180,39,o),
(168,58,o),
(168,89,cs),
(168,120,o),
(180,138,o),
(207,138,cs),
(232,138,o),
(244,120,o),
(244,88,cs),
(244,57,o),
(233,39,o),
(207,39,cs)
);
}
);
width = 535;
},
{
anchors = (
{
name = bottom;
pos = (450,0);
},
{
name = top;
pos = (449,536);
}
);
layerId = "1A87246E-116E-4BF6-B440-8206DB76EC4A";
shapes = (
{
closed = 1;
nodes = (
(235,-10,o),
(269,26,o),
(269,85,cs),
(269,145,o),
(236,178,o),
(195,178,cs),
(183,178,o),
(172,174,o),
(166,168,c),
(185,156,l),
(185,214,ls),
(185,280,o),
(201,316,o),
(253,314,c),
(258,319,o),
(261,328,o),
(261,336,cs),
(261,349,o),
(254,356,o),
(235,368,cs),
(177,404,l),
(177,476,o),
(203,512,o),
(254,512,cs),
(306,512,o),
(329,470,o),
(329,372,cs),
(329,-6,l),
(411,-6,l),
(457,56,l),
(457,383,ls),
(457,499,o),
(387,559,o),
(253,559,cs),
(126,559,o),
(47,507,o),
(47,421,cs),
(47,410,o),
(48,397,o),
(51,379,c),
(137,348,l),
(137,344,l),
(82,323,o),
(57,285,o),
(57,216,cs),
(57,107,ls),
(57,30,o),
(93,-10,o),
(168,-10,cs)
);
},
{
closed = 1;
nodes = (
(160,35,o),
(148,54,o),
(148,85,cs),
(148,117,o),
(160,136,o),
(187,136,cs),
(213,136,o),
(225,117,o),
(225,85,cs),
(225,53,o),
(214,35,o),
(187,35,cs)
);
}
);
width = 516;
}
);
unicode = 3606;
},
{
glyphname = "phoSamphao-thai";
lastChange = "2016-11-15 17:20:48 +0000";
layers = (
{
anchors = (
{
name = bottom;
pos = (539,0);
},
{
name = top;
pos = (539,536);
}
);
layerId = "CAA0A3A7-F9A4-46B2-91A1-CB381E1B2EFA";
shapes = (
{
closed = 1;
nodes = (
(196,-9,o),
(230,27,o),
(230,95,cs),
(230,230,ls),
(230,293,o),
(244,314,o),
(288,314,c),
(292,318,o),
(295,325,o),
(295,333,cs),
(295,342,o),
(290,350,o),
(280,355,cs),
(183,404,l),
(183,476,o),
(233,516,o),
(323,516,cs),
(422,516,o),
(467,469,o),
(467,368,cs),
(467,-6,l),
(500,-6,l),
(549,52,l),
(549,379,ls),
(549,498,o),
(475,558,o),
(326,558,cs),
(185,558,o),
(99,505,o),
(99,419,cs),
(99,406,o),
(101,391,o),
(105,375,c),
(212,344,l),
(212,341,l),
(164,319,o),
(148,290,o),
(148,228,cs),
(148,154,l),
(167,169,l),
(157,173,o),
(141,176,o),
(125,176,cs),
(75,176,o),
(35,143,o),
(35,83,cs),
(35,25,o),
(72,-9,o),
(133,-9,cs)
);
},
{
closed = 1;
nodes = (
(98,32,o),
(83,48,o),
(83,82,cs),
(83,116,o),
(99,134,o),
(131,134,cs),
(163,134,o),
(179,117,o),
(179,83,cs),
(179,49,o),
(162,32,o),
(130,32,cs)
);
}
);
width = 644;
},
{
anchors = (
{
name = bottom;
pos = (613,0);
},
{
name = top;
pos = (613,536);
}
);
layerId = "22BDAFBE-6308-4010-9D0C-693FDF26AFAA";
shapes = (
{
closed = 1;
nodes = (
(235,-12,o),
(284,37,o),
(284,125,cs),
(284,213,ls),
(284,278,o),
(299,319,o),
(364,308,c),
(371,315,o),
(375,325,o),
(375,336,cs),
(375,355,o),
(364,363,o),
(335,374,cs),
(260,401,l),
(260,473,o),
(287,507,o),
(348,507,cs),
(411,507,o),
(434,470,o),
(434,372,cs),
(434,-6,l),
(561,-6,l),
(623,66,l),
(623,383,ls),
(623,501,o),
(530,562,o),
(346,562,cs),
(169,562,o),
(67,506,o),
(67,420,cs),
(67,412,o),
(68,400,o),
(72,379,c),
(194,348,l),
(194,344,l),
(123,319,o),
(95,281,o),
(95,216,cs),
(95,155,l),
(130,180,l),
(123,183,o),
(113,185,o),
(101,185,cs),
(62,185,o),
(18,158,o),
(18,94,cs),
(18,24,o),
(64,-12,o),
(143,-12,cs)
);
},
{
closed = 1;
nodes = (
(88,42,o),
(73,60,o),
(73,91,cs),
(73,122,o),
(88,140,o),
(121,140,cs),
(154,140,o),
(169,122,o),
(169,91,cs),
(169,60,o),
(154,42,o),
(121,42,cs)
);
}
);
width = 681;
},
{
anchors = (
{
name = bottom;
pos = (489,0);
},
{
name = top;
pos = (479,536);
}
);
layerId = "2AF6F853-87AC-417E-A249-876B8C389FCE";
shapes = (
{
closed = 1;
nodes = (
(142,-4,o),
(175,24,o),
(175,73,cs),
(175,222,ls),
(175,294,o),
(198,322,o),
(261,322,c),
(267,325,o),
(270,331,o),
(270,338,cs),
(270,347,o),
(266,352,o),
(256,356,cs),
(139,401,l),
(135,481,o),
(189,527,o),
(296,527,cs),
(405,527,o),
(461,479,o),
(461,374,cs),
(461,-4,l),
(469,-4,l),
(489,21,l),
(489,385,ls),
(489,495,o),
(421,552,o),
(298,552,cs),
(180,552,o),
(109,501,o),
(109,416,cs),
(109,406,o),
(110,395,o),
(112,385,c),
(232,343,l),
(232,340,l),
(165,330,o),
(147,290,o),
(147,215,cs),
(147,125,l),
(144,123,l),
(136,134,o),
(117,142,o),
(95,142,cs),
(56,142,o),
(20,117,o),
(20,70,cs),
(20,25,o),
(53,-4,o),
(98,-4,cs)
);
},
{
closed = 1;
nodes = (
(69,17,o),
(48,36,o),
(48,69,cs),
(48,102,o),
(68,121,o),
(96,121,cs),
(125,121,o),
(147,102,o),
(147,69,cs),
(147,36,o),
(125,17,o),
(97,17,cs)
);
}
);
width = 591;
},
{
anchors = (
{
name = bottom;
pos = (578,0);
},
{
name = top;
pos = (578,536);
}
);
layerId = "B641F77A-82CB-48D8-9AD6-887D7864CC63";
shapes = (
{
closed = 1;
nodes = (
(217,-11,o),
(259,32,o),
(259,111,cs),
(259,221,ls),
(259,285,o),
(273,317,o),
(329,311,c),
(334,316,o),
(338,325,o),
(338,335,cs),
(338,349,o),
(329,357,o),
(309,365,cs),
(224,402,l),
(224,474,o),
(262,511,o),
(336,511,cs),
(416,511,o),
(449,470,o),
(449,370,cs),
(449,-6,l),
(533,-6,l),
(588,59,l),
(588,381,ls),
(588,500,o),
(504,560,o),
(337,560,cs),
(177,560,o),
(82,506,o),
(82,420,cs),
(82,409,o),
(83,396,o),
(87,377,c),
(202,346,l),
(202,343,l),
(142,319,o),
(120,285,o),
(120,222,cs),
(120,155,l),
(147,175,l),
(139,178,o),
(126,181,o),
(112,181,cs),
(68,181,o),
(26,151,o),
(26,89,cs),
(26,24,o),
(68,-11,o),
(138,-11,cs)
);
},
{
closed = 1;
nodes = (
(93,37,o),
(78,54,o),
(78,87,cs),
(78,119,o),
(93,137,o),
(126,137,cs),
(159,137,o),
(174,120,o),
(174,87,cs),
(174,55,o),
(158,37,o),
(126,37,cs)
);
}
);
width = 664;
},
{
anchors = (
{
name = bottom;
pos = (389,0);
},
{
name = top;
pos = (379,536);
}
);
layerId = "8AE4ADC8-9A9B-483B-9DC3-8C129A33EC0D";
shapes = (
{
closed = 1;
nodes = (
(126,-4,o),
(150,22,o),
(150,77,cs),
(150,222,ls),
(150,293,o),
(165,322,o),
(212,322,c),
(216,325,o),
(218,331,o),
(218,338,cs),
(218,347,o),
(215,352,o),
(207,356,cs),
(121,401,l),
(119,481,o),
(160,527,o),
(239,527,cs),
(321,527,o),
(361,479,o),
(361,374,cs),
(361,-4,l),
(370,-4,l),
(389,21,l),
(389,385,ls),
(389,495,o),
(338,552,o),
(241,552,cs),
(148,552,o),
(92,501,o),
(92,416,cs),
(92,406,o),
(92,395,o),
(94,385,c),
(184,343,l),
(184,340,l),
(135,330,o),
(122,290,o),
(122,215,cs),
(122,130,l),
(119,128,l),
(112,139,o),
(96,142,o),
(85,142,cs),
(52,142,o),
(27,118,o),
(27,69,cs),
(27,21,o),
(51,-4,o),
(88,-4,cs)
);
},
{
closed = 1;
nodes = (
(63,17,o),
(50,36,o),
(50,69,cs),
(50,102,o),
(63,121,o),
(87,121,cs),
(111,121,o),
(126,102,o),
(126,69,cs),
(126,36,o),
(112,17,o),
(87,17,cs)
);
}
);
width = 476;
},
{
anchors = (
{
name = bottom;
pos = (427,0);
},
{
name = top;
pos = (427,536);
}
);
layerId = "2C876074-2AE3-4D36-A7C1-2DCA66F9377D";
shapes = (
{
closed = 1;
nodes = (
(160,-9,o),
(188,27,o),
(188,95,cs),
(188,230,ls),
(188,293,o),
(199,314,o),
(237,314,c),
(240,318,o),
(243,325,o),
(243,333,cs),
(243,342,o),
(237,350,o),
(227,356,cs),
(157,404,l),
(157,476,o),
(191,516,o),
(253,516,cs),
(322,516,o),
(352,469,o),
(352,368,cs),
(352,-6,l),
(395,-6,l),
(434,52,l),
(434,379,ls),
(434,498,o),
(375,558,o),
(255,558,cs),
(141,558,o),
(73,505,o),
(73,419,cs),
(73,406,o),
(74,391,o),
(77,375,c),
(161,344,l),
(161,341,l),
(121,319,o),
(106,290,o),
(106,228,cs),
(106,154,l),
(124,169,l),
(117,173,o),
(105,176,o),
(94,176,cs),
(58,176,o),
(27,143,o),
(27,83,cs),
(27,25,o),
(57,-9,o),
(106,-9,cs)
);
},
{
closed = 1;
nodes = (
(80,32,o),
(69,48,o),
(69,82,cs),
(69,116,o),
(81,134,o),
(105,134,cs),
(130,134,o),
(142,117,o),
(142,83,cs),
(142,49,o),
(129,32,o),
(105,32,cs)
);
}
);
width = 504;
},
{
anchors = (
{
name = bottom;
pos = (506,0);
},
{
name = top;
pos = (506,536);
}
);
layerId = "3CAB0083-C9A5-4E42-9C5D-0009229A2EB9";
shapes = (
{
closed = 1;
nodes = (
(199,-11,o),
(240,34,o),
(240,117,cs),
(240,217,ls),
(240,282,o),
(253,318,o),
(307,310,c),
(313,316,o),
(316,325,o),
(316,335,cs),
(316,352,o),
(306,359,o),
(282,371,cs),
(223,402,l),
(223,474,o),
(242,509,o),
(288,509,cs),
(334,509,o),
(352,470,o),
(352,371,cs),
(352,-6,l),
(463,-6,l),
(514,62,l),
(514,382,ls),
(514,500,o),
(438,561,o),
(286,561,cs),
(141,561,o),
(58,506,o),
(58,420,cs),
(58,410,o),
(59,398,o),
(62,378,c),
(161,347,l),
(161,343,l),
(102,319,o),
(78,283,o),
(78,219,cs),
(78,155,l),
(108,177,l),
(102,180,o),
(96,183,o),
(87,183,cs),
(56,183,o),
(20,154,o),
(20,91,cs),
(20,24,o),
(58,-11,o),
(123,-11,cs)
);
},
{
closed = 1;
nodes = (
(78,39,o),
(66,57,o),
(66,89,cs),
(66,120,o),
(78,138,o),
(104,138,cs),
(131,138,o),
(143,121,o),
(143,89,cs),
(143,57,o),
(130,39,o),
(104,39,cs)
);
}
);
width = 564;
},
{
anchors = (
{
name = bottom;
pos = (478,0);
},
{
name = top;
pos = (477,536);
}
);
layerId = "1A87246E-116E-4BF6-B440-8206DB76EC4A";
shapes = (
{
closed = 1;
nodes = (
(182,-10,o),
(218,31,o),
(218,107,cs),
(218,221,ls),
(218,286,o),
(231,317,o),
(280,312,c),
(285,317,o),
(288,325,o),
(288,335,cs),
(288,349,o),
(279,356,o),
(261,365,cs),
(195,403,l),
(195,475,o),
(221,512,o),
(276,512,cs),
(334,512,o),
(358,470,o),
(358,370,cs),
(358,-6,l),
(440,-6,l),
(486,56,l),
(486,381,ls),
(486,499,o),
(416,559,o),
(276,559,cs),
(142,559,o),
(64,505,o),
(64,419,cs),
(64,408,o),
(65,396,o),
(68,378,c),
(164,346,l),
(164,342,l),
(111,320,o),
(90,286,o),
(90,222,cs),
(90,153,l),
(114,171,l),
(108,175,o),
(99,178,o),
(89,178,cs),
(55,178,o),
(21,148,o),
(21,87,cs),
(21,24,o),
(56,-10,o),
(115,-10,cs)
);
},
{
closed = 1;
nodes = (
(76,35,o),
(64,53,o),
(64,85,cs),
(64,118,o),
(76,136,o),
(102,136,cs),
(129,136,o),
(141,118,o),
(141,86,cs),
(141,53,o),
(128,35,o),
(102,35,cs)
);
}
);
width = 544;
}
);
unicode = 3616;
},
{
glyphname = "ru-thai";
lastChange = "2016-11-15 17:20:48 +0000";
layers = (
{
anchors = (
{
name = bottom;
pos = (512,-240);
},
{
name = top;
pos = (502,536);
}
);
layerId = "CAA0A3A7-F9A4-46B2-91A1-CB381E1B2EFA";
shapes = (
{
closed = 1;
nodes = (
(463,-240,l),
(512,-182,l),
(512,383,ls),
(512,499,o),
(438,558,o),
(294,558,cs),
(160,558,o),
(78,507,o),
(78,423,cs),
(78,410,o),
(80,395,o),
(84,379,c),
(191,348,l),
(191,345,l),
(123,327,o),
(90,287,o),
(90,216,cs),
(90,94,ls),
(90,25,o),
(125,-10,o),
(189,-10,cs),
(255,-10,o),
(289,27,o),
(289,82,cs),
(289,139,o),
(250,176,o),
(197,176,cs),
(181,176,o),
(162,172,o),
(153,164,c),
(172,156,l),
(172,213,ls),
(172,280,o),
(203,313,o),
(267,318,c),
(271,322,o),
(274,330,o),
(274,337,cs),
(274,346,o),
(269,354,o),
(259,359,cs),
(162,408,l),
(162,478,o),
(208,516,o),
(293,516,cs),
(385,516,o),
(430,469,o),
(430,372,cs),
(430,-240,l)
);
},
{
closed = 1;
nodes = (
(155,30,o),
(141,51,o),
(141,82,cs),
(141,113,o),
(155,134,o),
(191,134,cs),
(227,134,o),
(241,113,o),
(241,81,cs),
(241,50,o),
(228,30,o),
(192,30,cs)
);
}
);
width = 611;
},
{
anchors = (
{
name = bottom;
pos = (587,-240);
},
{
name = top;
pos = (582,536);
}
);
layerId = "22BDAFBE-6308-4010-9D0C-693FDF26AFAA";
shapes = (
{
closed = 1;
nodes = (
(525,-240,l),
(587,-168,l),
(587,383,ls),
(587,501,o),
(494,562,o),
(317,562,cs),
(149,562,o),
(45,507,o),
(45,420,cs),
(45,412,o),
(46,400,o),
(50,379,c),
(158,348,l),
(158,344,l),
(87,319,o),
(59,281,o),
(59,216,cs),
(59,125,ls),
(59,37,o),
(107,-12,o),
(211,-12,cs),
(299,-12,o),
(345,26,o),
(345,91,cs),
(345,155,o),
(303,185,o),
(254,185,cs),
(238,185,o),
(227,181,o),
(219,177,c),
(248,159,l),
(248,213,ls),
(248,278,o),
(263,319,o),
(328,308,c),
(335,315,o),
(339,325,o),
(339,336,cs),
(339,353,o),
(329,362,o),
(299,375,cs),
(238,401,l),
(238,473,o),
(265,507,o),
(319,507,cs),
(375,507,o),
(398,470,o),
(398,372,cs),
(398,-240,l)
);
},
{
closed = 1;
nodes = (
(209,42,o),
(194,60,o),
(194,91,cs),
(194,122,o),
(209,140,o),
(242,140,cs),
(275,140,o),
(290,122,o),
(290,91,cs),
(290,60,o),
(275,42,o),
(242,42,cs)
);
}
);
width = 655;
},
{
anchors = (
{
name = bottom;
pos = (468,-214);
},
{
name = top;
pos = (458,536);
}
);
layerId = "2AF6F853-87AC-417E-A249-876B8C389FCE";
shapes = (
{
closed = 1;
nodes = (
(448,-240,l),
(468,-215,l),
(468,382,ls),
(468,494,o),
(400,552,o),
(278,552,cs),
(163,552,o),
(88,501,o),
(88,416,cs),
(88,406,o),
(89,395,o),
(91,385,c),
(201,343,l),
(201,340,l),
(134,330,o),
(102,290,o),
(102,215,cs),
(102,73,ls),
(102,24,o),
(132,-4,o),
(181,-4,cs),
(230,-4,o),
(263,25,o),
(263,69,cs),
(263,117,o),
(227,142,o),
(185,142,cs),
(161,142,o),
(142,134,o),
(133,123,c),
(130,124,l),
(130,222,ls),
(130,285,o),
(167,322,o),
(230,322,c),
(236,325,o),
(239,331,o),
(239,338,cs),
(239,347,o),
(235,352,o),
(225,356,cs),
(118,401,l),
(114,483,o),
(173,527,o),
(275,527,cs),
(384,527,o),
(440,477,o),
(440,371,cs),
(440,-240,l)
);
},
{
closed = 1;
nodes = (
(149,17,o),
(130,36,o),
(130,69,cs),
(130,102,o),
(149,121,o),
(183,121,cs),
(216,121,o),
(235,102,o),
(235,69,cs),
(235,36,o),
(215,17,o),
(182,17,cs)
);
}
);
width = 570;
},
{
anchors = (
{
name = bottom;
pos = (555,-240);
},
{
name = top;
pos = (545,536);
}
);
layerId = "B641F77A-82CB-48D8-9AD6-887D7864CC63";
shapes = (
{
closed = 1;
nodes = (
(496,-240,l),
(552,-175,l),
(552,383,ls),
(552,500,o),
(467,560,o),
(306,560,cs),
(154,560,o),
(60,507,o),
(60,421,cs),
(60,411,o),
(61,398,o),
(65,379,c),
(173,348,l),
(173,344,l),
(103,323,o),
(73,284,o),
(73,216,cs),
(73,111,ls),
(73,31,o),
(115,-11,o),
(200,-11,cs),
(278,-11,o),
(318,26,o),
(318,87,cs),
(318,148,o),
(278,181,o),
(227,181,cs),
(211,181,o),
(196,177,o),
(188,171,c),
(212,158,l),
(212,213,ls),
(212,279,o),
(235,316,o),
(299,313,c),
(305,318,o),
(308,327,o),
(308,336,cs),
(308,350,o),
(301,358,o),
(280,368,cs),
(202,404,l),
(202,475,o),
(238,511,o),
(306,511,cs),
(379,511,o),
(413,470,o),
(413,372,cs),
(413,-240,l)
);
},
{
closed = 1;
nodes = (
(184,36,o),
(169,56,o),
(169,87,cs),
(169,118,o),
(184,137,o),
(218,137,cs),
(252,137,o),
(267,118,o),
(267,86,cs),
(267,55,o),
(253,36,o),
(218,36,cs)
);
}
);
width = 634;
},
{
anchors = (
{
name = bottom;
pos = (372,-206);
},
{
name = top;
pos = (362,536);
}
);
layerId = "8AE4ADC8-9A9B-483B-9DC3-8C129A33EC0D";
shapes = (
{
closed = 1;
nodes = (
(353,-240,l),
(372,-215,l),
(372,382,ls),
(372,494,o),
(319,552,o),
(224,552,cs),
(134,552,o),
(76,501,o),
(76,416,cs),
(76,406,o),
(77,395,o),
(79,385,c),
(162,343,l),
(162,340,l),
(111,330,o),
(86,290,o),
(86,215,cs),
(86,77,ls),
(86,22,o),
(110,-4,o),
(148,-4,cs),
(185,-4,o),
(209,21,o),
(209,69,cs),
(209,118,o),
(184,142,o),
(151,142,cs),
(140,142,o),
(124,139,o),
(117,128,c),
(114,130,l),
(114,222,ls),
(114,285,o),
(142,322,o),
(190,322,c),
(194,325,o),
(196,331,o),
(196,338,cs),
(196,347,o),
(194,352,o),
(186,356,cs),
(106,401,l),
(103,483,o),
(146,527,o),
(222,527,cs),
(302,527,o),
(344,477,o),
(344,371,cs),
(344,-240,l)
);
},
{
closed = 1;
nodes = (
(124,17,o),
(110,36,o),
(110,69,cs),
(110,102,o),
(125,121,o),
(149,121,cs),
(173,121,o),
(186,102,o),
(186,69,cs),
(186,36,o),
(173,17,o),
(149,17,cs)
);
}
);
width = 459;
},
{
anchors = (
{
name = bottom;
pos = (404,-206);
},
{
name = top;
pos = (400,536);
}
);
layerId = "2C876074-2AE3-4D36-A7C1-2DCA66F9377D";
shapes = (
{
closed = 1;
nodes = (
(367,-240,l),
(407,-182,l),
(407,383,ls),
(407,499,o),
(347,558,o),
(232,558,cs),
(123,558,o),
(57,507,o),
(57,423,cs),
(57,410,o),
(58,395,o),
(61,379,c),
(143,348,l),
(143,345,l),
(91,327,o),
(66,287,o),
(66,216,cs),
(66,94,ls),
(66,25,o),
(95,-10,o),
(151,-10,cs),
(210,-10,o),
(238,27,o),
(238,82,cs),
(238,139,o),
(208,176,o),
(164,176,cs),
(152,176,o),
(139,172,o),
(132,164,c),
(148,156,l),
(148,213,ls),
(148,280,o),
(169,313,o),
(218,318,c),
(222,322,o),
(224,330,o),
(224,337,cs),
(224,346,o),
(219,353,o),
(209,360,cs),
(141,408,l),
(141,478,o),
(172,516,o),
(231,516,cs),
(294,516,o),
(325,469,o),
(325,372,cs),
(325,-240,l)
);
},
{
closed = 1;
nodes = (
(132,30,o),
(121,51,o),
(121,82,cs),
(121,113,o),
(132,134,o),
(158,134,cs),
(185,134,o),
(196,113,o),
(196,81,cs),
(196,50,o),
(186,30,o),
(159,30,cs)
);
}
);
width = 480;
},
{
anchors = (
{
name = bottom;
pos = (501,-206);
},
{
name = top;
pos = (482,536);
}
);
layerId = "3CAB0083-C9A5-4E42-9C5D-0009229A2EB9";
shapes = (
{
closed = 1;
nodes = (
(434,-240,l),
(485,-172,l),
(485,383,ls),
(485,500,o),
(409,561,o),
(264,561,cs),
(127,561,o),
(41,507,o),
(41,421,cs),
(41,411,o),
(42,399,o),
(45,379,c),
(131,348,l),
(131,344,l),
(75,321,o),
(51,283,o),
(51,216,cs),
(51,117,ls),
(51,34,o),
(92,-11,o),
(180,-11,cs),
(253,-11,o),
(289,26,o),
(289,89,cs),
(289,151,o),
(255,183,o),
(217,183,cs),
(204,183,o),
(196,179,o),
(190,174,c),
(213,158,l),
(213,213,ls),
(213,279,o),
(225,317,o),
(276,311,c),
(283,317,o),
(286,326,o),
(286,336,cs),
(286,351,o),
(277,358,o),
(253,373,cs),
(205,403,l),
(205,474,o),
(225,509,o),
(267,509,cs),
(307,509,o),
(323,470,o),
(323,372,cs),
(323,-240,l)
);
},
{
closed = 1;
nodes = (
(179,39,o),
(167,58,o),
(167,89,cs),
(167,120,o),
(179,138,o),
(206,138,cs),
(231,138,o),
(243,120,o),
(243,88,cs),
(243,57,o),
(232,39,o),
(206,39,cs)
);
}
);
width = 545;
},
{
anchors = (
{
name = bottom;
pos = (466,-206);
},
{
name = top;
pos = (452,536);
}
);
layerId = "1A87246E-116E-4BF6-B440-8206DB76EC4A";
shapes = (
{
closed = 1;
nodes = (
(411,-240,l),
(457,-178,l),
(457,383,ls),
(457,499,o),
(387,559,o),
(253,559,cs),
(126,559,o),
(47,507,o),
(47,421,cs),
(47,410,o),
(48,397,o),
(51,379,c),
(137,348,l),
(137,344,l),
(82,323,o),
(57,285,o),
(57,216,cs),
(57,107,ls),
(57,30,o),
(93,-10,o),
(168,-10,cs),
(235,-10,o),
(268,26,o),
(268,85,cs),
(268,145,o),
(236,178,o),
(195,178,cs),
(183,178,o),
(172,174,o),
(166,168,c),
(185,156,l),
(185,214,ls),
(185,280,o),
(201,316,o),
(253,314,c),
(258,319,o),
(261,328,o),
(261,336,cs),
(261,349,o),
(254,356,o),
(235,368,cs),
(177,404,l),
(177,476,o),
(203,512,o),
(254,512,cs),
(306,512,o),
(329,470,o),
(329,372,cs),
(329,-240,l)
);
},
{
closed = 1;
nodes = (
(160,35,o),
(148,54,o),
(148,85,cs),
(148,117,o),
(160,136,o),
(187,136,cs),
(213,136,o),
(225,117,o),
(225,85,cs),
(225,53,o),
(214,35,o),
(187,35,cs)
);
}
);
width = 522;
}
);
unicode = 3620;
},
{
glyphname = "ru-thai.short";
lastChange = "2016-11-15 17:20:48 +0000";
layers = (
{
anchors = (
{
name = bottom;
pos = (512,-174);
},
{
name = top;
pos = (502,536);
}
);
layerId = "CAA0A3A7-F9A4-46B2-91A1-CB381E1B2EFA";
shapes = (
{
closed = 1;
nodes = (
(463,-200,l),
(512,-142,l),
(512,383,ls),
(512,499,o),
(438,558,o),
(294,558,cs),
(160,558,o),
(78,507,o),
(78,423,cs),
(78,410,o),
(80,395,o),
(84,379,c),
(191,348,l),
(191,345,l),
(123,327,o),
(90,287,o),
(90,216,cs),
(90,94,ls),
(90,25,o),
(125,-10,o),
(189,-10,cs),
(255,-10,o),
(289,27,o),
(289,82,cs),
(289,139,o),
(250,176,o),
(197,176,cs),
(181,176,o),
(162,172,o),
(153,164,c),
(172,156,l),
(172,213,ls),
(172,280,o),
(203,313,o),
(267,318,c),
(271,322,o),
(274,330,o),
(274,337,cs),
(274,346,o),
(269,354,o),
(259,359,cs),
(162,408,l),
(162,478,o),
(208,516,o),
(293,516,cs),
(385,516,o),
(430,469,o),
(430,372,cs),
(430,-200,l)
);
},
{
closed = 1;
nodes = (
(155,30,o),
(141,51,o),
(141,82,cs),
(141,113,o),
(155,134,o),
(191,134,cs),
(227,134,o),
(241,113,o),
(241,81,cs),
(241,50,o),
(228,30,o),
(192,30,cs)
);
}
);
width = 611;
},
{
anchors = (
{
name = bottom;
pos = (587,-198);
},
{
name = top;
pos = (582,536);
}
);
layerId = "22BDAFBE-6308-4010-9D0C-693FDF26AFAA";
shapes = (
{
closed = 1;
nodes = (
(525,-200,l),
(587,-128,l),
(587,383,ls),
(587,501,o),
(494,562,o),
(317,562,cs),
(149,562,o),
(45,507,o),
(45,420,cs),
(45,412,o),
(46,400,o),
(50,379,c),
(158,348,l),
(158,344,l),
(87,319,o),
(59,281,o),
(59,216,cs),
(59,125,ls),
(59,37,o),
(107,-12,o),
(211,-12,cs),
(299,-12,o),
(345,26,o),
(345,91,cs),
(345,155,o),
(303,185,o),
(254,185,cs),
(238,185,o),
(227,181,o),
(219,177,c),
(248,159,l),
(248,213,ls),
(248,278,o),
(263,319,o),
(328,308,c),
(335,315,o),
(339,325,o),
(339,336,cs),
(339,353,o),
(329,362,o),
(299,375,cs),
(238,401,l),
(238,473,o),
(265,507,o),
(319,507,cs),
(375,507,o),
(398,470,o),
(398,372,cs),
(398,-200,l)
);
},
{
closed = 1;
nodes = (
(209,42,o),
(194,60,o),
(194,91,cs),
(194,122,o),
(209,140,o),
(242,140,cs),
(275,140,o),
(290,122,o),
(290,91,cs),
(290,60,o),
(275,42,o),
(242,42,cs)
);
}
);
width = 655;
},
{
anchors = (
{
name = bottom;
pos = (468,-175);
},
{
name = top;
pos = (458,536);
}
);
layerId = "2AF6F853-87AC-417E-A249-876B8C389FCE";
shapes = (
{
closed = 1;
nodes = (
(448,-200,l),
(468,-175,l),
(468,382,ls),
(468,494,o),
(400,552,o),
(278,552,cs),
(163,552,o),
(88,501,o),
(88,416,cs),
(88,406,o),
(89,395,o),
(91,385,c),
(201,343,l),
(201,340,l),
(134,330,o),
(102,290,o),
(102,215,cs),
(102,73,ls),
(102,24,o),
(132,-4,o),
(181,-4,cs),
(230,-4,o),
(263,25,o),
(263,69,cs),
(263,117,o),
(227,142,o),
(185,142,cs),
(161,142,o),
(142,134,o),
(133,123,c),
(130,124,l),
(130,222,ls),
(130,285,o),
(167,322,o),
(230,322,c),
(236,325,o),
(239,331,o),
(239,338,cs),
(239,347,o),
(235,352,o),
(225,356,cs),
(118,401,l),
(114,483,o),
(173,527,o),
(275,527,cs),
(384,527,o),
(440,477,o),
(440,371,cs),
(440,-200,l)
);
},
{
closed = 1;
nodes = (
(149,17,o),
(130,36,o),
(130,69,cs),
(130,102,o),
(149,121,o),
(183,121,cs),
(216,121,o),
(235,102,o),
(235,69,cs),
(235,36,o),
(215,17,o),
(182,17,cs)
);
}
);
width = 570;
},
{
anchors = (
{
name = bottom;
pos = (552,-174);
},
{
name = top;
pos = (545,536);
}
);
layerId = "B641F77A-82CB-48D8-9AD6-887D7864CC63";
shapes = (
{
closed = 1;
nodes = (
(496,-200,l),
(552,-135,l),
(552,383,ls),
(552,500,o),
(467,560,o),
(306,560,cs),
(154,560,o),
(60,507,o),
(60,421,cs),
(60,411,o),
(61,398,o),
(65,379,c),
(173,348,l),
(173,344,l),
(103,323,o),
(73,284,o),
(73,216,cs),
(73,111,ls),
(73,31,o),
(115,-11,o),
(200,-11,cs),
(278,-11,o),
(318,26,o),
(318,87,cs),
(318,148,o),
(278,181,o),
(227,181,cs),
(211,181,o),
(196,177,o),
(188,171,c),
(212,158,l),
(212,213,ls),
(212,279,o),
(235,316,o),
(299,313,c),
(305,318,o),
(308,327,o),
(308,336,cs),
(308,350,o),
(301,358,o),
(280,368,cs),
(202,404,l),
(202,475,o),
(238,511,o),
(306,511,cs),
(379,511,o),
(413,470,o),
(413,372,cs),
(413,-200,l)
);
},
{
closed = 1;
nodes = (
(184,36,o),
(169,56,o),
(169,87,cs),
(169,118,o),
(184,137,o),
(218,137,cs),
(252,137,o),
(267,118,o),
(267,86,cs),
(267,55,o),
(253,36,o),
(218,36,cs)
);
}
);
width = 634;
},
{
anchors = (
{
name = bottom;
pos = (372,-175);
},
{
name = top;
pos = (362,536);
}
);
layerId = "8AE4ADC8-9A9B-483B-9DC3-8C129A33EC0D";
shapes = (
{
closed = 1;
nodes = (
(353,-200,l),
(372,-175,l),
(372,382,ls),
(372,494,o),
(319,552,o),
(224,552,cs),
(134,552,o),
(76,501,o),
(76,416,cs),
(76,406,o),
(77,395,o),
(79,385,c),
(162,343,l),
(162,340,l),
(111,330,o),
(86,290,o),
(86,215,cs),
(86,77,ls),
(86,22,o),
(110,-4,o),
(148,-4,cs),
(185,-4,o),
(209,21,o),
(209,69,cs),
(209,118,o),
(184,142,o),
(151,142,cs),
(140,142,o),
(124,139,o),
(117,128,c),
(114,130,l),
(114,222,ls),
(114,285,o),
(142,322,o),
(190,322,c),
(194,325,o),
(196,331,o),
(196,338,cs),
(196,347,o),
(194,352,o),
(186,356,cs),
(106,401,l),
(103,483,o),
(146,527,o),
(222,527,cs),
(302,527,o),
(344,477,o),
(344,371,cs),
(344,-200,l)
);
},
{
closed = 1;
nodes = (
(124,17,o),
(110,36,o),
(110,69,cs),
(110,102,o),
(125,121,o),
(149,121,cs),
(173,121,o),
(186,102,o),
(186,69,cs),
(186,36,o),
(173,17,o),
(149,17,cs)
);
}
);
width = 459;
},
{
anchors = (
{
name = bottom;
pos = (407,-183);
},
{
name = top;
pos = (400,536);
}
);
layerId = "2C876074-2AE3-4D36-A7C1-2DCA66F9377D";
shapes = (
{
closed = 1;
nodes = (
(367,-200,l),
(407,-142,l),
(407,383,ls),
(407,499,o),
(347,558,o),
(232,558,cs),
(123,558,o),
(57,507,o),
(57,423,cs),
(57,410,o),
(58,395,o),
(61,379,c),
(143,348,l),
(143,345,l),
(91,327,o),
(66,287,o),
(66,216,cs),
(66,94,ls),
(66,25,o),
(95,-10,o),
(151,-10,cs),
(210,-10,o),
(238,27,o),
(238,82,cs),
(238,139,o),
(208,176,o),
(164,176,cs),
(152,176,o),
(139,172,o),
(132,164,c),
(148,156,l),
(148,213,ls),
(148,280,o),
(169,313,o),
(218,318,c),
(222,322,o),
(224,330,o),
(224,337,cs),
(224,346,o),
(219,353,o),
(209,360,cs),
(141,408,l),
(141,478,o),
(172,516,o),
(231,516,cs),
(294,516,o),
(325,469,o),
(325,372,cs),
(325,-200,l)
);
},
{
closed = 1;
nodes = (
(132,30,o),
(121,51,o),
(121,82,cs),
(121,113,o),
(132,134,o),
(158,134,cs),
(185,134,o),
(196,113,o),
(196,81,cs),
(196,50,o),
(186,30,o),
(159,30,cs)
);
}
);
width = 480;
},
{
anchors = (
{
name = bottom;
pos = (485,-161);
},
{
name = top;
pos = (482,536);
}
);
layerId = "3CAB0083-C9A5-4E42-9C5D-0009229A2EB9";
shapes = (
{
closed = 1;
nodes = (
(434,-200,l),
(485,-132,l),
(485,383,ls),
(485,500,o),
(409,561,o),
(264,561,cs),
(127,561,o),
(41,507,o),
(41,421,cs),
(41,411,o),
(42,399,o),
(45,379,c),
(131,348,l),
(131,344,l),
(75,321,o),
(51,283,o),
(51,216,cs),
(51,117,ls),
(51,34,o),
(92,-11,o),
(180,-11,cs),
(253,-11,o),
(289,26,o),
(289,89,cs),
(289,151,o),
(255,183,o),
(217,183,cs),
(204,183,o),
(196,179,o),
(190,174,c),
(213,158,l),
(213,213,ls),
(213,279,o),
(225,317,o),
(276,311,c),
(283,317,o),
(286,326,o),
(286,336,cs),
(286,351,o),
(277,358,o),
(253,373,cs),
(205,403,l),
(205,474,o),
(225,509,o),
(267,509,cs),
(307,509,o),
(323,470,o),
(323,372,cs),
(323,-200,l)
);
},
{
closed = 1;
nodes = (
(180,39,o),
(168,58,o),
(168,89,cs),
(168,120,o),
(180,138,o),
(207,138,cs),
(232,138,o),
(244,120,o),
(244,88,cs),
(244,57,o),
(233,39,o),
(207,39,cs)
);
}
);
width = 545;
},
{
anchors = (
{
name = bottom;
pos = (457,-167);
},
{
name = top;
pos = (452,536);
}
);
layerId = "1A87246E-116E-4BF6-B440-8206DB76EC4A";
shapes = (
{
closed = 1;
nodes = (
(411,-200,l),
(457,-138,l),
(457,383,ls),
(457,499,o),
(387,559,o),
(253,559,cs),
(126,559,o),
(47,507,o),
(47,421,cs),
(47,410,o),
(48,397,o),
(51,379,c),
(137,348,l),
(137,344,l),
(82,323,o),
(57,285,o),
(57,216,cs),
(57,107,ls),
(57,30,o),
(93,-10,o),
(168,-10,cs),
(235,-10,o),
(268,26,o),
(268,85,cs),
(268,145,o),
(236,178,o),
(195,178,cs),
(183,178,o),
(172,174,o),
(166,168,c),
(185,156,l),
(185,214,ls),
(185,280,o),
(201,316,o),
(253,314,c),
(258,319,o),
(261,328,o),
(261,336,cs),
(261,349,o),
(254,356,o),
(235,368,cs),
(177,404,l),
(177,476,o),
(203,512,o),
(254,512,cs),
(306,512,o),
(329,470,o),
(329,372,cs),
(329,-200,l)
);
},
{
closed = 1;
nodes = (
(160,35,o),
(148,54,o),
(148,85,cs),
(148,117,o),
(160,136,o),
(187,136,cs),
(213,136,o),
(225,117,o),
(225,85,cs),
(225,53,o),
(214,35,o),
(187,35,cs)
);
}
);
width = 522;
}
);
},
{
glyphname = "lu-thai";
lastChange = "2016-11-15 17:20:48 +0000";
layers = (
{
anchors = (
{
name = bottom;
pos = (549,-240);
},
{
name = top;
pos = (539,536);
}
);
layerId = "CAA0A3A7-F9A4-46B2-91A1-CB381E1B2EFA";
shapes = (
{
closed = 1;
nodes = (
(500,-240,l),
(549,-182,l),
(549,379,ls),
(549,498,o),
(475,558,o),
(326,558,cs),
(185,558,o),
(99,505,o),
(99,419,cs),
(99,406,o),
(101,391,o),
(105,375,c),
(212,344,l),
(212,341,l),
(164,319,o),
(148,290,o),
(148,228,cs),
(148,154,l),
(167,169,l),
(157,173,o),
(141,176,o),
(125,176,cs),
(75,176,o),
(35,143,o),
(35,83,cs),
(35,25,o),
(72,-9,o),
(133,-9,cs),
(196,-9,o),
(230,27,o),
(230,95,cs),
(230,230,ls),
(230,293,o),
(244,314,o),
(288,314,c),
(292,318,o),
(295,325,o),
(295,333,cs),
(295,342,o),
(290,350,o),
(280,355,cs),
(183,404,l),
(183,476,o),
(233,516,o),
(323,516,cs),
(422,516,o),
(467,469,o),
(467,368,cs),
(467,-240,l)
);
},
{
closed = 1;
nodes = (
(98,32,o),
(83,48,o),
(83,82,cs),
(83,116,o),
(99,134,o),
(131,134,cs),
(163,134,o),
(179,117,o),
(179,83,cs),
(179,49,o),
(162,32,o),
(130,32,cs)
);
}
);
width = 648;
},
{
anchors = (
{
name = bottom;
pos = (623,-240);
},
{
name = top;
pos = (613,536);
}
);
layerId = "22BDAFBE-6308-4010-9D0C-693FDF26AFAA";
shapes = (
{
closed = 1;
nodes = (
(561,-240,l),
(623,-168,l),
(623,383,ls),
(623,501,o),
(530,562,o),
(346,562,cs),
(169,562,o),
(67,506,o),
(67,420,cs),
(67,412,o),
(68,400,o),
(72,379,c),
(194,348,l),
(194,344,l),
(123,319,o),
(95,281,o),
(95,216,cs),
(95,155,l),
(130,180,l),
(123,183,o),
(113,185,o),
(101,185,cs),
(62,185,o),
(18,158,o),
(18,94,cs),
(18,24,o),
(64,-12,o),
(143,-12,cs),
(235,-12,o),
(284,37,o),
(284,125,cs),
(284,213,ls),
(284,278,o),
(299,319,o),
(364,308,c),
(371,315,o),
(375,325,o),
(375,336,cs),
(375,355,o),
(364,363,o),
(335,374,cs),
(260,401,l),
(260,473,o),
(287,507,o),
(348,507,cs),
(411,507,o),
(434,470,o),
(434,372,cs),
(434,-240,l)
);
},
{
closed = 1;
nodes = (
(88,42,o),
(73,60,o),
(73,91,cs),
(73,122,o),
(88,140,o),
(121,140,cs),
(154,140,o),
(169,122,o),
(169,91,cs),
(169,60,o),
(154,42,o),
(121,42,cs)
);
}
);
width = 686;
},
{
anchors = (
{
name = bottom;
pos = (488,-214);
},
{
name = top;
pos = (479,536);
}
);
layerId = "2AF6F853-87AC-417E-A249-876B8C389FCE";
shapes = (
{
closed = 1;
nodes = (
(469,-240,l),
(489,-215,l),
(489,385,ls),
(489,495,o),
(421,552,o),
(298,552,cs),
(180,552,o),
(109,501,o),
(109,416,cs),
(109,406,o),
(110,395,o),
(112,385,c),
(232,343,l),
(232,340,l),
(165,330,o),
(147,290,o),
(147,215,cs),
(147,125,l),
(144,123,l),
(136,134,o),
(117,142,o),
(95,142,cs),
(56,142,o),
(20,117,o),
(20,70,cs),
(20,25,o),
(53,-4,o),
(98,-4,cs),
(142,-4,o),
(175,24,o),
(175,73,cs),
(175,222,ls),
(175,294,o),
(198,322,o),
(261,322,c),
(267,325,o),
(270,331,o),
(270,338,cs),
(270,347,o),
(266,352,o),
(256,356,cs),
(139,401,l),
(135,481,o),
(189,527,o),
(296,527,cs),
(405,527,o),
(461,479,o),
(461,374,cs),
(461,-240,l)
);
},
{
closed = 1;
nodes = (
(69,17,o),
(48,36,o),
(48,69,cs),
(48,102,o),
(68,121,o),
(96,121,cs),
(125,121,o),
(147,102,o),
(147,69,cs),
(147,36,o),
(125,17,o),
(97,17,cs)
);
}
);
width = 591;
},
{
anchors = (
{
name = bottom;
pos = (589,-240);
},
{
name = top;
pos = (578,536);
}
);
layerId = "B641F77A-82CB-48D8-9AD6-887D7864CC63";
shapes = (
{
closed = 1;
nodes = (
(533,-240,l),
(588,-175,l),
(588,381,ls),
(588,500,o),
(504,560,o),
(337,560,cs),
(177,560,o),
(82,506,o),
(82,420,cs),
(82,409,o),
(83,396,o),
(87,377,c),
(202,346,l),
(202,343,l),
(142,319,o),
(120,285,o),
(120,222,cs),
(120,155,l),
(147,175,l),
(139,178,o),
(126,181,o),
(112,181,cs),
(68,181,o),
(26,151,o),
(26,89,cs),
(26,24,o),
(68,-11,o),
(138,-11,cs),
(217,-11,o),
(259,32,o),
(259,111,cs),
(259,221,ls),
(259,285,o),
(273,317,o),
(329,311,c),
(334,316,o),
(338,325,o),
(338,335,cs),
(338,349,o),
(329,357,o),
(309,365,cs),
(224,402,l),
(224,474,o),
(262,511,o),
(336,511,cs),
(416,511,o),
(449,470,o),
(449,370,cs),
(449,-240,l)
);
},
{
closed = 1;
nodes = (
(93,37,o),
(78,54,o),
(78,87,cs),
(78,119,o),
(93,137,o),
(126,137,cs),
(159,137,o),
(174,120,o),
(174,87,cs),
(174,55,o),
(158,37,o),
(126,37,cs)
);
}
);
width = 668;
},
{
anchors = (
{
name = bottom;
pos = (389,-206);
},
{
name = top;
pos = (379,536);
}
);
layerId = "8AE4ADC8-9A9B-483B-9DC3-8C129A33EC0D";
shapes = (
{
closed = 1;
nodes = (
(370,-240,l),
(389,-215,l),
(389,385,ls),
(389,495,o),
(338,552,o),
(241,552,cs),
(148,552,o),
(92,501,o),
(92,416,cs),
(92,406,o),
(92,395,o),
(94,385,c),
(184,343,l),
(184,340,l),
(135,330,o),
(122,290,o),
(122,215,cs),
(122,130,l),
(119,128,l),
(112,139,o),
(96,142,o),
(85,142,cs),
(52,142,o),
(27,118,o),
(27,69,cs),
(27,21,o),
(51,-4,o),
(88,-4,cs),
(126,-4,o),
(150,22,o),
(150,77,cs),
(150,222,ls),
(150,293,o),
(165,322,o),
(212,322,c),
(216,325,o),
(218,331,o),
(218,338,cs),
(218,347,o),
(215,352,o),
(207,356,cs),
(121,401,l),
(119,481,o),
(160,527,o),
(239,527,cs),
(321,527,o),
(361,479,o),
(361,374,cs),
(361,-240,l)
);
},
{
closed = 1;
nodes = (
(63,17,o),
(50,36,o),
(50,69,cs),
(50,102,o),
(63,121,o),
(87,121,cs),
(111,121,o),
(126,102,o),
(126,69,cs),
(126,36,o),
(112,17,o),
(87,17,cs)
);
}
);
width = 476;
},
{
anchors = (
{
name = bottom;
pos = (430,-206);
},
{
name = top;
pos = (427,536);
}
);
layerId = "2C876074-2AE3-4D36-A7C1-2DCA66F9377D";
shapes = (
{
closed = 1;
nodes = (
(395,-240,l),
(434,-182,l),
(434,379,ls),
(434,498,o),
(375,558,o),
(255,558,cs),
(141,558,o),
(73,505,o),
(73,419,cs),
(73,406,o),
(74,391,o),
(77,375,c),
(161,344,l),
(161,341,l),
(121,319,o),
(106,290,o),
(106,228,cs),
(106,154,l),
(124,169,l),
(117,173,o),
(105,176,o),
(94,176,cs),
(58,176,o),
(27,143,o),
(27,83,cs),
(27,25,o),
(57,-9,o),
(106,-9,cs),
(160,-9,o),
(188,27,o),
(188,95,cs),
(188,230,ls),
(188,293,o),
(199,314,o),
(237,314,c),
(240,318,o),
(243,325,o),
(243,333,cs),
(243,342,o),
(237,350,o),
(227,356,cs),
(157,404,l),
(157,476,o),
(191,516,o),
(253,516,cs),
(322,516,o),
(352,469,o),
(352,368,cs),
(352,-240,l)
);
},
{
closed = 1;
nodes = (
(78,32,o),
(67,48,o),
(67,82,cs),
(67,116,o),
(79,134,o),
(103,134,cs),
(128,134,o),
(140,117,o),
(140,83,cs),
(140,49,o),
(127,32,o),
(103,32,cs)
);
}
);
width = 507;
},
{
anchors = (
{
name = bottom;
pos = (523,-206);
},
{
name = top;
pos = (506,536);
}
);
layerId = "3CAB0083-C9A5-4E42-9C5D-0009229A2EB9";
shapes = (
{
closed = 1;
nodes = (
(463,-240,l),
(514,-172,l),
(514,382,ls),
(514,500,o),
(438,561,o),
(286,561,cs),
(141,561,o),
(58,506,o),
(58,420,cs),
(58,410,o),
(59,398,o),
(62,378,c),
(161,347,l),
(161,343,l),
(102,319,o),
(78,283,o),
(78,219,cs),
(78,155,l),
(108,177,l),
(102,180,o),
(96,183,o),
(87,183,cs),
(56,183,o),
(20,154,o),
(20,91,cs),
(20,24,o),
(58,-11,o),
(123,-11,cs),
(199,-11,o),
(240,34,o),
(240,117,cs),
(240,217,ls),
(240,282,o),
(253,318,o),
(307,310,c),
(313,316,o),
(316,325,o),
(316,335,cs),
(316,352,o),
(306,359,o),
(282,371,cs),
(223,402,l),
(223,474,o),
(242,509,o),
(288,509,cs),
(334,509,o),
(352,470,o),
(352,371,cs),
(352,-240,l)
);
},
{
closed = 1;
nodes = (
(78,39,o),
(66,57,o),
(66,89,cs),
(66,120,o),
(78,138,o),
(104,138,cs),
(131,138,o),
(143,121,o),
(143,89,cs),
(143,57,o),
(130,39,o),
(104,39,cs)
);
}
);
width = 568;
},
{
anchors = (
{
name = bottom;
pos = (489,-206);
},
{
name = top;
pos = (477,536);
}
);
layerId = "1A87246E-116E-4BF6-B440-8206DB76EC4A";
shapes = (
{
closed = 1;
nodes = (
(440,-240,l),
(486,-178,l),
(486,381,ls),
(486,499,o),
(416,559,o),
(276,559,cs),
(142,559,o),
(64,505,o),
(64,419,cs),
(64,408,o),
(65,396,o),
(68,378,c),
(164,346,l),
(164,342,l),
(111,320,o),
(90,286,o),
(90,222,cs),
(90,153,l),
(114,171,l),
(108,175,o),
(99,178,o),
(89,178,cs),
(55,178,o),
(21,148,o),
(21,87,cs),
(21,24,o),
(56,-10,o),
(115,-10,cs),
(182,-10,o),
(218,31,o),
(218,107,cs),
(218,221,ls),
(218,286,o),
(231,317,o),
(280,312,c),
(285,317,o),
(288,325,o),
(288,335,cs),
(288,349,o),
(279,356,o),
(261,365,cs),
(195,403,l),
(195,475,o),
(221,512,o),
(276,512,cs),
(334,512,o),
(358,470,o),
(358,370,cs),
(358,-240,l)
);
},
{
closed = 1;
nodes = (
(76,35,o),
(64,53,o),
(64,85,cs),
(64,118,o),
(76,136,o),
(102,136,cs),
(129,136,o),
(141,118,o),
(141,86,cs),
(141,53,o),
(128,35,o),
(102,35,cs)
);
}
);
width = 547;
}
);
unicode = 3622;
},
{
glyphname = "lu-thai.short";
lastChange = "2016-11-15 17:20:48 +0000";
layers = (
{
anchors = (
{
name = bottom;
pos = (549,-174);
},
{
name = top;
pos = (539,536);
}
);
layerId = "CAA0A3A7-F9A4-46B2-91A1-CB381E1B2EFA";
shapes = (
{
closed = 1;
nodes = (
(500,-200,l),
(549,-142,l),
(549,379,ls),
(549,498,o),
(475,558,o),
(326,558,cs),
(185,558,o),
(99,505,o),
(99,419,cs),
(99,406,o),
(101,391,o),
(105,375,c),
(212,344,l),
(212,341,l),
(164,319,o),
(148,290,o),
(148,228,cs),
(148,154,l),
(167,169,l),
(157,173,o),
(141,176,o),
(125,176,cs),
(75,176,o),
(35,143,o),
(35,83,cs),
(35,25,o),
(72,-9,o),
(133,-9,cs),
(196,-9,o),
(230,27,o),
(230,95,cs),
(230,230,ls),
(230,293,o),
(244,314,o),
(288,314,c),
(292,318,o),
(295,325,o),
(295,333,cs),
(295,342,o),
(290,350,o),
(280,355,cs),
(183,404,l),
(183,476,o),
(233,516,o),
(323,516,cs),
(422,516,o),
(467,469,o),
(467,368,cs),
(467,-200,l)
);
},
{
closed = 1;
nodes = (
(98,32,o),
(83,48,o),
(83,82,cs),
(83,116,o),
(99,134,o),
(131,134,cs),
(163,134,o),
(179,117,o),
(179,83,cs),
(179,49,o),
(162,32,o),
(130,32,cs)
);
}
);
width = 648;
},
{
anchors = (
{
name = bottom;
pos = (623,-198);
},
{
name = top;
pos = (613,536);
}
);
layerId = "22BDAFBE-6308-4010-9D0C-693FDF26AFAA";
shapes = (
{
closed = 1;
nodes = (
(561,-200,l),
(623,-128,l),
(623,383,ls),
(623,501,o),
(530,562,o),
(346,562,cs),
(169,562,o),
(67,506,o),
(67,420,cs),
(67,412,o),
(68,400,o),
(72,379,c),
(194,348,l),
(194,344,l),
(123,319,o),
(95,281,o),
(95,216,cs),
(95,155,l),
(130,180,l),
(123,183,o),
(113,185,o),
(101,185,cs),
(62,185,o),
(18,158,o),
(18,94,cs),
(18,24,o),
(64,-12,o),
(143,-12,cs),
(235,-12,o),
(284,37,o),
(284,125,cs),
(284,213,ls),
(284,278,o),
(299,319,o),
(364,308,c),
(371,315,o),
(375,325,o),
(375,336,cs),
(375,355,o),
(364,363,o),
(335,374,cs),
(260,401,l),
(260,473,o),
(287,507,o),
(348,507,cs),
(411,507,o),
(434,470,o),
(434,372,cs),
(434,-200,l)
);
},
{
closed = 1;
nodes = (
(88,42,o),
(73,60,o),
(73,91,cs),
(73,122,o),
(88,140,o),
(121,140,cs),
(154,140,o),
(169,122,o),
(169,91,cs),
(169,60,o),
(154,42,o),
(121,42,cs)
);
}
);
width = 686;
},
{
anchors = (
{
name = bottom;
pos = (489,-174);
},
{
name = top;
pos = (479,536);
}
);
layerId = "2AF6F853-87AC-417E-A249-876B8C389FCE";
shapes = (
{
closed = 1;
nodes = (
(469,-200,l),
(489,-175,l),
(489,385,ls),
(489,495,o),
(421,552,o),
(298,552,cs),
(180,552,o),
(109,501,o),
(109,416,cs),
(109,406,o),
(110,395,o),
(112,385,c),
(232,343,l),
(232,340,l),
(165,330,o),
(147,290,o),
(147,215,cs),
(147,125,l),
(144,123,l),
(136,134,o),
(117,142,o),
(95,142,cs),
(56,142,o),
(20,117,o),
(20,70,cs),
(20,25,o),
(53,-4,o),
(98,-4,cs),
(142,-4,o),
(175,24,o),
(175,73,cs),
(175,222,ls),
(175,294,o),
(198,322,o),
(261,322,c),
(267,325,o),
(270,331,o),
(270,338,cs),
(270,347,o),
(266,352,o),
(256,356,cs),
(139,401,l),
(135,481,o),
(189,527,o),
(296,527,cs),
(405,527,o),
(461,479,o),
(461,374,cs),
(461,-200,l)
);
},
{
closed = 1;
nodes = (
(69,17,o),
(48,36,o),
(48,69,cs),
(48,102,o),
(68,121,o),
(96,121,cs),
(125,121,o),
(147,102,o),
(147,69,cs),
(147,36,o),
(125,17,o),
(97,17,cs)
);
}
);
width = 591;
},
{
anchors = (
{
name = bottom;
pos = (588,-174);
},
{
name = top;
pos = (578,536);
}
);
layerId = "B641F77A-82CB-48D8-9AD6-887D7864CC63";
shapes = (
{
closed = 1;
nodes = (
(533,-200,l),
(588,-135,l),
(588,381,ls),
(588,500,o),
(504,560,o),
(337,560,cs),
(177,560,o),
(82,506,o),
(82,420,cs),
(82,409,o),
(83,396,o),
(87,377,c),
(202,346,l),
(202,343,l),
(142,319,o),
(120,285,o),
(120,222,cs),
(120,155,l),
(147,175,l),
(139,178,o),
(126,181,o),
(112,181,cs),
(68,181,o),
(26,151,o),
(26,89,cs),
(26,24,o),
(68,-11,o),
(138,-11,cs),
(217,-11,o),
(259,32,o),
(259,111,cs),
(259,221,ls),
(259,285,o),
(273,317,o),
(329,311,c),
(334,316,o),
(338,325,o),
(338,335,cs),
(338,349,o),
(329,357,o),
(309,365,cs),
(224,402,l),
(224,474,o),
(262,511,o),
(336,511,cs),
(416,511,o),
(449,470,o),
(449,370,cs),
(449,-200,l)
);
},
{
closed = 1;
nodes = (
(93,37,o),
(78,54,o),
(78,87,cs),
(78,119,o),
(93,137,o),
(126,137,cs),
(159,137,o),
(174,120,o),
(174,87,cs),
(174,55,o),
(158,37,o),
(126,37,cs)
);
}
);
width = 668;
},
{
anchors = (
{
name = bottom;
pos = (389,-175);
},
{
name = top;
pos = (379,536);
}
);
layerId = "8AE4ADC8-9A9B-483B-9DC3-8C129A33EC0D";
shapes = (
{
closed = 1;
nodes = (
(370,-200,l),
(389,-175,l),
(389,385,ls),
(389,495,o),
(338,552,o),
(241,552,cs),
(148,552,o),
(92,501,o),
(92,416,cs),
(92,406,o),
(92,395,o),
(94,385,c),
(184,343,l),
(184,340,l),
(135,330,o),
(122,290,o),
(122,215,cs),
(122,130,l),
(119,128,l),
(112,139,o),
(96,142,o),
(85,142,cs),
(52,142,o),
(27,118,o),
(27,69,cs),
(27,21,o),
(51,-4,o),
(88,-4,cs),
(126,-4,o),
(150,22,o),
(150,77,cs),
(150,222,ls),
(150,293,o),
(165,322,o),
(212,322,c),
(216,325,o),
(218,331,o),
(218,338,cs),
(218,347,o),
(215,352,o),
(207,356,cs),
(121,401,l),
(119,481,o),
(160,527,o),
(239,527,cs),
(321,527,o),
(361,479,o),
(361,374,cs),
(361,-200,l)
);
},
{
closed = 1;
nodes = (
(63,17,o),
(50,36,o),
(50,69,cs),
(50,102,o),
(63,121,o),
(87,121,cs),
(111,121,o),
(126,102,o),
(126,69,cs),
(126,36,o),
(112,17,o),
(87,17,cs)
);
}
);
width = 476;
},
{
anchors = (
{
name = bottom;
pos = (434,-183);
},
{
name = top;
pos = (427,536);
}
);
layerId = "2C876074-2AE3-4D36-A7C1-2DCA66F9377D";
shapes = (
{
closed = 1;
nodes = (
(395,-200,l),
(434,-142,l),
(434,379,ls),
(434,498,o),
(375,558,o),
(255,558,cs),
(141,558,o),
(73,505,o),
(73,419,cs),
(73,406,o),
(74,391,o),
(77,375,c),
(161,344,l),
(161,341,l),
(121,319,o),
(106,290,o),
(106,228,cs),
(106,154,l),
(124,169,l),
(117,173,o),
(105,176,o),
(94,176,cs),
(58,176,o),
(27,143,o),
(27,83,cs),
(27,25,o),
(57,-9,o),
(106,-9,cs),
(160,-9,o),
(188,27,o),
(188,95,cs),
(188,230,ls),
(188,293,o),
(199,314,o),
(237,314,c),
(240,318,o),
(243,325,o),
(243,333,cs),
(243,342,o),
(237,350,o),
(227,356,cs),
(157,404,l),
(157,476,o),
(191,516,o),
(253,516,cs),
(322,516,o),
(352,469,o),
(352,368,cs),
(352,-200,l)
);
},
{
closed = 1;
nodes = (
(78,32,o),
(67,48,o),
(67,82,cs),
(67,116,o),
(79,134,o),
(103,134,cs),
(128,134,o),
(140,117,o),
(140,83,cs),
(140,49,o),
(127,32,o),
(103,32,cs)
);
}
);
width = 507;
},
{
anchors = (
{
name = bottom;
pos = (514,-183);
},
{
name = top;
pos = (506,536);
}
);
layerId = "3CAB0083-C9A5-4E42-9C5D-0009229A2EB9";
shapes = (
{
closed = 1;
nodes = (
(463,-200,l),
(514,-132,l),
(514,382,ls),
(514,500,o),
(438,561,o),
(286,561,cs),
(141,561,o),
(58,506,o),
(58,420,cs),
(58,410,o),
(59,398,o),
(62,378,c),
(161,347,l),
(161,343,l),
(102,319,o),
(78,283,o),
(78,219,cs),
(78,155,l),
(108,177,l),
(102,180,o),
(96,183,o),
(87,183,cs),
(56,183,o),
(20,154,o),
(20,91,cs),
(20,24,o),
(58,-11,o),
(123,-11,cs),
(199,-11,o),
(240,34,o),
(240,117,cs),
(240,217,ls),
(240,282,o),
(253,318,o),
(307,310,c),
(313,316,o),
(316,325,o),
(316,335,cs),
(316,352,o),
(306,359,o),
(282,371,cs),
(223,402,l),
(223,474,o),
(242,509,o),
(288,509,cs),
(334,509,o),
(352,470,o),
(352,371,cs),
(352,-200,l)
);
},
{
closed = 1;
nodes = (
(78,39,o),
(66,57,o),
(66,89,cs),
(66,120,o),
(78,138,o),
(104,138,cs),
(131,138,o),
(143,121,o),
(143,89,cs),
(143,57,o),
(130,39,o),
(104,39,cs)
);
}
);
width = 568;
},
{
anchors = (
{
name = bottom;
pos = (485,-182);
},
{
name = top;
pos = (477,536);
}
);
layerId = "1A87246E-116E-4BF6-B440-8206DB76EC4A";
shapes = (
{
closed = 1;
nodes = (
(440,-200,l),
(486,-138,l),
(486,381,ls),
(486,499,o),
(416,559,o),
(276,559,cs),
(142,559,o),
(64,505,o),
(64,419,cs),
(64,408,o),
(65,396,o),
(68,378,c),
(164,346,l),
(164,342,l),
(111,320,o),
(90,286,o),
(90,222,cs),
(90,153,l),
(114,171,l),
(108,175,o),
(99,178,o),
(89,178,cs),
(55,178,o),
(21,148,o),
(21,87,cs),
(21,24,o),
(56,-10,o),
(115,-10,cs),
(182,-10,o),
(218,31,o),
(218,107,cs),
(218,221,ls),
(218,286,o),
(231,317,o),
(280,312,c),
(285,317,o),
(288,325,o),
(288,335,cs),
(288,349,o),
(279,356,o),
(261,365,cs),
(195,403,l),
(195,475,o),
(221,512,o),
(276,512,cs),
(334,512,o),
(358,470,o),
(358,370,cs),
(358,-200,l)
);
},
{
closed = 1;
nodes = (
(76,35,o),
(64,53,o),
(64,85,cs),
(64,118,o),
(76,136,o),
(102,136,cs),
(129,136,o),
(141,118,o),
(141,86,cs),
(141,53,o),
(128,35,o),
(102,35,cs)
);
}
);
width = 547;
}
);
},
{
glyphname = "doChada-thai";
lastChange = "2016-11-15 17:20:48 +0000";
layers = (
{
anchors = (
{
name = bottom;
pos = (549,-240);
},
{
name = top;
pos = (539,536);
}
);
layerId = "CAA0A3A7-F9A4-46B2-91A1-CB381E1B2EFA";
shapes = (
{
closed = 1;
nodes = (
(351,-250,o),
(414,-164,o),
(414,-85,cs),
(414,-48,o),
(400,-27,o),
(348,-37,c),
(350,-198,o),
(282,-216,o),
(230,-216,cs),
(180,-216,o),
(156,-199,o),
(156,-170,cs),
(156,-139,o),
(182,-122,o),
(229,-122,cs),
(279,-122,o),
(395,-141,o),
(473,-240,c),
(500,-240,l),
(549,-182,l),
(549,379,l),
(549,498,o),
(475,558,o),
(326,558,cs),
(185,558,o),
(99,505,o),
(99,419,cs),
(99,406,o),
(101,391,o),
(105,375,c),
(212,344,l),
(212,341,l),
(164,319,o),
(148,290,o),
(148,228,cs),
(148,154,l),
(167,169,l),
(157,173,o),
(141,176,o),
(125,176,cs),
(75,176,o),
(35,143,o),
(35,83,cs),
(35,25,o),
(72,-9,o),
(133,-9,cs),
(196,-9,o),
(230,27,o),
(230,95,cs),
(230,230,ls),
(230,293,o),
(244,314,o),
(288,314,c),
(292,318,o),
(295,325,o),
(295,333,cs),
(295,342,o),
(290,350,o),
(280,355,cs),
(183,404,l),
(183,476,o),
(233,516,o),
(323,516,cs),
(422,516,o),
(467,469,o),
(467,368,c),
(467,-183,l),
(464,-183,l),
(408,-128,o),
(307,-88,o),
(216,-88,cs),
(153,-88,o),
(77,-107,o),
(77,-168,cs),
(77,-223,o),
(139,-250,o),
(215,-250,cs)
);
},
{
closed = 1;
nodes = (
(98,32,o),
(83,48,o),
(83,82,cs),
(83,116,o),
(99,134,o),
(131,134,cs),
(163,134,o),
(179,117,o),
(179,83,cs),
(179,49,o),
(162,32,o),
(130,32,cs)
);
}
);
width = 644;
},
{
anchors = (
{
name = bottom;
pos = (623,-240);
},
{
name = top;
pos = (613,536);
}
);
layerId = "22BDAFBE-6308-4010-9D0C-693FDF26AFAA";
shapes = (
{
closed = 1;
nodes = (
(343,-250,o),
(397,-156,o),
(397,-82,cs),
(397,-6,o),
(339,-2,o),
(274,-20,c),
(305,-134,o),
(264,-206,o),
(215,-206,cs),
(194,-206,o),
(176,-193,o),
(176,-165,cs),
(176,-135,o),
(195,-112,o),
(250,-112,cs),
(343,-112,o),
(435,-176,o),
(464,-240,c),
(558,-240,l),
(623,-163,l),
(623,383,ls),
(623,501,o),
(530,562,o),
(346,562,cs),
(169,562,o),
(67,506,o),
(67,420,cs),
(67,412,o),
(68,400,o),
(72,379,c),
(194,348,l),
(194,344,l),
(123,319,o),
(95,281,o),
(95,216,cs),
(95,155,l),
(130,180,l),
(123,183,o),
(113,185,o),
(101,185,cs),
(62,185,o),
(18,158,o),
(18,94,cs),
(18,24,o),
(64,-12,o),
(143,-12,cs),
(235,-12,o),
(284,37,o),
(284,125,cs),
(284,213,ls),
(284,278,o),
(299,319,o),
(364,308,c),
(371,315,o),
(375,325,o),
(375,336,cs),
(375,355,o),
(364,363,o),
(335,374,cs),
(260,401,l),
(260,473,o),
(287,507,o),
(348,507,cs),
(411,507,o),
(434,470,o),
(434,372,cs),
(434,-129,l),
(430,-129,l),
(386,-91,o),
(326,-68,o),
(230,-68,cs),
(128,-68,o),
(40,-95,o),
(40,-162,cs),
(40,-221,o),
(109,-250,o),
(193,-250,cs)
);
},
{
closed = 1;
nodes = (
(88,42,o),
(73,60,o),
(73,91,cs),
(73,122,o),
(88,140,o),
(121,140,cs),
(154,140,o),
(169,122,o),
(169,91,cs),
(169,60,o),
(154,42,o),
(121,42,cs)
);
}
);
width = 683;
},
{
anchors = (
{
name = bottom;
pos = (488,-214);
},
{
name = top;
pos = (479,536);
}
);
layerId = "2AF6F853-87AC-417E-A249-876B8C389FCE";
shapes = (
{
closed = 1;
nodes = (
(285,-246,o),
(361,-171,o),
(361,-78,cs),
(361,-48,o),
(353,-42,o),
(333,-46,c),
(339,-169,o),
(255,-223,o),
(169,-223,cs),
(118,-223,o),
(86,-204,o),
(86,-168,cs),
(86,-135,o),
(114,-114,o),
(182,-114,cs),
(305,-114,o),
(401,-182,o),
(463,-240,c),
(469,-240,l),
(489,-215,l),
(489,385,l),
(489,495,o),
(421,552,o),
(298,552,cs),
(180,552,o),
(109,501,o),
(109,416,cs),
(109,406,o),
(110,395,o),
(112,385,c),
(232,343,l),
(232,340,l),
(165,330,o),
(147,290,o),
(147,215,cs),
(147,125,l),
(144,123,l),
(136,134,o),
(117,142,o),
(95,142,cs),
(56,142,o),
(20,117,o),
(20,70,cs),
(20,25,o),
(53,-4,o),
(98,-4,cs),
(142,-4,o),
(175,24,o),
(175,73,cs),
(175,222,ls),
(175,294,o),
(198,322,o),
(261,322,c),
(267,325,o),
(270,331,o),
(270,338,cs),
(270,347,o),
(266,352,o),
(256,356,cs),
(139,401,l),
(135,481,o),
(189,527,o),
(296,527,cs),
(405,527,o),
(461,479,o),
(461,374,c),
(461,-204,l),
(458,-204,l),
(411,-160,o),
(304,-90,o),
(181,-90,cs),
(95,-90,o),
(56,-122,o),
(56,-169,cs),
(56,-217,o),
(100,-246,o),
(169,-246,cs)
);
},
{
closed = 1;
nodes = (
(69,17,o),
(48,36,o),
(48,69,cs),
(48,102,o),
(68,121,o),
(96,121,cs),
(125,121,o),
(147,102,o),
(147,69,cs),
(147,36,o),
(125,17,o),
(97,17,cs)
);
}
);
width = 591;
},
{
anchors = (
{
name = bottom;
pos = (588,-240);
},
{
name = top;
pos = (578,536);
}
);
layerId = "B641F77A-82CB-48D8-9AD6-887D7864CC63";
shapes = (
{
closed = 1;
nodes = (
(346,-250,o),
(405,-160,o),
(405,-83,cs),
(405,-26,o),
(367,-14,o),
(308,-28,c),
(326,-164,o),
(272,-211,o),
(222,-211,cs),
(187,-211,o),
(166,-196,o),
(166,-167,cs),
(166,-137,o),
(189,-117,o),
(240,-117,cs),
(313,-117,o),
(416,-160,o),
(468,-240,c),
(531,-240,l),
(588,-172,l),
(588,381,ls),
(588,500,o),
(504,560,o),
(337,560,cs),
(177,560,o),
(82,506,o),
(82,420,cs),
(82,409,o),
(83,396,o),
(87,377,c),
(202,346,l),
(202,343,l),
(142,319,o),
(120,285,o),
(120,222,cs),
(120,155,l),
(147,175,l),
(139,178,o),
(126,181,o),
(112,181,cs),
(68,181,o),
(26,151,o),
(26,89,cs),
(26,24,o),
(68,-11,o),
(138,-11,cs),
(217,-11,o),
(259,32,o),
(259,111,cs),
(259,221,ls),
(259,285,o),
(273,317,o),
(329,311,c),
(334,316,o),
(338,325,o),
(338,335,cs),
(338,349,o),
(329,357,o),
(309,365,cs),
(224,402,l),
(224,474,o),
(262,511,o),
(336,511,cs),
(416,511,o),
(449,470,o),
(449,370,cs),
(449,-154,l),
(446,-154,l),
(396,-108,o),
(317,-77,o),
(223,-77,cs),
(139,-77,o),
(57,-101,o),
(57,-165,cs),
(57,-222,o),
(123,-250,o),
(203,-250,cs)
);
},
{
closed = 1;
nodes = (
(93,37,o),
(78,54,o),
(78,87,cs),
(78,119,o),
(93,137,o),
(126,137,cs),
(159,137,o),
(174,120,o),
(174,87,cs),
(174,55,o),
(158,37,o),
(126,37,cs)
);
}
);
width = 665;
},
{
anchors = (
{
name = bottom;
pos = (389,-240);
},
{
name = top;
pos = (379,536);
}
);
layerId = "8AE4ADC8-9A9B-483B-9DC3-8C129A33EC0D";
shapes = (
{
closed = 1;
nodes = (
(233,-246,o),
(291,-160,o),
(291,-77,cs),
(291,-48,o),
(284,-42,o),
(265,-46,c),
(271,-143,o),
(220,-223,o),
(145,-223,cs),
(108,-223,o),
(84,-204,o),
(84,-168,cs),
(84,-135,o),
(105,-114,o),
(155,-114,cs),
(234,-114,o),
(308,-166,o),
(363,-240,c),
(370,-240,l),
(389,-215,l),
(389,385,ls),
(389,495,o),
(337,552,o),
(240,552,cs),
(147,552,o),
(92,501,o),
(92,416,cs),
(92,406,o),
(92,395,o),
(94,385,c),
(184,343,l),
(184,340,l),
(135,330,o),
(122,290,o),
(122,215,cs),
(122,130,l),
(119,128,l),
(112,139,o),
(96,142,o),
(85,142,cs),
(52,142,o),
(27,118,o),
(27,69,cs),
(27,21,o),
(51,-4,o),
(88,-4,cs),
(126,-4,o),
(150,22,o),
(150,77,cs),
(150,222,ls),
(150,294,o),
(166,322,o),
(212,322,c),
(216,325,o),
(218,331,o),
(218,338,cs),
(218,347,o),
(215,352,o),
(207,356,cs),
(121,401,l),
(119,481,o),
(159,527,o),
(238,527,cs),
(320,527,o),
(361,479,o),
(361,374,cs),
(361,-198,l),
(359,-198,l),
(307,-133,o),
(236,-90,o),
(156,-90,cs),
(87,-90,o),
(55,-122,o),
(55,-168,cs),
(55,-217,o),
(91,-246,o),
(143,-246,cs)
);
},
{
closed = 1;
nodes = (
(63,17,o),
(50,36,o),
(50,69,cs),
(50,102,o),
(63,121,o),
(87,121,cs),
(111,121,o),
(126,102,o),
(126,69,cs),
(126,36,o),
(112,17,o),
(87,17,cs)
);
}
);
width = 476;
},
{
anchors = (
{
name = bottom;
pos = (434,-240);
},
{
name = top;
pos = (427,536);
}
);
layerId = "2C876074-2AE3-4D36-A7C1-2DCA66F9377D";
shapes = (
{
closed = 1;
nodes = (
(269,-250,o),
(315,-164,o),
(315,-85,cs),
(315,-48,o),
(296,-27,o),
(254,-37,c),
(261,-198,o),
(214,-216,o),
(176,-216,cs),
(143,-216,o),
(126,-199,o),
(126,-170,cs),
(126,-139,o),
(144,-122,o),
(181,-122,cs),
(227,-122,o),
(311,-141,o),
(361,-240,c),
(394,-240,l),
(434,-182,l),
(434,379,l),
(434,498,o),
(375,558,o),
(255,558,cs),
(141,558,o),
(73,505,o),
(73,419,cs),
(73,406,o),
(74,391,o),
(77,375,c),
(161,344,l),
(161,341,l),
(121,319,o),
(106,290,o),
(106,228,cs),
(106,154,l),
(124,169,l),
(117,173,o),
(105,176,o),
(94,176,cs),
(58,176,o),
(27,143,o),
(27,83,cs),
(27,25,o),
(57,-9,o),
(106,-9,cs),
(160,-9,o),
(188,27,o),
(188,95,cs),
(188,230,ls),
(188,293,o),
(199,314,o),
(237,314,c),
(240,318,o),
(243,325,o),
(243,333,cs),
(243,342,o),
(237,350,o),
(227,356,cs),
(157,404,l),
(157,476,o),
(191,516,o),
(253,516,cs),
(322,516,o),
(352,469,o),
(352,368,c),
(352,-183,l),
(350,-183,l),
(309,-128,o),
(240,-88,o),
(170,-88,cs),
(115,-88,o),
(55,-107,o),
(55,-168,cs),
(55,-223,o),
(104,-250,o),
(163,-250,cs)
);
},
{
closed = 1;
nodes = (
(80,32,o),
(69,48,o),
(69,82,cs),
(69,116,o),
(81,134,o),
(105,134,cs),
(130,134,o),
(142,117,o),
(142,83,cs),
(142,49,o),
(129,32,o),
(105,32,cs)
);
}
);
width = 504;
},
{
anchors = (
{
name = bottom;
pos = (514,-240);
},
{
name = top;
pos = (506,536);
}
);
layerId = "3CAB0083-C9A5-4E42-9C5D-0009229A2EB9";
shapes = (
{
closed = 1;
nodes = (
(280,-250,o),
(323,-158,o),
(323,-83,cs),
(323,-17,o),
(273,-8,o),
(219,-24,c),
(247,-150,o),
(217,-209,o),
(177,-209,cs),
(164,-209,o),
(150,-195,o),
(150,-166,cs),
(150,-136,o),
(164,-115,o),
(209,-115,cs),
(287,-115,o),
(359,-167,o),
(378,-240,c),
(459,-240,l),
(514,-168,l),
(514,382,ls),
(514,500,o),
(438,561,o),
(286,561,cs),
(141,561,o),
(58,506,o),
(58,420,cs),
(58,410,o),
(59,398,o),
(62,378,c),
(161,347,l),
(161,343,l),
(102,319,o),
(78,283,o),
(78,219,cs),
(78,155,l),
(108,177,l),
(102,180,o),
(96,183,o),
(87,183,cs),
(56,183,o),
(20,154,o),
(20,91,cs),
(20,24,o),
(58,-11,o),
(123,-11,cs),
(199,-11,o),
(240,34,o),
(240,117,cs),
(240,217,ls),
(240,282,o),
(253,318,o),
(307,310,c),
(313,316,o),
(316,325,o),
(316,335,cs),
(316,352,o),
(306,359,o),
(282,371,cs),
(223,402,l),
(223,474,o),
(242,509,o),
(288,509,cs),
(334,509,o),
(352,470,o),
(352,371,cs),
(352,-140,l),
(347,-140,l),
(314,-101,o),
(270,-73,o),
(193,-73,cs),
(108,-73,o),
(36,-98,o),
(36,-164,cs),
(36,-222,o),
(91,-250,o),
(159,-250,cs)
);
},
{
closed = 1;
nodes = (
(78,39,o),
(66,57,o),
(66,89,cs),
(66,120,o),
(78,138,o),
(104,138,cs),
(131,138,o),
(143,121,o),
(143,89,cs),
(143,57,o),
(130,39,o),
(104,39,cs)
);
}
);
width = 566;
},
{
anchors = (
{
name = bottom;
pos = (485,-240);
},
{
name = top;
pos = (477,536);
}
);
layerId = "1A87246E-116E-4BF6-B440-8206DB76EC4A";
shapes = (
{
closed = 1;
nodes = (
(276,-250,o),
(322,-160,o),
(322,-83,cs),
(322,-29,o),
(285,-16,o),
(237,-30,c),
(256,-164,o),
(218,-212,o),
(176,-212,cs),
(154,-212,o),
(138,-197,o),
(138,-167,cs),
(138,-137,o),
(154,-117,o),
(197,-117,cs),
(266,-117,o),
(344,-159,o),
(377,-240,c),
(437,-240,l),
(486,-176,l),
(486,381,ls),
(486,499,o),
(416,559,o),
(276,559,cs),
(142,559,o),
(64,505,o),
(64,419,cs),
(64,408,o),
(65,396,o),
(68,378,c),
(164,346,l),
(164,342,l),
(111,320,o),
(90,286,o),
(90,222,cs),
(90,153,l),
(114,171,l),
(108,175,o),
(99,178,o),
(89,178,cs),
(55,178,o),
(21,148,o),
(21,87,cs),
(21,24,o),
(56,-10,o),
(115,-10,cs),
(182,-10,o),
(218,31,o),
(218,107,cs),
(218,221,ls),
(218,286,o),
(231,317,o),
(280,312,c),
(285,317,o),
(288,325,o),
(288,335,cs),
(288,349,o),
(279,356,o),
(261,365,cs),
(195,403,l),
(195,475,o),
(221,512,o),
(276,512,cs),
(334,512,o),
(358,470,o),
(358,370,cs),
(358,-157,l),
(354,-157,l),
(316,-112,o),
(260,-79,o),
(184,-79,cs),
(109,-79,o),
(42,-102,o),
(42,-166,cs),
(42,-222,o),
(95,-250,o),
(160,-250,cs)
);
},
{
closed = 1;
nodes = (
(76,35,o),
(64,53,o),
(64,85,cs),
(64,118,o),
(76,136,o),
(102,136,cs),
(129,136,o),
(141,118,o),
(141,86,cs),
(141,53,o),
(128,35,o),
(102,35,cs)
);
}
);
width = 544;
}
);
unicode = 3598;
},
{
glyphname = "doChada-thai.short";
lastChange = "2016-11-15 17:20:48 +0000";
layers = (
{
anchors = (
{
name = bottom;
pos = (549,-174);
},
{
name = top;
pos = (539,536);
}
);
layerId = "CAA0A3A7-F9A4-46B2-91A1-CB381E1B2EFA";
shapes = (
{
closed = 1;
nodes = (
(351,-210,o),
(414,-124,o),
(414,-45,cs),
(414,-8,o),
(400,13,o),
(348,3,c),
(350,-158,o),
(282,-176,o),
(230,-176,cs),
(180,-176,o),
(156,-159,o),
(156,-130,cs),
(156,-99,o),
(182,-82,o),
(229,-82,cs),
(279,-82,o),
(395,-101,o),
(473,-200,c),
(500,-200,l),
(549,-142,l),
(549,379,ls),
(549,498,o),
(475,558,o),
(326,558,cs),
(185,558,o),
(99,505,o),
(99,419,cs),
(99,406,o),
(101,391,o),
(105,375,c),
(212,344,l),
(212,341,l),
(164,319,o),
(148,290,o),
(148,228,cs),
(148,154,l),
(167,169,l),
(157,173,o),
(141,176,o),
(125,176,cs),
(75,176,o),
(35,143,o),
(35,83,cs),
(35,25,o),
(72,-9,o),
(133,-9,cs),
(196,-9,o),
(230,27,o),
(230,95,cs),
(230,230,ls),
(230,293,o),
(244,314,o),
(288,314,c),
(292,318,o),
(295,325,o),
(295,333,cs),
(295,342,o),
(290,350,o),
(280,355,cs),
(183,404,l),
(183,476,o),
(233,516,o),
(323,516,cs),
(422,516,o),
(467,469,o),
(467,368,cs),
(467,-143,l),
(464,-143,l),
(408,-88,o),
(307,-48,o),
(216,-48,cs),
(153,-48,o),
(77,-67,o),
(77,-128,cs),
(77,-183,o),
(139,-210,o),
(215,-210,cs)
);
},
{
closed = 1;
nodes = (
(98,32,o),
(83,48,o),
(83,82,cs),
(83,116,o),
(99,134,o),
(131,134,cs),
(163,134,o),
(179,117,o),
(179,83,cs),
(179,49,o),
(162,32,o),
(130,32,cs)
);
}
);
width = 644;
},
{
anchors = (
{
name = bottom;
pos = (623,-198);
},
{
name = top;
pos = (613,536);
}
);
layerId = "22BDAFBE-6308-4010-9D0C-693FDF26AFAA";
shapes = (
{
closed = 1;
nodes = (
(343,-210,o),
(397,-116,o),
(397,-42,cs),
(397,34,o),
(339,38,o),
(274,20,c),
(305,-94,o),
(264,-166,o),
(215,-166,cs),
(194,-166,o),
(176,-153,o),
(176,-125,cs),
(176,-95,o),
(195,-72,o),
(250,-72,cs),
(343,-72,o),
(435,-136,o),
(464,-200,c),
(558,-200,l),
(623,-123,l),
(623,383,ls),
(623,501,o),
(530,562,o),
(346,562,cs),
(169,562,o),
(67,506,o),
(67,420,cs),
(67,412,o),
(68,400,o),
(72,379,c),
(194,348,l),
(194,344,l),
(123,319,o),
(95,291,o),
(95,226,cs),
(95,165,l),
(130,190,l),
(123,193,o),
(113,195,o),
(101,195,cs),
(62,195,o),
(18,168,o),
(18,104,cs),
(18,34,o),
(64,-2,o),
(143,-2,cs),
(235,-2,o),
(284,47,o),
(284,135,cs),
(284,223,ls),
(284,288,o),
(299,319,o),
(364,308,c),
(371,315,o),
(375,325,o),
(375,336,cs),
(375,355,o),
(364,363,o),
(335,374,cs),
(260,401,l),
(260,473,o),
(287,507,o),
(348,507,cs),
(411,507,o),
(434,470,o),
(434,372,cs),
(434,-89,l),
(430,-89,l),
(386,-51,o),
(326,-28,o),
(230,-28,cs),
(128,-28,o),
(40,-55,o),
(40,-122,cs),
(40,-181,o),
(109,-210,o),
(193,-210,cs)
);
},
{
closed = 1;
nodes = (
(88,52,o),
(73,70,o),
(73,101,cs),
(73,132,o),
(88,150,o),
(121,150,cs),
(154,150,o),
(169,132,o),
(169,101,cs),
(169,70,o),
(154,52,o),
(121,52,cs)
);
}
);
width = 683;
},
{
anchors = (
{
name = bottom;
pos = (489,-175);
},
{
name = top;
pos = (479,536);
}
);
layerId = "2AF6F853-87AC-417E-A249-876B8C389FCE";
shapes = (
{
closed = 1;
nodes = (
(285,-206,o),
(361,-131,o),
(361,-38,cs),
(361,-8,o),
(353,-2,o),
(333,-6,c),
(339,-129,o),
(255,-183,o),
(169,-183,cs),
(118,-183,o),
(86,-164,o),
(86,-128,cs),
(86,-95,o),
(114,-74,o),
(182,-74,cs),
(305,-74,o),
(401,-142,o),
(463,-200,c),
(469,-200,l),
(489,-175,l),
(489,385,ls),
(489,495,o),
(421,552,o),
(298,552,cs),
(180,552,o),
(109,501,o),
(109,416,cs),
(109,406,o),
(110,395,o),
(112,385,c),
(232,343,l),
(232,340,l),
(165,330,o),
(147,290,o),
(147,215,cs),
(147,125,l),
(144,123,l),
(136,134,o),
(117,142,o),
(95,142,cs),
(56,142,o),
(20,117,o),
(20,70,cs),
(20,25,o),
(53,-4,o),
(98,-4,cs),
(142,-4,o),
(175,24,o),
(175,73,cs),
(175,222,ls),
(175,294,o),
(198,322,o),
(261,322,c),
(267,325,o),
(270,331,o),
(270,338,cs),
(270,347,o),
(266,352,o),
(256,356,cs),
(139,401,l),
(135,481,o),
(189,527,o),
(296,527,cs),
(405,527,o),
(461,479,o),
(461,374,cs),
(461,-164,l),
(458,-164,l),
(411,-120,o),
(304,-50,o),
(181,-50,cs),
(95,-50,o),
(56,-82,o),
(56,-129,cs),
(56,-177,o),
(100,-206,o),
(169,-206,cs)
);
},
{
closed = 1;
nodes = (
(69,17,o),
(48,36,o),
(48,69,cs),
(48,102,o),
(68,121,o),
(96,121,cs),
(125,121,o),
(147,102,o),
(147,69,cs),
(147,36,o),
(125,17,o),
(97,17,cs)
);
}
);
width = 591;
},
{
anchors = (
{
name = bottom;
pos = (588,-174);
},
{
name = top;
pos = (578,536);
}
);
layerId = "B641F77A-82CB-48D8-9AD6-887D7864CC63";
shapes = (
{
closed = 1;
nodes = (
(346,-210,o),
(405,-120,o),
(405,-43,cs),
(405,14,o),
(367,26,o),
(308,12,c),
(326,-124,o),
(272,-171,o),
(222,-171,cs),
(187,-171,o),
(166,-156,o),
(166,-127,cs),
(166,-97,o),
(189,-77,o),
(240,-77,cs),
(313,-77,o),
(416,-120,o),
(468,-200,c),
(531,-200,l),
(588,-132,l),
(588,381,ls),
(588,500,o),
(504,560,o),
(337,560,cs),
(177,560,o),
(82,506,o),
(82,420,cs),
(82,409,o),
(83,396,o),
(87,377,c),
(202,346,l),
(202,343,l),
(142,319,o),
(120,285,o),
(120,222,cs),
(120,155,l),
(147,175,l),
(139,178,o),
(126,181,o),
(112,181,cs),
(68,181,o),
(26,151,o),
(26,89,cs),
(26,24,o),
(68,-11,o),
(138,-11,cs),
(217,-11,o),
(259,32,o),
(259,111,cs),
(259,221,ls),
(259,285,o),
(273,317,o),
(329,311,c),
(334,316,o),
(338,325,o),
(338,335,cs),
(338,349,o),
(329,357,o),
(309,365,cs),
(224,402,l),
(224,474,o),
(262,511,o),
(336,511,cs),
(416,511,o),
(449,470,o),
(449,370,cs),
(449,-114,l),
(446,-114,l),
(396,-68,o),
(317,-37,o),
(223,-37,cs),
(139,-37,o),
(57,-61,o),
(57,-125,cs),
(57,-182,o),
(123,-210,o),
(203,-210,cs)
);
},
{
closed = 1;
nodes = (
(93,37,o),
(78,54,o),
(78,87,cs),
(78,119,o),
(93,137,o),
(126,137,cs),
(159,137,o),
(174,120,o),
(174,87,cs),
(174,55,o),
(158,37,o),
(126,37,cs)
);
}
);
width = 665;
},
{
anchors = (
{
name = bottom;
pos = (389,-200);
},
{
name = top;
pos = (379,536);
}
);
layerId = "8AE4ADC8-9A9B-483B-9DC3-8C129A33EC0D";
shapes = (
{
closed = 1;
nodes = (
(233,-206,o),
(291,-120,o),
(291,-37,cs),
(291,-8,o),
(284,-2,o),
(265,-6,c),
(271,-103,o),
(220,-183,o),
(145,-183,cs),
(108,-183,o),
(84,-164,o),
(84,-128,cs),
(84,-95,o),
(105,-74,o),
(155,-74,cs),
(234,-74,o),
(308,-126,o),
(363,-200,c),
(370,-200,l),
(389,-175,l),
(389,385,ls),
(389,495,o),
(337,552,o),
(240,552,cs),
(147,552,o),
(92,501,o),
(92,416,cs),
(92,406,o),
(92,395,o),
(94,385,c),
(184,343,l),
(184,340,l),
(135,330,o),
(122,290,o),
(122,215,cs),
(122,130,l),
(119,128,l),
(112,139,o),
(96,142,o),
(85,142,cs),
(52,142,o),
(27,118,o),
(27,69,cs),
(27,21,o),
(51,-4,o),
(88,-4,cs),
(126,-4,o),
(150,22,o),
(150,77,cs),
(150,222,ls),
(150,294,o),
(166,322,o),
(212,322,c),
(216,325,o),
(218,331,o),
(218,338,cs),
(218,347,o),
(215,352,o),
(207,356,cs),
(121,401,l),
(119,481,o),
(159,527,o),
(238,527,cs),
(320,527,o),
(361,479,o),
(361,374,cs),
(361,-158,l),
(359,-158,l),
(307,-93,o),
(236,-50,o),
(156,-50,cs),
(87,-50,o),
(55,-82,o),
(55,-128,cs),
(55,-177,o),
(91,-206,o),
(143,-206,cs)
);
},
{
closed = 1;
nodes = (
(63,17,o),
(50,36,o),
(50,69,cs),
(50,102,o),
(63,121,o),
(87,121,cs),
(111,121,o),
(126,102,o),
(126,69,cs),
(126,36,o),
(112,17,o),
(87,17,cs)
);
}
);
width = 476;
},
{
anchors = (
{
name = bottom;
pos = (434,-200);
},
{
name = top;
pos = (427,536);
}
);
layerId = "2C876074-2AE3-4D36-A7C1-2DCA66F9377D";
shapes = (
{
closed = 1;
nodes = (
(269,-210,o),
(315,-124,o),
(315,-45,cs),
(315,-8,o),
(296,13,o),
(254,3,c),
(261,-158,o),
(214,-176,o),
(176,-176,cs),
(143,-176,o),
(126,-159,o),
(126,-130,cs),
(126,-99,o),
(144,-82,o),
(181,-82,cs),
(227,-82,o),
(311,-101,o),
(361,-200,c),
(394,-200,l),
(434,-142,l),
(434,379,ls),
(434,498,o),
(375,558,o),
(255,558,cs),
(141,558,o),
(73,505,o),
(73,419,cs),
(73,406,o),
(74,391,o),
(77,375,c),
(161,344,l),
(161,341,l),
(121,319,o),
(106,290,o),
(106,228,cs),
(106,154,l),
(124,169,l),
(117,173,o),
(105,176,o),
(94,176,cs),
(58,176,o),
(27,143,o),
(27,83,cs),
(27,25,o),
(57,-9,o),
(106,-9,cs),
(160,-9,o),
(188,27,o),
(188,95,cs),
(188,230,ls),
(188,293,o),
(199,314,o),
(237,314,c),
(240,318,o),
(243,325,o),
(243,333,cs),
(243,342,o),
(237,350,o),
(227,356,cs),
(157,404,l),
(157,476,o),
(191,516,o),
(253,516,cs),
(322,516,o),
(352,469,o),
(352,368,cs),
(352,-143,l),
(350,-143,l),
(309,-88,o),
(240,-48,o),
(170,-48,cs),
(115,-48,o),
(55,-67,o),
(55,-128,cs),
(55,-183,o),
(104,-210,o),
(163,-210,cs)
);
},
{
closed = 1;
nodes = (
(78,32,o),
(67,48,o),
(67,82,cs),
(67,116,o),
(79,134,o),
(103,134,cs),
(128,134,o),
(140,117,o),
(140,83,cs),
(140,49,o),
(127,32,o),
(103,32,cs)
);
}
);
width = 504;
},
{
anchors = (
{
name = bottom;
pos = (514,-200);
},
{
name = top;
pos = (506,536);
}
);
layerId = "3CAB0083-C9A5-4E42-9C5D-0009229A2EB9";
shapes = (
{
closed = 1;
nodes = (
(280,-210,o),
(323,-118,o),
(323,-43,cs),
(323,23,o),
(273,32,o),
(219,16,c),
(247,-110,o),
(217,-169,o),
(177,-169,cs),
(164,-169,o),
(150,-155,o),
(150,-126,cs),
(150,-96,o),
(164,-75,o),
(209,-75,cs),
(287,-75,o),
(359,-127,o),
(378,-200,c),
(459,-200,l),
(514,-128,l),
(514,382,ls),
(514,500,o),
(438,561,o),
(286,561,cs),
(141,561,o),
(58,506,o),
(58,420,cs),
(58,410,o),
(59,398,o),
(62,378,c),
(161,347,l),
(161,343,l),
(102,319,o),
(78,288,o),
(78,224,cs),
(78,160,l),
(108,182,l),
(102,185,o),
(96,187,o),
(87,187,cs),
(56,187,o),
(20,159,o),
(20,96,cs),
(20,29,o),
(58,-7,o),
(123,-7,cs),
(199,-7,o),
(240,39,o),
(240,122,cs),
(240,222,ls),
(240,286,o),
(253,318,o),
(307,310,c),
(313,316,o),
(316,325,o),
(316,335,cs),
(316,352,o),
(306,359,o),
(282,371,cs),
(223,402,l),
(223,474,o),
(242,509,o),
(288,509,cs),
(334,509,o),
(352,470,o),
(352,371,cs),
(352,-98,l),
(347,-98,l),
(314,-59,o),
(270,-33,o),
(193,-33,cs),
(108,-33,o),
(36,-58,o),
(36,-124,cs),
(36,-182,o),
(91,-210,o),
(159,-210,cs)
);
},
{
closed = 1;
nodes = (
(78,44,o),
(66,61,o),
(66,93,cs),
(66,125,o),
(78,143,o),
(104,143,cs),
(131,143,o),
(143,126,o),
(143,93,cs),
(143,62,o),
(130,44,o),
(104,44,cs)
);
}
);
width = 566;
},
{
anchors = (
{
name = bottom;
pos = (485,-200);
},
{
name = top;
pos = (477,536);
}
);
layerId = "1A87246E-116E-4BF6-B440-8206DB76EC4A";
shapes = (
{
closed = 1;
nodes = (
(276,-210,o),
(322,-120,o),
(322,-43,cs),
(322,11,o),
(285,24,o),
(237,10,c),
(256,-124,o),
(218,-172,o),
(176,-172,cs),
(154,-172,o),
(138,-157,o),
(138,-127,cs),
(138,-97,o),
(154,-77,o),
(197,-77,cs),
(266,-77,o),
(344,-119,o),
(377,-200,c),
(437,-200,l),
(486,-136,l),
(486,381,ls),
(486,499,o),
(416,559,o),
(276,559,cs),
(142,559,o),
(64,505,o),
(64,419,cs),
(64,408,o),
(65,396,o),
(68,378,c),
(164,346,l),
(164,342,l),
(111,320,o),
(90,289,o),
(90,224,cs),
(90,156,l),
(114,174,l),
(108,178,o),
(99,180,o),
(89,180,cs),
(55,180,o),
(21,151,o),
(21,90,cs),
(21,27,o),
(56,-8,o),
(115,-8,cs),
(182,-8,o),
(218,34,o),
(218,110,cs),
(218,224,ls),
(218,289,o),
(231,317,o),
(280,312,c),
(285,317,o),
(288,325,o),
(288,335,cs),
(288,349,o),
(279,356,o),
(261,365,cs),
(195,403,l),
(195,475,o),
(221,512,o),
(276,512,cs),
(334,512,o),
(358,470,o),
(358,370,cs),
(358,-116,l),
(354,-116,l),
(316,-70,o),
(260,-39,o),
(184,-39,cs),
(109,-39,o),
(42,-62,o),
(42,-126,cs),
(42,-182,o),
(95,-210,o),
(160,-210,cs)
);
},
{
closed = 1;
nodes = (
(76,38,o),
(64,55,o),
(64,88,cs),
(64,120,o),
(76,138,o),
(102,138,cs),
(129,138,o),
(141,121,o),
(141,88,cs),
(141,56,o),
(128,38,o),
(102,38,cs)
);
}
);
width = 544;
}
);
},
{
glyphname = "toPatak-thai";
lastChange = "2016-11-15 17:20:48 +0000";
layers = (
{
anchors = (
{
name = bottom;
pos = (548,-240);
},
{
name = top;
pos = (539,536);
}
);
layerId = "CAA0A3A7-F9A4-46B2-91A1-CB381E1B2EFA";
shapes = (
{
closed = 1;
nodes = (
(278,-250,o),
(318,-154,o),
(318,-69,cs),
(318,-31,o),
(310,-7,o),
(252,-17,c),
(265,-153,o),
(231,-216,o),
(170,-216,cs),
(137,-216,o),
(117,-197,o),
(117,-168,cs),
(117,-137,o),
(141,-112,o),
(187,-112,cs),
(262,-112,o),
(327,-180,o),
(351,-240,c),
(374,-240,l),
(464,-123,l),
(467,-123,l),
(467,-240,l),
(500,-240,l),
(549,-182,l),
(549,379,ls),
(549,498,o),
(475,558,o),
(326,558,cs),
(185,558,o),
(99,505,o),
(99,419,cs),
(99,406,o),
(101,391,o),
(105,375,c),
(212,344,l),
(212,341,l),
(164,319,o),
(148,290,o),
(148,228,cs),
(148,154,l),
(167,169,l),
(157,173,o),
(141,176,o),
(125,176,cs),
(75,176,o),
(35,143,o),
(35,83,cs),
(35,25,o),
(72,-9,o),
(133,-9,cs),
(196,-9,o),
(230,27,o),
(230,95,cs),
(230,230,ls),
(230,293,o),
(244,314,o),
(288,314,c),
(292,318,o),
(295,325,o),
(295,333,cs),
(295,342,o),
(290,350,o),
(280,355,cs),
(183,404,l),
(183,476,o),
(233,516,o),
(323,516,cs),
(422,516,o),
(467,469,o),
(467,368,cs),
(467,-58,l),
(367,-185,l),
(339,-139,o),
(274,-78,o),
(174,-78,cs),
(102,-78,o),
(43,-106,o),
(43,-165,cs),
(43,-215,o),
(85,-250,o),
(158,-250,cs)
);
},
{
closed = 1;
nodes = (
(98,32,o),
(83,48,o),
(83,82,cs),
(83,116,o),
(99,134,o),
(131,134,cs),
(163,134,o),
(179,117,o),
(179,83,cs),
(179,49,o),
(162,32,o),
(130,32,cs)
);
}
);
width = 644;
},
{
anchors = (
{
name = bottom;
pos = (624,-240);
},
{
name = top;
pos = (615,536);
}
);
layerId = "22BDAFBE-6308-4010-9D0C-693FDF26AFAA";
shapes = (
{
closed = 1;
nodes = (
(281,-250,o),
(337,-156,o),
(337,-72,cs),
(337,-12,o),
(278,-1,o),
(227,-20,c),
(242,-139,o),
(217,-206,o),
(163,-206,cs),
(144,-206,o),
(127,-193,o),
(127,-165,cs),
(127,-135,o),
(151,-112,o),
(189,-112,cs),
(261,-112,o),
(307,-182,o),
(321,-240,c),
(354,-240,l),
(448,-105,l),
(452,-105,l),
(452,-240,l),
(562,-240,l),
(624,-168,l),
(624,383,ls),
(624,501,o),
(531,562,o),
(347,562,cs),
(170,562,o),
(68,506,o),
(68,420,cs),
(68,412,o),
(69,400,o),
(73,379,c),
(195,348,l),
(195,344,l),
(124,319,o),
(96,281,o),
(96,216,cs),
(96,155,l),
(131,180,l),
(124,183,o),
(114,185,o),
(102,185,cs),
(63,185,o),
(19,158,o),
(19,94,cs),
(19,24,o),
(65,-12,o),
(144,-12,cs),
(236,-12,o),
(285,37,o),
(285,125,cs),
(285,213,ls),
(285,278,o),
(300,319,o),
(365,308,c),
(372,315,o),
(376,325,o),
(376,336,cs),
(376,355,o),
(365,363,o),
(336,374,cs),
(261,401,l),
(261,473,o),
(288,507,o),
(349,507,cs),
(412,507,o),
(435,470,o),
(435,372,cs),
(435,-33,l),
(346,-165,l),
(321,-111,o),
(282,-68,o),
(177,-68,cs),
(89,-68,o),
(18,-96,o),
(18,-159,cs),
(18,-221,o),
(66,-250,o),
(154,-250,cs)
);
},
{
closed = 1;
nodes = (
(89,42,o),
(74,60,o),
(74,91,cs),
(74,122,o),
(89,140,o),
(122,140,cs),
(155,140,o),
(170,122,o),
(170,91,cs),
(170,60,o),
(155,42,o),
(122,42,cs)
);
}
);
width = 684;
},
{
anchors = (
{
name = bottom;
pos = (488,-214);
},
{
name = top;
pos = (479,536);
}
);
layerId = "2AF6F853-87AC-417E-A249-876B8C389FCE";
shapes = (
{
closed = 1;
nodes = (
(209,-246,o),
(275,-171,o),
(275,-58,cs),
(275,-28,o),
(267,-22,o),
(247,-26,c),
(253,-169,o),
(189,-223,o),
(123,-223,cs),
(92,-223,o),
(60,-204,o),
(60,-168,cs),
(60,-135,o),
(88,-114,o),
(136,-114,cs),
(219,-114,o),
(315,-182,o),
(347,-240,c),
(357,-240,l),
(458,-107,l),
(461,-107,l),
(461,-240,l),
(469,-240,l),
(489,-215,l),
(489,385,ls),
(489,495,o),
(421,552,o),
(298,552,cs),
(180,552,o),
(109,501,o),
(109,416,cs),
(109,406,o),
(110,395,o),
(112,385,c),
(232,343,l),
(232,340,l),
(165,330,o),
(147,290,o),
(147,215,cs),
(147,125,l),
(144,123,l),
(136,134,o),
(117,142,o),
(95,142,cs),
(56,142,o),
(20,117,o),
(20,70,cs),
(20,25,o),
(53,-4,o),
(98,-4,cs),
(142,-4,o),
(175,24,o),
(175,73,cs),
(175,222,ls),
(175,294,o),
(198,322,o),
(261,322,c),
(267,325,o),
(270,331,o),
(270,338,cs),
(270,347,o),
(266,352,o),
(256,356,cs),
(139,401,l),
(135,481,o),
(189,527,o),
(296,527,cs),
(405,527,o),
(461,479,o),
(461,374,cs),
(461,-62,l),
(352,-201,l),
(315,-147,o),
(228,-90,o),
(135,-90,cs),
(69,-90,o),
(30,-122,o),
(30,-169,cs),
(30,-217,o),
(74,-246,o),
(123,-246,cs)
);
},
{
closed = 1;
nodes = (
(69,17,o),
(48,36,o),
(48,69,cs),
(48,102,o),
(68,121,o),
(96,121,cs),
(125,121,o),
(147,102,o),
(147,69,cs),
(147,36,o),
(125,17,o),
(97,17,cs)
);
}
);
width = 591;
},
{
anchors = (
{
name = bottom;
pos = (588,-240);
},
{
name = top;
pos = (579,536);
}
);
layerId = "B641F77A-82CB-48D8-9AD6-887D7864CC63";
shapes = (
{
closed = 1;
nodes = (
(279,-250,o),
(327,-155,o),
(327,-71,cs),
(327,-21,o),
(292,-4,o),
(238,-19,c),
(252,-146,o),
(223,-211,o),
(166,-211,cs),
(140,-211,o),
(122,-195,o),
(122,-166,cs),
(122,-136,o),
(146,-112,o),
(187,-112,cs),
(261,-112,o),
(316,-181,o),
(334,-240,c),
(363,-240,l),
(455,-113,l),
(458,-113,l),
(458,-240,l),
(532,-240,l),
(588,-175,l),
(588,381,ls),
(588,500,o),
(504,560,o),
(337,560,cs),
(177,560,o),
(82,506,o),
(82,420,cs),
(82,409,o),
(83,396,o),
(87,377,c),
(202,346,l),
(202,343,l),
(142,319,o),
(120,285,o),
(120,222,cs),
(120,155,l),
(147,175,l),
(139,178,o),
(126,181,o),
(112,181,cs),
(68,181,o),
(26,151,o),
(26,89,cs),
(26,24,o),
(68,-11,o),
(138,-11,cs),
(217,-11,o),
(259,32,o),
(259,111,cs),
(259,221,ls),
(259,285,o),
(273,317,o),
(329,311,c),
(334,316,o),
(338,325,o),
(338,335,cs),
(338,349,o),
(329,357,o),
(309,365,cs),
(224,402,l),
(224,474,o),
(262,511,o),
(336,511,cs),
(416,511,o),
(449,470,o),
(449,370,cs),
(449,-45,l),
(355,-174,l),
(329,-124,o),
(278,-73,o),
(175,-73,cs),
(94,-73,o),
(29,-101,o),
(29,-162,cs),
(29,-218,o),
(74,-250,o),
(155,-250,cs)
);
},
{
closed = 1;
nodes = (
(93,37,o),
(78,54,o),
(78,87,cs),
(78,119,o),
(93,137,o),
(126,137,cs),
(159,137,o),
(174,120,o),
(174,87,cs),
(174,55,o),
(158,37,o),
(126,37,cs)
);
}
);
width = 665;
},
{
anchors = (
{
name = bottom;
pos = (389,-240);
},
{
name = top;
pos = (380,536);
}
);
layerId = "8AE4ADC8-9A9B-483B-9DC3-8C129A33EC0D";
shapes = (
{
closed = 1;
nodes = (
(177,-246,o),
(224,-171,o),
(224,-58,cs),
(224,-28,o),
(218,-22,o),
(198,-26,c),
(204,-169,o),
(159,-223,o),
(109,-223,cs),
(85,-223,o),
(63,-204,o),
(63,-168,cs),
(63,-135,o),
(83,-114,o),
(120,-114,cs),
(182,-114,o),
(251,-182,o),
(274,-240,c),
(283,-240,l),
(359,-107,l),
(361,-107,l),
(361,-240,l),
(370,-240,l),
(389,-215,l),
(389,385,ls),
(389,495,o),
(337,552,o),
(240,552,cs),
(147,552,o),
(92,501,o),
(92,416,cs),
(92,406,o),
(92,395,o),
(94,385,c),
(184,343,l),
(184,340,l),
(135,330,o),
(122,290,o),
(122,215,cs),
(122,130,l),
(119,128,l),
(112,139,o),
(96,142,o),
(85,142,cs),
(52,142,o),
(27,118,o),
(27,69,cs),
(27,21,o),
(51,-4,o),
(88,-4,cs),
(126,-4,o),
(150,22,o),
(150,77,cs),
(150,222,ls),
(150,294,o),
(166,322,o),
(212,322,c),
(216,325,o),
(218,331,o),
(218,338,cs),
(218,347,o),
(216,352,o),
(208,356,cs),
(121,401,l),
(119,481,o),
(159,527,o),
(238,527,cs),
(320,527,o),
(361,479,o),
(361,374,cs),
(361,-62,l),
(279,-201,l),
(252,-147,o),
(189,-90,o),
(117,-90,cs),
(66,-90,o),
(34,-122,o),
(34,-169,cs),
(34,-217,o),
(68,-246,o),
(108,-246,cs)
);
},
{
closed = 1;
nodes = (
(63,17,o),
(50,36,o),
(50,69,cs),
(50,102,o),
(63,121,o),
(87,121,cs),
(111,121,o),
(126,102,o),
(126,69,cs),
(126,36,o),
(112,17,o),
(87,17,cs)
);
}
);
width = 476;
},
{
anchors = (
{
name = bottom;
pos = (434,-240);
},
{
name = top;
pos = (427,536);
}
);
layerId = "2C876074-2AE3-4D36-A7C1-2DCA66F9377D";
shapes = (
{
closed = 1;
nodes = (
(215,-250,o),
(248,-154,o),
(248,-69,cs),
(248,-31,o),
(233,-7,o),
(190,-17,c),
(200,-153,o),
(176,-216,o),
(131,-216,cs),
(109,-216,o),
(94,-197,o),
(94,-168,cs),
(94,-137,o),
(112,-112,o),
(146,-112,cs),
(202,-112,o),
(248,-180,o),
(264,-240,c),
(284,-240,l),
(353,-123,l),
(355,-123,l),
(355,-240,l),
(395,-240,l),
(434,-182,l),
(434,379,ls),
(434,498,o),
(375,558,o),
(255,558,cs),
(141,558,o),
(73,505,o),
(73,419,cs),
(73,406,o),
(74,391,o),
(77,375,c),
(161,344,l),
(161,341,l),
(121,319,o),
(106,290,o),
(106,228,cs),
(106,154,l),
(124,169,l),
(117,173,o),
(105,176,o),
(94,176,cs),
(58,176,o),
(27,143,o),
(27,83,cs),
(27,25,o),
(57,-9,o),
(106,-9,cs),
(160,-9,o),
(188,27,o),
(188,95,cs),
(188,230,ls),
(188,293,o),
(199,314,o),
(237,314,c),
(240,318,o),
(243,325,o),
(243,333,cs),
(243,342,o),
(237,350,o),
(227,356,cs),
(157,404,l),
(157,476,o),
(191,516,o),
(253,516,cs),
(322,516,o),
(352,469,o),
(352,368,cs),
(352,-58,l),
(278,-185,l),
(258,-139,o),
(213,-78,o),
(136,-78,cs),
(78,-78,o),
(31,-106,o),
(31,-165,cs),
(31,-215,o),
(64,-250,o),
(123,-250,cs)
);
},
{
closed = 1;
nodes = (
(80,32,o),
(69,48,o),
(69,82,cs),
(69,116,o),
(81,134,o),
(105,134,cs),
(130,134,o),
(142,117,o),
(142,83,cs),
(142,49,o),
(129,32,o),
(105,32,cs)
);
}
);
width = 504;
},
{
anchors = (
{
name = bottom;
pos = (516,-240);
},
{
name = top;
pos = (509,536);
}
);
layerId = "3CAB0083-C9A5-4E42-9C5D-0009229A2EB9";
shapes = (
{
closed = 1;
nodes = (
(233,-250,o),
(280,-155,o),
(280,-71,cs),
(280,-17,o),
(228,-3,o),
(187,-19,c),
(201,-143,o),
(180,-209,o),
(138,-209,cs),
(124,-209,o),
(112,-194,o),
(112,-166,cs),
(112,-136,o),
(131,-112,o),
(160,-112,cs),
(217,-112,o),
(252,-181,o),
(262,-240,c),
(289,-240,l),
(365,-109,l),
(368,-109,l),
(368,-240,l),
(464,-240,l),
(516,-172,l),
(516,382,ls),
(516,500,o),
(440,561,o),
(288,561,cs),
(143,561,o),
(60,506,o),
(60,420,cs),
(60,410,o),
(61,398,o),
(64,378,c),
(163,347,l),
(163,343,l),
(104,319,o),
(80,283,o),
(80,219,cs),
(80,155,l),
(110,177,l),
(104,180,o),
(98,183,o),
(89,183,cs),
(58,183,o),
(22,154,o),
(22,91,cs),
(22,24,o),
(60,-11,o),
(125,-11,cs),
(201,-11,o),
(242,34,o),
(242,117,cs),
(242,217,ls),
(242,282,o),
(255,318,o),
(309,310,c),
(315,316,o),
(318,325,o),
(318,335,cs),
(318,352,o),
(307,359,o),
(284,371,cs),
(225,402,l),
(225,474,o),
(244,509,o),
(290,509,cs),
(336,509,o),
(354,470,o),
(354,371,cs),
(354,-39,l),
(283,-170,l),
(264,-118,o),
(235,-71,o),
(150,-71,cs),
(79,-71,o),
(20,-99,o),
(20,-161,cs),
(20,-219,o),
(60,-250,o),
(132,-250,cs)
);
},
{
closed = 1;
nodes = (
(80,39,o),
(68,57,o),
(68,89,cs),
(68,120,o),
(80,138,o),
(106,138,cs),
(133,138,o),
(145,121,o),
(145,89,cs),
(145,57,o),
(132,39,o),
(106,39,cs)
);
}
);
width = 568;
},
{
anchors = (
{
name = bottom;
pos = (486,-240);
},
{
name = top;
pos = (479,536);
}
);
layerId = "1A87246E-116E-4BF6-B440-8206DB76EC4A";
shapes = (
{
closed = 1;
nodes = (
(225,-250,o),
(268,-156,o),
(268,-70,cs),
(268,-22,o),
(231,-6,o),
(190,-19,c),
(202,-148,o),
(178,-212,o),
(134,-212,cs),
(116,-212,o),
(102,-196,o),
(102,-167,cs),
(102,-136,o),
(121,-112,o),
(153,-112,cs),
(211,-112,o),
(253,-181,o),
(266,-240,c),
(290,-240,l),
(365,-113,l),
(368,-113,l),
(368,-240,l),
(440,-240,l),
(487,-178,l),
(487,381,ls),
(487,499,o),
(417,559,o),
(277,559,cs),
(143,559,o),
(65,505,o),
(65,419,cs),
(65,408,o),
(66,396,o),
(69,378,c),
(165,346,l),
(165,342,l),
(112,320,o),
(91,286,o),
(91,222,cs),
(91,153,l),
(115,171,l),
(109,175,o),
(100,178,o),
(90,178,cs),
(56,178,o),
(22,148,o),
(22,87,cs),
(22,24,o),
(57,-10,o),
(116,-10,cs),
(183,-10,o),
(218.994,31.007,o),
(219,107,cs),
(219,221,ls),
(219,286,o),
(232,317,o),
(281,312,c),
(286,317,o),
(289,325,o),
(289,335,cs),
(289,349,o),
(280,356,o),
(262,365,cs),
(196,403,l),
(196,475,o),
(222,512,o),
(277,512,cs),
(335,512,o),
(359,470,o),
(359,370,cs),
(359,-47,l),
(284,-177,l),
(264,-127,o),
(226,-74,o),
(143,-74,cs),
(77,-74,o),
(23,-103,o),
(23,-163,cs),
(23,-218,o),
(61,-250,o),
(127,-250,cs)
);
},
{
closed = 1;
nodes = (
(77,35,o),
(65,53,o),
(65,85,cs),
(65,118,o),
(77,136,o),
(103,136,cs),
(130,136,o),
(142,118,o),
(142,86,cs),
(142,53,o),
(129,35,o),
(103,35,cs)
);
}
);
width = 546;
}
);
unicode = 3599;
},
{
glyphname = "toPatak-thai.short";
lastChange = "2016-11-15 17:20:48 +0000";
layers = (
{
anchors = (
{
name = bottom;
pos = (549,-174);
},
{
name = top;
pos = (539,536);
}
);
layerId = "CAA0A3A7-F9A4-46B2-91A1-CB381E1B2EFA";
shapes = (
{
closed = 1;
nodes = (
(278,-210,o),
(318,-114,o),
(318,-29,cs),
(318,9,o),
(310,33,o),
(252,23,c),
(265,-113,o),
(231,-176,o),
(170,-176,cs),
(137,-176,o),
(117,-157,o),
(117,-128,cs),
(117,-97,o),
(141,-72,o),
(187,-72,cs),
(262,-72,o),
(327,-140,o),
(351,-200,c),
(374,-200,l),
(464,-83,l),
(467,-83,l),
(467,-200,l),
(500,-200,l),
(549,-142,l),
(549,379,ls),
(549,498,o),
(475,558,o),
(326,558,cs),
(185,558,o),
(99,505,o),
(99,419,cs),
(99,406,o),
(101,391,o),
(105,375,c),
(212,344,l),
(212,341,l),
(164,319,o),
(148,290,o),
(148,228,cs),
(148,154,l),
(167,169,l),
(157,173,o),
(141,176,o),
(125,176,cs),
(75,176,o),
(35,143,o),
(35,83,cs),
(35,25,o),
(72,-9,o),
(133,-9,cs),
(196,-9,o),
(230,27,o),
(230,95,cs),
(230,230,ls),
(230,293,o),
(244,314,o),
(288,314,c),
(292,318,o),
(295,325,o),
(295,333,cs),
(295,342,o),
(290,350,o),
(280,355,cs),
(183,404,l),
(183,476,o),
(233,516,o),
(323,516,cs),
(422,516,o),
(467,469,o),
(467,368,cs),
(467,-18,l),
(367,-145,l),
(339,-99,o),
(274,-38,o),
(174,-38,cs),
(102,-38,o),
(43,-66,o),
(43,-125,cs),
(43,-175,o),
(85,-210,o),
(158,-210,cs)
);
},
{
closed = 1;
nodes = (
(98,32,o),
(83,48,o),
(83,82,cs),
(83,116,o),
(99,134,o),
(131,134,cs),
(163,134,o),
(179,117,o),
(179,83,cs),
(179,49,o),
(162,32,o),
(130,32,cs)
);
}
);
width = 644;
},
{
anchors = (
{
name = bottom;
pos = (624,-198);
},
{
name = top;
pos = (615,536);
}
);
layerId = "22BDAFBE-6308-4010-9D0C-693FDF26AFAA";
shapes = (
{
closed = 1;
nodes = (
(281,-220,o),
(337,-126,o),
(337,-52,cs),
(337,-2,o),
(278,9,o),
(227,-10,c),
(242,-109,o),
(217,-176,o),
(163,-176,cs),
(144,-176,o),
(127,-163,o),
(127,-135,cs),
(127,-105,o),
(151,-82,o),
(189,-82,cs),
(261,-82,o),
(307,-152,o),
(321,-210,c),
(354,-210,l),
(448,-75,l),
(452,-75,l),
(452,-210,l),
(562,-210,l),
(624,-138,l),
(624,383,ls),
(624,501,o),
(531,562,o),
(347,562,cs),
(170,562,o),
(68,506,o),
(68,420,cs),
(68,412,o),
(69,400,o),
(73,379,c),
(195,348,l),
(195,344,l),
(124,319,o),
(96,281,o),
(96,216,cs),
(96,165,l),
(131,190,l),
(124,193,o),
(114,195,o),
(102,195,cs),
(63,195,o),
(19,168,o),
(19,104,cs),
(19,34,o),
(65,-2,o),
(144,-2,cs),
(236,-2,o),
(285,47,o),
(285,135,cs),
(285,213,ls),
(285,278,o),
(300,319,o),
(365,308,c),
(372,315,o),
(376,325,o),
(376,336,cs),
(376,355,o),
(365,363,o),
(336,374,cs),
(261,401,l),
(261,473,o),
(288,507,o),
(349,507,cs),
(412,507,o),
(435,470,o),
(435,372,cs),
(435,-3,l),
(346,-135,l),
(321,-81,o),
(282,-38,o),
(177,-38,cs),
(89,-38,o),
(18,-66,o),
(18,-129,cs),
(18,-191,o),
(66,-220,o),
(154,-220,cs)
);
},
{
closed = 1;
nodes = (
(89,52,o),
(74,70,o),
(74,101,cs),
(74,132,o),
(89,150,o),
(122,150,cs),
(155,150,o),
(170,132,o),
(170,101,cs),
(170,70,o),
(155,52,o),
(122,52,cs)
);
}
);
width = 684;
},
{
anchors = (
{
name = bottom;
pos = (489,-175);
},
{
name = top;
pos = (479,536);
}
);
layerId = "2AF6F853-87AC-417E-A249-876B8C389FCE";
shapes = (
{
closed = 1;
nodes = (
(209,-206,o),
(275,-131,o),
(275,-18,cs),
(275,12,o),
(267,18,o),
(247,14,c),
(253,-129,o),
(189,-183,o),
(123,-183,cs),
(92,-183,o),
(60,-164,o),
(60,-128,cs),
(60,-95,o),
(88,-74,o),
(136,-74,cs),
(219,-74,o),
(315,-142,o),
(347,-200,c),
(357,-200,l),
(458,-67,l),
(461,-67,l),
(461,-200,l),
(469,-200,l),
(489,-175,l),
(489,385,ls),
(489,495,o),
(421,552,o),
(298,552,cs),
(180,552,o),
(109,501,o),
(109,416,cs),
(109,406,o),
(110,395,o),
(112,385,c),
(232,343,l),
(232,340,l),
(165,330,o),
(147,290,o),
(147,215,cs),
(147,125,l),
(144,123,l),
(136,134,o),
(117,142,o),
(95,142,cs),
(56,142,o),
(20,117,o),
(20,70,cs),
(20,25,o),
(53,-4,o),
(98,-4,cs),
(142,-4,o),
(175,24,o),
(175,73,cs),
(175,222,ls),
(175,294,o),
(198,322,o),
(261,322,c),
(267,325,o),
(270,331,o),
(270,338,cs),
(270,347,o),
(266,352,o),
(256,356,cs),
(139,401,l),
(135,481,o),
(189,527,o),
(296,527,cs),
(405,527,o),
(461,479,o),
(461,374,cs),
(461,-22,l),
(352,-161,l),
(315,-107,o),
(228,-50,o),
(135,-50,cs),
(69,-50,o),
(30,-82,o),
(30,-129,cs),
(30,-177,o),
(74,-206,o),
(123,-206,cs)
);
},
{
closed = 1;
nodes = (
(69,17,o),
(48,36,o),
(48,69,cs),
(48,102,o),
(68,121,o),
(96,121,cs),
(125,121,o),
(147,102,o),
(147,69,cs),
(147,36,o),
(125,17,o),
(97,17,cs)
);
}
);
width = 591;
},
{
anchors = (
{
name = bottom;
pos = (588,-174);
},
{
name = top;
pos = (579,536);
}
);
layerId = "B641F77A-82CB-48D8-9AD6-887D7864CC63";
shapes = (
{
closed = 1;
nodes = (
(279,-210,o),
(327,-115,o),
(327,-41,cs),
(327,-1,o),
(292,16,o),
(238,1,c),
(252,-106,o),
(223,-171,o),
(166,-171,cs),
(140,-171,o),
(122,-155,o),
(122,-126,cs),
(122,-96,o),
(146,-72,o),
(187,-72,cs),
(261,-72,o),
(316,-141,o),
(334,-200,c),
(363,-200,l),
(455,-73,l),
(458,-73,l),
(458,-200,l),
(532,-200,l),
(588,-135,l),
(588,381,ls),
(588,500,o),
(504,560,o),
(337,560,cs),
(177,560,o),
(82,506,o),
(82,420,cs),
(82,409,o),
(83,396,o),
(87,377,c),
(202,346,l),
(202,343,l),
(142,319,o),
(120,285,o),
(120,222,cs),
(120,165,l),
(147,185,l),
(139,188,o),
(126,191,o),
(112,191,cs),
(68,191,o),
(26,161,o),
(26,99,cs),
(26,34,o),
(68,-1,o),
(138,-1,cs),
(217,-1,o),
(259,42,o),
(259,121,cs),
(259,221,ls),
(259,285,o),
(273,317,o),
(329,311,c),
(334,316,o),
(338,325,o),
(338,335,cs),
(338,349,o),
(329,357,o),
(309,365,cs),
(224,402,l),
(224,474,o),
(262,511,o),
(336,511,cs),
(416,511,o),
(449,470,o),
(449,370,cs),
(449,-5,l),
(355,-134,l),
(329,-84,o),
(278,-33,o),
(175,-33,cs),
(94,-33,o),
(29,-61,o),
(29,-122,cs),
(29,-178,o),
(74,-210,o),
(155,-210,cs)
);
},
{
closed = 1;
nodes = (
(93,47,o),
(78,64,o),
(78,97,cs),
(78,129,o),
(93,147,o),
(126,147,cs),
(159,147,o),
(174,130,o),
(174,97,cs),
(174,65,o),
(158,47,o),
(126,47,cs)
);
}
);
width = 665;
},
{
anchors = (
{
name = bottom;
pos = (389,-200);
},
{
name = top;
pos = (380,536);
}
);
layerId = "8AE4ADC8-9A9B-483B-9DC3-8C129A33EC0D";
shapes = (
{
closed = 1;
nodes = (
(177,-206,o),
(224,-131,o),
(224,-18,cs),
(224,12,o),
(218,18,o),
(198,14,c),
(204,-129,o),
(159,-183,o),
(109,-183,cs),
(85,-183,o),
(63,-164,o),
(63,-128,cs),
(63,-95,o),
(83,-74,o),
(120,-74,cs),
(182,-74,o),
(251,-142,o),
(274,-200,c),
(283,-200,l),
(359,-67,l),
(361,-67,l),
(361,-200,l),
(370,-200,l),
(389,-175,l),
(389,385,ls),
(389,495,o),
(337,552,o),
(240,552,cs),
(147,552,o),
(92,501,o),
(92,416,cs),
(92,406,o),
(92,395,o),
(94,385,c),
(184,343,l),
(184,340,l),
(135,330,o),
(122,290,o),
(122,215,cs),
(122,130,l),
(119,128,l),
(112,139,o),
(96,142,o),
(85,142,cs),
(52,142,o),
(27,118,o),
(27,69,cs),
(27,21,o),
(51,-4,o),
(88,-4,cs),
(126,-4,o),
(150,22,o),
(150,77,cs),
(150,222,ls),
(150,294,o),
(166,322,o),
(212,322,c),
(216,325,o),
(218,331,o),
(218,338,cs),
(218,347,o),
(216,352,o),
(208,356,cs),
(121,401,l),
(119,481,o),
(159,527,o),
(238,527,cs),
(320,527,o),
(361,479,o),
(361,374,cs),
(361,-22,l),
(279,-161,l),
(252,-107,o),
(189,-50,o),
(117,-50,cs),
(66,-50,o),
(34,-82,o),
(34,-129,cs),
(34,-177,o),
(68,-206,o),
(108,-206,cs)
);
},
{
closed = 1;
nodes = (
(63,17,o),
(50,36,o),
(50,69,cs),
(50,102,o),
(63,121,o),
(87,121,cs),
(111,121,o),
(126,102,o),
(126,69,cs),
(126,36,o),
(112,17,o),
(87,17,cs)
);
}
);
width = 476;
},
{
anchors = (
{
name = bottom;
pos = (434,-200);
},
{
name = top;
pos = (427,536);
}
);
layerId = "2C876074-2AE3-4D36-A7C1-2DCA66F9377D";
shapes = (
{
closed = 1;
nodes = (
(215,-210,o),
(248,-114,o),
(248,-29,cs),
(248,9,o),
(233,33,o),
(190,23,c),
(200,-113,o),
(176,-176,o),
(131,-176,cs),
(109,-176,o),
(94,-157,o),
(94,-128,cs),
(94,-97,o),
(112,-72,o),
(146,-72,cs),
(202,-72,o),
(248,-140,o),
(264,-200,c),
(284,-200,l),
(353,-83,l),
(355,-83,l),
(355,-200,l),
(395,-200,l),
(434,-142,l),
(434,379,ls),
(434,498,o),
(375,558,o),
(255,558,cs),
(141,558,o),
(73,505,o),
(73,419,cs),
(73,406,o),
(74,391,o),
(77,375,c),
(161,344,l),
(161,341,l),
(121,319,o),
(106,290,o),
(106,228,cs),
(106,154,l),
(124,169,l),
(117,173,o),
(105,176,o),
(94,176,cs),
(58,176,o),
(27,143,o),
(27,83,cs),
(27,25,o),
(57,-9,o),
(106,-9,cs),
(160,-9,o),
(188,27,o),
(188,95,cs),
(188,230,ls),
(188,293,o),
(199,314,o),
(237,314,c),
(240,318,o),
(243,325,o),
(243,333,cs),
(243,342,o),
(237,350,o),
(227,356,cs),
(157,404,l),
(157,476,o),
(191,516,o),
(253,516,cs),
(322,516,o),
(352,469,o),
(352,368,cs),
(352,-18,l),
(278,-145,l),
(258,-99,o),
(213,-38,o),
(136,-38,cs),
(78,-38,o),
(31,-66,o),
(31,-125,cs),
(31,-175,o),
(64,-210,o),
(123,-210,cs)
);
},
{
closed = 1;
nodes = (
(78,32,o),
(67,48,o),
(67,82,cs),
(67,116,o),
(79,134,o),
(103,134,cs),
(128,134,o),
(140,117,o),
(140,83,cs),
(140,49,o),
(127,32,o),
(103,32,cs)
);
}
);
width = 504;
},
{
anchors = (
{
name = bottom;
pos = (516,-205);
},
{
name = top;
pos = (509,536);
}
);
layerId = "3CAB0083-C9A5-4E42-9C5D-0009229A2EB9";
shapes = (
{
closed = 1;
nodes = (
(233,-215,o),
(280,-120,o),
(280,-46,cs),
(280,-1,o),
(228,13,o),
(187,-4,c),
(201,-107,o),
(180,-173,o),
(138,-173,cs),
(124,-173,o),
(112,-159,o),
(112,-130,cs),
(112,-100,o),
(131,-77,o),
(160,-77,cs),
(217,-77,o),
(252,-146,o),
(262,-205,c),
(289,-205,l),
(365,-74,l),
(368,-74,l),
(368,-205,l),
(464,-205,l),
(516,-136,l),
(516,382,ls),
(516,500,o),
(440,561,o),
(288,561,cs),
(143,561,o),
(60,506,o),
(60,420,cs),
(60,410,o),
(61,398,o),
(64,378,c),
(163,347,l),
(163,343,l),
(104,319,o),
(80,283,o),
(80,219,cs),
(80,165,l),
(110,187,l),
(104,190,o),
(98,193,o),
(89,193,cs),
(58,193,o),
(22,164,o),
(22,101,cs),
(22,34,o),
(60,-1,o),
(125,-1,cs),
(201,-1,o),
(242,44,o),
(242,127,cs),
(242,217,ls),
(242,282,o),
(255,318,o),
(309,310,c),
(315,316,o),
(318,325,o),
(318,335,cs),
(318,352,o),
(307,359,o),
(284,371,cs),
(225,402,l),
(225,474,o),
(244,509,o),
(290,509,cs),
(336,509,o),
(354,470,o),
(354,371,cs),
(354,-4,l),
(283,-134,l),
(264,-83,o),
(235,-35,o),
(150,-35,cs),
(79,-35,o),
(20,-63,o),
(20,-125,cs),
(20,-184,o),
(60,-215,o),
(132,-215,cs)
);
},
{
closed = 1;
nodes = (
(80,49,o),
(68,67,o),
(68,99,cs),
(68,130,o),
(80,148,o),
(106,148,cs),
(133,148,o),
(145,131,o),
(145,99,cs),
(145,67,o),
(132,49,o),
(106,49,cs)
);
}
);
width = 568;
},
{
anchors = (
{
name = bottom;
pos = (486,-203);
},
{
name = top;
pos = (479,536);
}
);
layerId = "1A87246E-116E-4BF6-B440-8206DB76EC4A";
shapes = (
{
closed = 1;
nodes = (
(225,-213,o),
(268,-119,o),
(268,-39,cs),
(268,3,o),
(231,19,o),
(190,5,c),
(202,-110,o),
(178,-174,o),
(134,-174,cs),
(116,-174,o),
(102,-158,o),
(102,-129,cs),
(102,-99,o),
(121,-75,o),
(153,-75,cs),
(211,-75,o),
(253,-144,o),
(266,-203,c),
(290,-203,l),
(365,-76,l),
(368,-76,l),
(368,-203,l),
(440,-203,l),
(487,-140,l),
(487,381,ls),
(487,499,o),
(417,559,o),
(277,559,cs),
(143,559,o),
(65,505,o),
(65,419,cs),
(65,408,o),
(66,396,o),
(69,378,c),
(165,346,l),
(165,342,l),
(112,320,o),
(91,286,o),
(91,222,cs),
(91,159,l),
(115,178,l),
(109,181,o),
(100,184,o),
(90,184,cs),
(56,184,o),
(22,155,o),
(22,93,cs),
(22,31,o),
(57,-4,o),
(116,-4,cs),
(183,-4,o),
(219,37,o),
(219,114,cs),
(219,221,ls),
(219,286,o),
(232,317,o),
(281,312,c),
(286,317,o),
(289,325,o),
(289,335,cs),
(289,349,o),
(280,356,o),
(262,365,cs),
(196,403,l),
(196,475,o),
(222,512,o),
(277,512,cs),
(335,512,o),
(359,470,o),
(359,370,cs),
(359,-9,l),
(284,-139,l),
(264,-89,o),
(226,-37,o),
(143,-37,cs),
(77,-37,o),
(23,-65,o),
(23,-125,cs),
(23,-180,o),
(61,-213,o),
(127,-213,cs)
);
},
{
closed = 1;
nodes = (
(77,42,o),
(65,59,o),
(65,92,cs),
(65,124,o),
(77,142,o),
(103,142,cs),
(130,142,o),
(142,125,o),
(142,92,cs),
(142,60,o),
(129,42,o),
(103,42,cs)
);
}
);
width = 546;
}
);
},
{
glyphname = "ru_lakkhangyao-thai";
lastChange = "2016-11-15 17:20:48 +0000";
layers = (
{
layerId = "CAA0A3A7-F9A4-46B2-91A1-CB381E1B2EFA";
shapes = (
{
closed = 1;
nodes = (
(463,-240,l),
(512,-182,l),
(512,352,ls),
(512,462,o),
(567,514,o),
(665,514,cs),
(739,514,o),
(786,484,o),
(786,389,cs),
(786,-240,l),
(819,-240,l),
(868,-182,l),
(868,385,ls),
(868,493,o),
(813,558,o),
(662,558,cs),
(581,558,o),
(513,539,o),
(480,461,c),
(444,539,o),
(375,558,o),
(294,558,cs),
(160,558,o),
(78,507,o),
(78,423,cs),
(78,410,o),
(80,395,o),
(84,379,c),
(191,348,l),
(191,345,l),
(123,327,o),
(90,287,o),
(90,216,cs),
(90,94,ls),
(90,25,o),
(125,-10,o),
(189,-10,cs),
(255,-10,o),
(289,27,o),
(289,82,cs),
(289,139,o),
(250,176,o),
(197,176,cs),
(181,176,o),
(162,172,o),
(153,164,c),
(172,156,l),
(172,213,ls),
(172,280,o),
(203,313,o),
(267,318,c),
(271,322,o),
(274,330,o),
(274,337,cs),
(274,346,o),
(269,354,o),
(259,359,cs),
(162,408,l),
(162,478,o),
(208,516,o),
(292,516,cs),
(385,516,o),
(430,469,o),
(430,372,cs),
(430,-240,l)
);
},
{
closed = 1;
nodes = (
(155,30,o),
(141,51,o),
(141,82,cs),
(141,113,o),
(155,134,o),
(191,134,cs),
(227,134,o),
(241,113,o),
(241,81,cs),
(241,50,o),
(228,30,o),
(192,30,cs)
);
}
);
width = 963;
},
{
layerId = "22BDAFBE-6308-4010-9D0C-693FDF26AFAA";
shapes = (
{
closed = 1;
nodes = (
(525,-240,l),
(587,-168,l),
(587,359,ls),
(587,447,o),
(616,499,o),
(704,499,cs),
(776,499,o),
(801,464,o),
(801,389,cs),
(801,-240,l),
(928,-240,l),
(990,-168,l),
(990,385,ls),
(990,503,o),
(895,562,o),
(751,562,cs),
(661,562,o),
(570,539,o),
(525,468,c),
(492,531,o),
(423,562,o),
(308,562,cs),
(154,562,o),
(45,507,o),
(45,420,cs),
(45,412,o),
(46,400,o),
(50,379,c),
(158,348,l),
(158,344,l),
(87,319,o),
(59,281,o),
(59,216,cs),
(59,125,ls),
(59,37,o),
(107,-12,o),
(211,-12,cs),
(299,-12,o),
(345,26,o),
(345,91,cs),
(345,155,o),
(303,185,o),
(254,185,cs),
(238,185,o),
(227,181,o),
(219,177,c),
(248,159,l),
(248,213,ls),
(248,278,o),
(263,319,o),
(328,308,c),
(335,315,o),
(339,325,o),
(339,336,cs),
(339,353,o),
(329,362,o),
(299,375,cs),
(238,401,l),
(238,473,o),
(265,507,o),
(319,507,cs),
(375,507,o),
(398,470,o),
(398,372,cs),
(398,-240,l)
);
},
{
closed = 1;
nodes = (
(209,42,o),
(194,60,o),
(194,91,cs),
(194,122,o),
(209,140,o),
(242,140,cs),
(275,140,o),
(290,122,o),
(290,91,cs),
(290,60,o),
(275,42,o),
(242,42,cs)
);
}
);
width = 1051;
},
{
layerId = "2AF6F853-87AC-417E-A249-876B8C389FCE";
shapes = (
{
closed = 1;
nodes = (
(448,-240,l),
(468,-215,l),
(468,396,ls),
(468,472,o),
(518,527,o),
(617,527,cs),
(727,527,o),
(780,488,o),
(780,396,cs),
(780,-234,l),
(788,-234,l),
(808,-209,l),
(808,396,ls),
(808,506,o),
(742,552,o),
(617,552,cs),
(531,552,o),
(471,516,o),
(455,460,c),
(419,532,o),
(360,552,o),
(278,552,cs),
(163,552,o),
(88,501,o),
(88,416,cs),
(88,406,o),
(89,395,o),
(91,385,c),
(201,343,l),
(201,340,l),
(134,330,o),
(102,290,o),
(102,215,cs),
(102,73,ls),
(102,24,o),
(132,-4,o),
(181,-4,cs),
(230,-4,o),
(263,25,o),
(263,69,cs),
(263,117,o),
(227,142,o),
(185,142,cs),
(161,142,o),
(142,134,o),
(133,123,c),
(130,124,l),
(130,222,ls),
(130,285,o),
(167,322,o),
(230,322,c),
(236,325,o),
(239,331,o),
(239,338,cs),
(239,347,o),
(235,352,o),
(225,356,cs),
(118,401,l),
(114,483,o),
(173,527,o),
(275,527,cs),
(384,527,o),
(440,477,o),
(440,396,cs),
(440,-240,l)
);
},
{
closed = 1;
nodes = (
(149,17,o),
(130,36,o),
(130,69,cs),
(130,102,o),
(149,121,o),
(183,121,cs),
(216,121,o),
(235,102,o),
(235,69,cs),
(235,36,o),
(215,17,o),
(182,17,cs)
);
}
);
width = 916;
},
{
layerId = "B641F77A-82CB-48D8-9AD6-887D7864CC63";
shapes = (
{
closed = 1;
nodes = (
(496,-240,l),
(552,-175,l),
(552,356,ls),
(552,454,o),
(593,506,o),
(685,506,cs),
(758,506,o),
(794,473,o),
(793.991,389,cs),
(793.991,-240,l),
(877,-240,l),
(933,-175,l),
(932.991,385,ls),
(933,498,o),
(856,560,o),
(709,560,cs),
(623,560,o),
(543,539,o),
(504,465,c),
(469,535,o),
(400,560,o),
(301,560,cs),
(156,560,o),
(60,507,o),
(60,421,cs),
(60,411,o),
(61,398,o),
(65,379,c),
(173,348,l),
(173,344,l),
(103,323,o),
(73,284,o),
(73,216,cs),
(73,111,ls),
(73,31,o),
(115,-11,o),
(200,-11,cs),
(278,-11,o),
(318,26,o),
(318,87,cs),
(318,148,o),
(278,181,o),
(227,181,cs),
(211,181,o),
(196,177,o),
(188,171,c),
(212,158,l),
(212,213,ls),
(212,279,o),
(235,316,o),
(299,313,c),
(305,318,o),
(308,327,o),
(308,336,cs),
(308,350,o),
(301,358,o),
(280,368,cs),
(202,404,l),
(202,475,o),
(238,511,o),
(306,511,cs),
(379,511,o),
(413,470,o),
(413,372,cs),
(413,-240,l)
);
},
{
closed = 1;
nodes = (
(184,36,o),
(169,56,o),
(169,87,cs),
(169,118,o),
(184,137,o),
(218,137,cs),
(252,137,o),
(267,118,o),
(267,86,cs),
(267,55,o),
(253,36,o),
(218,36,cs)
);
}
);
width = 1010;
},
{
layerId = "8AE4ADC8-9A9B-483B-9DC3-8C129A33EC0D";
shapes = (
{
closed = 1;
nodes = (
(353,-240,l),
(372,-215,l),
(372,396,ls),
(373,472,o),
(413,527,o),
(485,527,cs),
(564,527,o),
(604,488,o),
(604,396,cs),
(604,-240,l),
(613,-240,l),
(632,-215,l),
(632,396,ls),
(632,506,o),
(583,552,o),
(485,552,cs),
(420,552,o),
(374,516,o),
(359,460,c),
(332,532,o),
(286,552,o),
(224,552,cs),
(134,552,o),
(76,501,o),
(76,416,cs),
(76,406,o),
(77,395,o),
(79,385,c),
(162,343,l),
(162,340,l),
(111,330,o),
(86,290,o),
(86,215,cs),
(86,77,ls),
(86,22,o),
(110,-4,o),
(148,-4,cs),
(185,-4,o),
(209,21,o),
(209,69,cs),
(209,118,o),
(184,142,o),
(151,142,cs),
(140,142,o),
(124,139,o),
(117,128,c),
(114,130,l),
(114,222,ls),
(114,285,o),
(142,322,o),
(190,322,c),
(194,325,o),
(196,331,o),
(196,338,cs),
(196,347,o),
(194,352,o),
(186,356,c),
(106,401,l),
(103,483,o),
(146,527,o),
(221,527,cs),
(302,527,o),
(344,477,o),
(344,396,cs),
(344,-240,l)
);
},
{
closed = 1;
nodes = (
(124,17,o),
(110,36,o),
(110,69,cs),
(110,102,o),
(125,121,o),
(149,121,cs),
(173,121,o),
(186,102,o),
(186,69,cs),
(186,36,o),
(173,17,o),
(149,17,cs)
);
}
);
width = 722;
},
{
layerId = "2C876074-2AE3-4D36-A7C1-2DCA66F9377D";
shapes = (
{
closed = 1;
nodes = (
(367,-240,l),
(407,-182,l),
(407,352,ls),
(407,462,o),
(444,514,o),
(516,514,cs),
(572,514,o),
(604,484,o),
(604,389,cs),
(604,-240,l),
(646,-240,l),
(686,-182,l),
(686,385,ls),
(686,493,o),
(637,558,o),
(523,558,cs),
(460,558,o),
(404,539,o),
(377,461,c),
(350,539,o),
(298,558,o),
(230,558,cs),
(124,558,o),
(57,507,o),
(57,423,cs),
(57,410,o),
(58,395,o),
(61,379,c),
(143,348,l),
(143,345,l),
(91,327,o),
(66,287,o),
(66,216,cs),
(66,94,ls),
(66,25,o),
(95,-10,o),
(151,-10,cs),
(210,-10,o),
(238,27,o),
(238,82,cs),
(238,139,o),
(208,176,o),
(164,176,cs),
(152,176,o),
(139,172,o),
(132,164,c),
(148,156,l),
(148,213,ls),
(148,280,o),
(169,313,o),
(218,318,c),
(222,322,o),
(224,330,o),
(224,337,cs),
(224,346,o),
(219,353,o),
(209,360,cs),
(141,408,l),
(141,478,o),
(172,516,o),
(231,516,cs),
(294,516,o),
(325,469,o),
(325,372,cs),
(325,-240,l)
);
},
{
closed = 1;
nodes = (
(132,30,o),
(121,51,o),
(121,82,cs),
(121,113,o),
(132,134,o),
(158,134,cs),
(185,134,o),
(196,113,o),
(196,81,cs),
(196,50,o),
(186,30,o),
(159,30,cs)
);
}
);
width = 756;
},
{
layerId = "3CAB0083-C9A5-4E42-9C5D-0009229A2EB9";
shapes = (
{
closed = 1;
nodes = (
(434,-240,l),
(485,-172,l),
(485,357,ls),
(485,451,o),
(505,503,o),
(576,503,cs),
(633,503,o),
(650,469,o),
(650,389,cs),
(650,-240,l),
(761,-240,l),
(812,-172,l),
(812,385,ls),
(812,500,o),
(733,561,o),
(618,561,cs),
(544,561,o),
(469,539,o),
(434,466,c),
(406,533,o),
(351,561,o),
(256,561,cs),
(131,561,o),
(41,507,o),
(41,421,cs),
(41,411,o),
(42,399,o),
(45,379,c),
(131,348,l),
(131,344,l),
(75,321,o),
(51,283,o),
(51,216,cs),
(51,117,ls),
(51,34,o),
(92,-11,o),
(180,-11,cs),
(253,-11,o),
(289,26,o),
(289,89,cs),
(289,151,o),
(255,183,o),
(217,183,cs),
(204,183,o),
(196,179,o),
(190,174,c),
(213,158,l),
(213,213,ls),
(213,279,o),
(225,317,o),
(276,311,c),
(283,317,o),
(286,326,o),
(286,336,cs),
(286,351,o),
(277,358,o),
(253,373,cs),
(205,403,l),
(205,474,o),
(225,509,o),
(267,509,cs),
(307,509,o),
(323,470,o),
(323,372,cs),
(323,-240,l)
);
},
{
closed = 1;
nodes = (
(179,39,o),
(167,58,o),
(167,89,cs),
(167,120,o),
(179,138,o),
(206,138,cs),
(231,138,o),
(243,120,o),
(243,88,cs),
(243,57,o),
(232,39,o),
(206,39,cs)
);
}
);
width = 866;
},
{
layerId = "1A87246E-116E-4BF6-B440-8206DB76EC4A";
shapes = (
{
closed = 1;
nodes = (
(411,-240,l),
(457,-178,l),
(457,358,ls),
(457,456,o),
(485,508,o),
(558,508,cs),
(617,508,o),
(641,475,o),
(641,389,cs),
(641,-240,l),
(723,-240,l),
(769,-178,l),
(769,386,ls),
(769,498,o),
(701,559,o),
(585,559,cs),
(514,559,o),
(447,537,o),
(415,464,c),
(387,535,o),
(332,559,o),
(247,559,cs),
(129,559,o),
(47,507,o),
(47,421,cs),
(47,410,o),
(48,397,o),
(51,379,c),
(137,348,l),
(137,344,l),
(82,323,o),
(57,285,o),
(57,216,cs),
(57,107,ls),
(57,30,o),
(93,-10,o),
(168,-10,cs),
(235,-10,o),
(268,26,o),
(268,85,cs),
(268,145,o),
(236,178,o),
(195,178,cs),
(183,178,o),
(172,174,o),
(166,168,c),
(185,156,l),
(185,214,ls),
(185,280,o),
(201,316,o),
(253,314,c),
(258,319,o),
(261,328,o),
(261,336,cs),
(261,349,o),
(254,356,o),
(235,368,cs),
(177,404,l),
(177,476,o),
(203,512,o),
(254,512,cs),
(306,512,o),
(329,470,o),
(329,374,cs),
(329,-240,l)
);
},
{
closed = 1;
nodes = (
(160,35,o),
(148,54,o),
(148,85,cs),
(148,117,o),
(160,136,o),
(187,136,cs),
(213,136,o),
(225,117,o),
(225,85,cs),
(225,53,o),
(214,35,o),
(187,35,cs)
);
}
);
width = 830;
}
);
},
{
glyphname = "lu_lakkhangyao-thai";
lastChange = "2016-11-15 17:20:48 +0000";
layers = (
{
layerId = "CAA0A3A7-F9A4-46B2-91A1-CB381E1B2EFA";
shapes = (
{
closed = 1;
nodes = (
(495,-234,l),
(544,-176,l),
(544,352,ls),
(544,462,o),
(599,514,o),
(697,514,cs),
(771,514,o),
(818,484,o),
(818,389,cs),
(818,-234,l),
(851,-234,l),
(900,-176,l),
(900,385,ls),
(900,493,o),
(845,558,o),
(694,558,cs),
(613,558,o),
(545,539,o),
(512,461,c),
(476,539,o),
(407,558,o),
(326,558,cs),
(185,558,o),
(99,505,o),
(99,419,cs),
(99,406,o),
(101,391,o),
(105,375,c),
(212,344,l),
(212,341,l),
(164,319,o),
(148,290,o),
(148,228,cs),
(148,154,l),
(167,169,l),
(157,173,o),
(141,176,o),
(125,176,cs),
(75,176,o),
(35,143,o),
(35,83,cs),
(35,25,o),
(72,-9,o),
(133,-9,cs),
(196,-9,o),
(230,27,o),
(230,95,cs),
(230,230,ls),
(230,293,o),
(244,314,o),
(288,314,c),
(292,318,o),
(295,325,o),
(295,333,cs),
(295,342,o),
(290,350,o),
(280,355,cs),
(183,404,l),
(183,476,o),
(234,516,o),
(324,516,cs),
(417,516,o),
(462,469,o),
(462,372,cs),
(462,-234,l)
);
},
{
closed = 1;
nodes = (
(98,32,o),
(83,48,o),
(83,82,cs),
(83,116,o),
(99,134,o),
(131,134,cs),
(163,134,o),
(179,117,o),
(179,83,cs),
(179,49,o),
(162,32,o),
(130,32,cs)
);
}
);
width = 995;
},
{
layerId = "22BDAFBE-6308-4010-9D0C-693FDF26AFAA";
shapes = (
{
closed = 1;
nodes = (
(563,-240,l),
(625,-168,l),
(625,359,ls),
(625,447,o),
(654,499,o),
(742,499,cs),
(814,499,o),
(839,464,o),
(839,389,cs),
(839,-240,l),
(966,-240,l),
(1028,-168,l),
(1028,385,ls),
(1028,503,o),
(933,562,o),
(789,562,cs),
(699,562,o),
(608,539,o),
(563,468,c),
(530,531,o),
(461,562,o),
(346,562,cs),
(169,562,o),
(67,506,o),
(67,420,cs),
(67,412,o),
(68,400,o),
(72,379,c),
(194,348,l),
(194,344,l),
(123,319,o),
(95,281,o),
(95,216,cs),
(95,155,l),
(130,180,l),
(123,183,o),
(113,185,o),
(101,185,cs),
(62,185,o),
(18,158,o),
(18,94,cs),
(18,24,o),
(64,-12,o),
(143,-12,cs),
(235,-12,o),
(284,37,o),
(284,125,cs),
(284,213,ls),
(284,278,o),
(299,319,o),
(364,308,c),
(371,315,o),
(375,325,o),
(375,336,cs),
(375,355,o),
(364,363,o),
(335,374,cs),
(260,401,l),
(260,473,o),
(287,507,o),
(348,507,cs),
(413,507,o),
(436,470,o),
(436,372,cs),
(436,-240,l)
);
},
{
closed = 1;
nodes = (
(87,42,o),
(72,60,o),
(72,91,cs),
(72,122,o),
(87,140,o),
(120,140,cs),
(153,140,o),
(168,122,o),
(168,91,cs),
(168,60,o),
(153,42,o),
(120,42,cs)
);
}
);
width = 1089;
},
{
layerId = "2AF6F853-87AC-417E-A249-876B8C389FCE";
shapes = (
{
closed = 1;
nodes = (
(468,-240,l),
(488,-215,l),
(488,396,ls),
(488,472,o),
(538,527,o),
(637,527,cs),
(747,527,o),
(800,488,o),
(800,396,cs),
(800,-234,l),
(808,-234,l),
(828,-209,l),
(828,396,ls),
(828,506,o),
(762,552,o),
(637,552,cs),
(551,552,o),
(491,516,o),
(475,460,c),
(439,532,o),
(380,552,o),
(298,552,cs),
(180,552,o),
(109,501,o),
(109,416,cs),
(109,406,o),
(110,395,o),
(112,385,c),
(232,343,l),
(232,340,l),
(165,330,o),
(147,290,o),
(147,215,cs),
(147,125,l),
(144,123,l),
(136,134,o),
(117,142,o),
(95,142,cs),
(56,142,o),
(20,117,o),
(20,70,cs),
(20,25,o),
(53,-4,o),
(98,-4,cs),
(142,-4,o),
(175,24,o),
(175,73,cs),
(175,222,ls),
(175,294,o),
(198,322,o),
(261,322,c),
(267,325,o),
(270,331,o),
(270,338,cs),
(270,347,o),
(266,352,o),
(256,356,cs),
(139,401,l),
(135,481,o),
(189,527,o),
(296,527,cs),
(405,527,o),
(460,477,o),
(460,396,cs),
(460,-240,l)
);
},
{
closed = 1;
nodes = (
(69,17,o),
(48,36,o),
(48,69,cs),
(48,102,o),
(68,121,o),
(96,121,cs),
(125,121,o),
(147,102,o),
(147,69,cs),
(147,36,o),
(125,17,o),
(97,17,cs)
);
}
);
width = 936;
},
{
layerId = "B641F77A-82CB-48D8-9AD6-887D7864CC63";
shapes = (
{
closed = 1;
nodes = (
(531,-219,l),
(587,-154,l),
(587,356,ls),
(587,454,o),
(628,506,o),
(721,506,cs),
(794,506,o),
(829,473,o),
(829,389,cs),
(829,-219,l),
(912,-219,l),
(968,-154,l),
(968,385,ls),
(968,498,o),
(892,560,o),
(745,560,cs),
(659,560,o),
(579,539,o),
(539,465,c),
(505,535,o),
(436,560,o),
(337,560,cs),
(177,560,o),
(82,506,o),
(82,420,cs),
(82,409,o),
(83,396,o),
(87,377,c),
(202,346,l),
(202,343,l),
(142,319,o),
(120,285,o),
(120,222,cs),
(120,155,l),
(147,175,l),
(139,178,o),
(126,181,o),
(112,181,cs),
(68,181,o),
(26,151,o),
(26,89,cs),
(26,24,o),
(68,-11,o),
(138,-11,cs),
(217,-11,o),
(259,32,o),
(259,111,cs),
(259,221,ls),
(259,285,o),
(273,317,o),
(329,311,c),
(334,316,o),
(338,325,o),
(338,335,cs),
(338,349,o),
(329,357,o),
(309,365,cs),
(224,402,l),
(224,474,o),
(262,511,o),
(337,511,cs),
(415,511,o),
(448,470,o),
(448,372,cs),
(448,-219,l)
);
},
{
closed = 1;
nodes = (
(92,37,o),
(77,54,o),
(77,87,cs),
(77,119,o),
(92,137,o),
(125,137,cs),
(158,137,o),
(173,120,o),
(173,87,cs),
(173,55,o),
(157,37,o),
(125,37,cs)
);
}
);
width = 1045;
},
{
layerId = "8AE4ADC8-9A9B-483B-9DC3-8C129A33EC0D";
shapes = (
{
closed = 1;
nodes = (
(369,-240,l),
(389,-215,l),
(389,396,ls),
(389,472,o),
(429,527,o),
(502,527,cs),
(581,527,o),
(620,488,o),
(620,396,cs),
(620,-234,l),
(629,-234,l),
(648,-209,l),
(648,396,ls),
(648,506,o),
(599,552,o),
(501,552,cs),
(436,552,o),
(390,516,o),
(376,460,c),
(348,532,o),
(302,552,o),
(240,552,cs),
(147,552,o),
(92,501,o),
(92,416,cs),
(92,406,o),
(92,395,o),
(94,385,c),
(184,343,l),
(184,340,l),
(135,330,o),
(122,290,o),
(122,215,cs),
(122,130,l),
(119,128,l),
(112,139,o),
(96,142,o),
(85,142,cs),
(52,142,o),
(27,118,o),
(27,69,cs),
(27,21,o),
(51,-4,o),
(88,-4,cs),
(126,-4,o),
(150,22,o),
(150,77,cs),
(150,222,ls),
(150,294,o),
(166,322,o),
(212,322,c),
(216,325,o),
(218,331,o),
(218,338,cs),
(218,347,o),
(215,352,o),
(207,356,cs),
(121,401,l),
(119,481,o),
(159,527,o),
(238,527,cs),
(319,527,o),
(360,477,o),
(360,396,cs),
(360,-240,l)
);
},
{
closed = 1;
nodes = (
(63,17,o),
(50,36,o),
(50,69,cs),
(50,102,o),
(63,121,o),
(87,121,cs),
(111,121,o),
(126,102,o),
(126,69,cs),
(126,36,o),
(112,17,o),
(87,17,cs)
);
}
);
width = 738;
},
{
layerId = "2C876074-2AE3-4D36-A7C1-2DCA66F9377D";
shapes = (
{
closed = 1;
nodes = (
(392,-234,l),
(432,-176,l),
(432,352,ls),
(432,462,o),
(469,514,o),
(542,514,cs),
(597,514,o),
(629,484,o),
(629,389,cs),
(629,-234,l),
(671,-234,l),
(711,-176,l),
(711,385,ls),
(711,493,o),
(662,558,o),
(549,558,cs),
(485,558,o),
(429,539,o),
(402,461,c),
(375,539,o),
(323,558,o),
(255,558,cs),
(141,558,o),
(73,505,o),
(73,419,cs),
(73,406,o),
(74,391,o),
(77,375,c),
(161,344,l),
(161,341,l),
(121,319,o),
(106,290,o),
(106,228,cs),
(106,154,l),
(124,169,l),
(117,173,o),
(105,176,o),
(94,176,cs),
(58,176,o),
(27,143,o),
(27,83,cs),
(27,25,o),
(57,-9,o),
(106,-9,cs),
(160,-9,o),
(188,27,o),
(188,95,cs),
(188,230,ls),
(188,293,o),
(199,314,o),
(237,314,c),
(240,318,o),
(243,325,o),
(243,333,cs),
(243,342,o),
(237,350,o),
(227,356,cs),
(157,404,l),
(157,476,o),
(191,516,o),
(254,516,cs),
(320,516,o),
(350,469,o),
(350,372,cs),
(350,-234,l)
);
},
{
closed = 1;
nodes = (
(78,32,o),
(67,48,o),
(67,82,cs),
(67,116,o),
(78,134,o),
(103,134,cs),
(128,134,o),
(139,117,o),
(139,83,cs),
(139,49,o),
(127,32,o),
(103,32,cs)
);
}
);
width = 781;
},
{
layerId = "3CAB0083-C9A5-4E42-9C5D-0009229A2EB9";
shapes = (
{
closed = 1;
nodes = (
(464,-213,l),
(515,-145,l),
(515,357,ls),
(515,451,o),
(537,503,o),
(605,503,cs),
(663,503,o),
(680,469,o),
(680,389,cs),
(680,-213,l),
(793,-213,l),
(842,-145,l),
(842,385,ls),
(842,500,o),
(764,561,o),
(648,561,cs),
(575,561,o),
(500,539,o),
(464,466,c),
(436,533,o),
(381,561,o),
(286,561,cs),
(141,561,o),
(58,506,o),
(58,420,cs),
(58,410,o),
(59,398,o),
(62,378,c),
(161,347,l),
(161,343,l),
(102,319,o),
(78,283,o),
(78,219,cs),
(78,155,l),
(108,177,l),
(102,180,o),
(96,183,o),
(87,183,cs),
(56,183,o),
(20,154,o),
(20,91,cs),
(20,24,o),
(58,-11,o),
(123,-11,cs),
(199,-11,o),
(240,34,o),
(240,117,cs),
(240,217,ls),
(240,282,o),
(253,318,o),
(307,310,c),
(313,316,o),
(316,325,o),
(316,335,cs),
(316,352,o),
(306,359,o),
(282,371,cs),
(223,402,l),
(223,474,o),
(242,509,o),
(289,509,cs),
(338,509,o),
(353,470,o),
(353,372,cs),
(353,-213,l)
);
},
{
closed = 1;
nodes = (
(78,39,o),
(66,57,o),
(66,89,cs),
(66,120,o),
(78,138,o),
(105,138,cs),
(131,138,o),
(143,121,o),
(143,89,cs),
(143,57,o),
(130,39,o),
(105,39,cs)
);
}
);
width = 896;
},
{
layerId = "1A87246E-116E-4BF6-B440-8206DB76EC4A";
shapes = (
{
closed = 1;
nodes = (
(439,-221,l),
(486,-159,l),
(486,358,ls),
(486,456,o),
(514,508,o),
(586,508,cs),
(646,508,o),
(670,475,o),
(670,389,cs),
(670,-221,l),
(753,-221,l),
(798,-159,l),
(798,386,ls),
(798,498,o),
(730,559,o),
(614,559,cs),
(543,559,o),
(476,537,o),
(443,464,c),
(415,535,o),
(361,559,o),
(276,559,cs),
(142,559,o),
(64,505,o),
(64,419,cs),
(64,408,o),
(65,396,o),
(68,378,c),
(164,346,l),
(164,342,l),
(111,320,o),
(90,286,o),
(90,222,cs),
(90,153,l),
(114,171,l),
(108,175,o),
(99,178,o),
(89,178,cs),
(55,178,o),
(21,148,o),
(21,87,cs),
(21,24,o),
(56,-10,o),
(115,-10,cs),
(182,-10,o),
(218,31,o),
(218,107,cs),
(218,221,ls),
(218,286,o),
(231,317,o),
(280,312,c),
(285,317,o),
(288,325,o),
(288,335,cs),
(288,349,o),
(279,356,o),
(261,365,cs),
(195,403,l),
(195,475,o),
(221,512,o),
(277,512,cs),
(335,512,o),
(357,470,o),
(357,374,cs),
(357,-221,l)
);
},
{
closed = 1;
nodes = (
(76,35,o),
(64,53,o),
(64,85,cs),
(64,118,o),
(76,136,o),
(103,136,cs),
(129,136,o),
(141,118,o),
(141,86,cs),
(141,53,o),
(128,35,o),
(103,35,cs)
);
}
);
width = 858;
}
);
},
{
glyphname = "yoYing-thai";
lastChange = "2016-11-15 17:20:48 +0000";
layers = (
{
anchors = (
{
name = bottom;
pos = (750,-240);
},
{
name = top;
pos = (780,536);
}
);
layerId = "CAA0A3A7-F9A4-46B2-91A1-CB381E1B2EFA";
shapes = (
{
closed = 1;
nodes = (
(265,-10,o),
(299,27,o),
(299,81,cs),
(299,139,o),
(260,176,o),
(208,176,cs),
(191,176,o),
(172,172,o),
(163,164,c),
(182,156,l),
(182,213,ls),
(182,280,o),
(213,313,o),
(277,318,c),
(281,322,o),
(284,330,o),
(284,337,cs),
(284,346,o),
(279,354,o),
(269,359,cs),
(172,408,l),
(172,478,o),
(218,516,o),
(297,516,cs),
(385,516,o),
(432,469,o),
(432,372,cs),
(432,68,ls),
(432,49,o),
(423,40,o),
(405,40,cs),
(397,40,l),
(397,0,l),
(637,0,ls),
(724,0,o),
(780,24,o),
(780,122,cs),
(780,552,l),
(747,552,l),
(698,494,l),
(698,112,ls),
(698,58,o),
(672,42,o),
(615,42,cs),
(512,42,l),
(512,383,ls),
(512,499,o),
(438,558,o),
(299,558,cs),
(170,558,o),
(88,507,o),
(88,423,cs),
(88,410,o),
(90,395,o),
(94,379,c),
(201,348,l),
(201,345,l),
(133,327,o),
(100,287,o),
(100,216,cs),
(100,94,ls),
(100,25,o),
(135,-10,o),
(199,-10,cs)
);
},
{
closed = 1;
nodes = (
(165,30,o),
(151,51,o),
(151,82,cs),
(151,113,o),
(165,134,o),
(201,134,cs),
(237,134,o),
(251,113,o),
(251,81,cs),
(251,50,o),
(238,30,o),
(202,30,cs)
);
},
{
closed = 1;
nodes = (
(690,-244,o),
(778,-202,o),
(778,-118,cs),
(778,-74,o),
(754,-67,o),
(705,-67,c),
(705,-97,ls),
(705,-174,o),
(641,-204,o),
(576,-204,cs),
(559,-204,o),
(542,-202,o),
(524,-197,c),
(524,-194,l),
(542,-184,o),
(562,-167,o),
(562,-130,cs),
(562,-82,o),
(528,-53,o),
(477,-53,cs),
(427,-53,o),
(393,-81,o),
(393,-131,cs),
(393,-208,o),
(476,-244,o),
(579,-244,cs)
);
},
{
closed = 1;
nodes = (
(449,-175,o),
(433,-157,o),
(433,-131,cs),
(433,-104,o),
(449,-87,o),
(476,-87,cs),
(504,-87,o),
(520,-104,o),
(520,-131,cs),
(520,-158,o),
(504,-175,o),
(477,-175,cs)
);
}
);
width = 875;
},
{
anchors = (
{
name = bottom;
pos = (829,-240);
},
{
name = top;
pos = (862,536);
}
);
layerId = "22BDAFBE-6308-4010-9D0C-693FDF26AFAA";
shapes = (
{
closed = 1;
nodes = (
(265,-12,o),
(311,26,o),
(311,91,cs),
(311,155,o),
(272,183,o),
(237,183,cs),
(221,183,o),
(217,181,o),
(209,177,c),
(238,159,l),
(238,213,ls),
(238,290,o),
(262,314,o),
(316,312,c),
(323,319,o),
(327,329,o),
(327,340,cs),
(327,358,o),
(315,369,o),
(287,380,cs),
(232,401,l),
(232,473,o),
(257,507,o),
(309,507,cs),
(355,507,o),
(384,480,o),
(384,387,cs),
(384,85,ls),
(384,60,o),
(374,48,o),
(351,48,cs),
(341,48,l),
(341,0,l),
(705,0,ls),
(828,0,o),
(862,51,o),
(862,137,cs),
(862,552,l),
(736,552,l),
(673,479,l),
(673,112,ls),
(673,75,o),
(661,52,o),
(621,52,cs),
(564,52,l),
(564,373,ls),
(564,501,o),
(467,562,o),
(310,562,cs),
(161,562,o),
(45,507,o),
(45,420,cs),
(45,412,o),
(46,400,o),
(50,379,c),
(158,348,l),
(158,344,l),
(87,319,o),
(59,281,o),
(59,216,cs),
(59,125,ls),
(59,37,o),
(107,-12,o),
(201,-12,cs)
);
},
{
closed = 1;
nodes = (
(175,42,o),
(160,60,o),
(160,91,cs),
(160,122,o),
(175,140,o),
(208,140,cs),
(241,140,o),
(256,122,o),
(256,91,cs),
(256,60,o),
(241,42,o),
(208,42,cs)
);
},
{
closed = 1;
nodes = (
(744,-250,o),
(833,-193,o),
(833,-118,cs),
(833,-55,o),
(769,-24,o),
(668,-50,c),
(668,-71,ls),
(668,-152,o),
(634,-204,o),
(583,-204,cs),
(576,-204,o),
(569,-203,o),
(566,-202,c),
(566,-196,l),
(585,-184,o),
(599,-161,o),
(599,-128,cs),
(599,-62,o),
(545,-34,o),
(476,-34,cs),
(404,-34,o),
(355,-64,o),
(355,-127,cs),
(355,-220,o),
(461,-250,o),
(578,-250,cs)
);
},
{
closed = 1;
nodes = (
(443,-171,o),
(429,-154,o),
(429,-127,cs),
(429,-100,o),
(443,-83,o),
(472,-83,cs),
(502,-83,o),
(516,-100,o),
(516,-127,cs),
(516,-154,o),
(502,-171,o),
(472,-171,cs)
);
}
);
width = 920;
},
{
anchors = (
{
name = bottom;
pos = (742,-234);
},
{
name = top;
pos = (743,536);
}
);
layerId = "2AF6F853-87AC-417E-A249-876B8C389FCE";
shapes = (
{
closed = 1;
nodes = (
(230,-4,o),
(263,25,o),
(263,69,cs),
(263,117,o),
(227,142,o),
(185,142,cs),
(161,142,o),
(142,134,o),
(133,123,c),
(130,124,l),
(130,222,ls),
(130,285,o),
(167,322,o),
(230,322,c),
(236,325,o),
(239,331,o),
(239,338,cs),
(239,347,o),
(235,352,o),
(225,356,cs),
(118,401,l),
(114,483,o),
(176,527,o),
(276,527,cs),
(383,527,o),
(438,477,o),
(438,371,cs),
(438,71,ls),
(438,34,o),
(423,19,o),
(399,19,cs),
(390,19,l),
(390,0,l),
(628,0,ls),
(710,0,o),
(743,39,o),
(743,117,cs),
(743,548,l),
(733,548,l),
(715,527,l),
(715,117,ls),
(715,49,o),
(685,23,o),
(615,23,cs),
(466,23,l),
(466,382,ls),
(466,494,o),
(396,552,o),
(276,552,cs),
(163,552,o),
(88,501,o),
(88,416,cs),
(88,406,o),
(89,395,o),
(91,385,c),
(201,343,l),
(201,340,l),
(134,330,o),
(102,290,o),
(102,215,cs),
(102,73,ls),
(102,24,o),
(132,-4,o),
(181,-4,cs)
);
},
{
closed = 1;
nodes = (
(149,17,o),
(130,36,o),
(130,69,cs),
(130,102,o),
(149,121,o),
(183,121,cs),
(216,121,o),
(235,102,o),
(235,69,cs),
(235,36,o),
(215,17,o),
(182,17,cs)
);
},
{
closed = 1;
nodes = (
(687,-239,o),
(758,-181,o),
(758,-109,cs),
(758,-86,o),
(753,-78,o),
(730,-78,c),
(730,-88,ls),
(730,-170,o),
(666,-216,o),
(582,-216,cs),
(528,-216,o),
(500,-205,o),
(485,-198,c),
(485,-195,l),
(515,-194,o),
(546,-170,o),
(546,-131,cs),
(546,-88,o),
(511,-67,o),
(474,-67,cs),
(436,-67,o),
(403,-89,o),
(403,-132,cs),
(403,-205,o),
(491,-239,o),
(585,-239,cs)
);
},
{
closed = 1;
nodes = (
(447,-177,o),
(431,-160,o),
(431,-133,cs),
(431,-106,o),
(447,-89,o),
(474,-89,cs),
(502,-89,o),
(518,-106,o),
(518,-133,cs),
(518,-160,o),
(502,-177,o),
(474,-177,cs)
);
}
);
width = 860;
},
{
anchors = (
{
name = bottom;
pos = (803,-240);
},
{
name = top;
pos = (824,536);
}
);
layerId = "B641F77A-82CB-48D8-9AD6-887D7864CC63";
shapes = (
{
closed = 1;
nodes = (
(265,-11,o),
(305,26,o),
(305,87,cs),
(305,148,o),
(266,180,o),
(223,180,cs),
(207,180,o),
(196,177,o),
(187,171,c),
(212,158,l),
(212,213,ls),
(212,285,o),
(239,314,o),
(298,315,c),
(303,320,o),
(307,329,o),
(307,339,cs),
(307,352,o),
(298,362,o),
(278,370,cs),
(204,404,l),
(204,475,o),
(239,511,o),
(303,511,cs),
(369,511,o),
(406,475,o),
(406,380,cs),
(406,77,ls),
(406,55,o),
(397,44,o),
(376,44,cs),
(367,44,l),
(367,0,l),
(673,0,ls),
(779,0,o),
(824,38,o),
(824,130,cs),
(824,552,l),
(741,552,l),
(685,486,l),
(685,112,ls),
(685,67,o),
(666,47,o),
(618,47,cs),
(540,47,l),
(540,378,ls),
(540,500,o),
(453,560,o),
(305,560,cs),
(165,560,o),
(65,507,o),
(65,421,cs),
(65,411,o),
(66,398,o),
(70,379,c),
(178,348,l),
(178,344,l),
(108,323,o),
(78,284,o),
(78,216,cs),
(78,111,ls),
(78,31,o),
(120,-11,o),
(200,-11,cs)
);
},
{
closed = 1;
nodes = (
(171,36,o),
(156,56,o),
(156,87,cs),
(156,118,o),
(171,137,o),
(205,137,cs),
(239,137,o),
(254,118,o),
(254,86,cs),
(254,55,o),
(240,36,o),
(205,36,cs)
);
},
{
closed = 1;
nodes = (
(720,-247,o),
(808,-197,o),
(808,-118,cs),
(808,-64,o),
(762,-44,o),
(686,-58,c),
(686,-83,ls),
(686,-162,o),
(638,-204,o),
(580,-204,cs),
(568,-204,o),
(557,-203,o),
(547,-200,c),
(547,-195,l),
(565,-184,o),
(582,-164,o),
(582,-129,cs),
(582,-71,o),
(537,-43,o),
(477,-43,cs),
(415,-43,o),
(373,-71,o),
(373,-129,cs),
(373,-218,o),
(472,-247,o),
(577,-247,cs)
);
},
{
closed = 1;
nodes = (
(446,-173,o),
(431,-156,o),
(431,-129,cs),
(431,-102,o),
(446,-85,o),
(474,-85,cs),
(503,-85,o),
(518,-102,o),
(518,-129,cs),
(518,-156,o),
(503,-173,o),
(474,-173,cs)
);
}
);
width = 899;
},
{
anchors = (
{
name = bottom;
pos = (579,-234);
},
{
name = top;
pos = (580,536);
}
);
layerId = "8AE4ADC8-9A9B-483B-9DC3-8C129A33EC0D";
shapes = (
{
closed = 1;
nodes = (
(186,-4,o),
(210,21,o),
(210,69,cs),
(210,118,o),
(185,142,o),
(152,142,cs),
(141,142,o),
(125,139,o),
(118,128,c),
(115,130,l),
(115,222,ls),
(115,285,o),
(143,322,o),
(191,322,c),
(195,325,o),
(197,331,o),
(197,338,cs),
(197,347,o),
(195,352,o),
(187,356,c),
(107,401,l),
(104,483,o),
(149,527,o),
(222,527,cs),
(301,527,o),
(342,477,o),
(342,371,cs),
(342,71,ls),
(342,34,o),
(332,19,o),
(314,19,cs),
(307,19,l),
(307,0,l),
(489,0,ls),
(551,0,o),
(579,39,o),
(579,117,cs),
(579,548,l),
(569,548,l),
(551,527,l),
(551,117,ls),
(551,49,o),
(529,23,o),
(478,23,cs),
(370,23,l),
(370,382,ls),
(370,494,o),
(316,552,o),
(223,552,cs),
(135,552,o),
(77,501,o),
(77,416,cs),
(77,406,o),
(78,395,o),
(80,385,c),
(163,343,l),
(163,340,l),
(112,330,o),
(87,290,o),
(87,215,cs),
(87,77,ls),
(87,22,o),
(111,-4,o),
(149,-4,cs)
);
},
{
closed = 1;
nodes = (
(125,17,o),
(111,36,o),
(111,69,cs),
(111,102,o),
(126,121,o),
(150,121,cs),
(174,121,o),
(187,102,o),
(187,69,cs),
(187,36,o),
(174,17,o),
(150,17,cs)
);
},
{
closed = 1;
nodes = (
(533,-239,o),
(589,-181,o),
(589,-109,cs),
(589,-86,o),
(583,-78,o),
(562,-78,c),
(562,-88,ls),
(562,-170,o),
(513,-216,o),
(452,-216,cs),
(415,-216,o),
(395,-205,o),
(384,-198,c),
(384,-195,l),
(405,-194,o),
(427,-170,o),
(427,-131,cs),
(427,-88,o),
(401,-67,o),
(371,-67,cs),
(340,-67,o),
(315,-89,o),
(315,-132,cs),
(315,-203,o),
(378,-239,o),
(454,-239,cs)
);
},
{
closed = 1;
nodes = (
(350,-177,o),
(338,-160,o),
(338,-133,cs),
(338,-106,o),
(350,-89,o),
(371,-89,cs),
(392,-89,o),
(404,-106,o),
(404,-133,cs),
(404,-160,o),
(392,-177,o),
(371,-177,cs)
);
}
);
width = 676;
},
{
anchors = (
{
name = bottom;
pos = (592,-240);
},
{
name = top;
pos = (612,536);
}
);
layerId = "2C876074-2AE3-4D36-A7C1-2DCA66F9377D";
shapes = (
{
closed = 1;
nodes = (
(209,-10,o),
(237,27,o),
(237,81,cs),
(237,139,o),
(208,176,o),
(167,176,cs),
(155,176,o),
(143,172,o),
(136,164,c),
(153,156,l),
(153,213,ls),
(153,280,o),
(175,313,o),
(222,318,c),
(225,322,o),
(228,330,o),
(228,337,cs),
(228,346,o),
(222,353,o),
(212,360,cs),
(146,408,l),
(146,478,o),
(177,516,o),
(232,516,cs),
(291,516,o),
(323,469,o),
(323,372,cs),
(323,68,ls),
(323,49,o),
(317,40,o),
(302,40,cs),
(295,40,l),
(295,0,l),
(501,0,ls),
(573,0,o),
(612,24,o),
(612,122,cs),
(612,552,l),
(570,552,l),
(530,494,l),
(530,112,ls),
(530,58,o),
(513,42,o),
(472,42,cs),
(403,42,l),
(403,383,ls),
(403,499,o),
(342,558,o),
(233,558,cs),
(132,558,o),
(63,507,o),
(63,423,cs),
(63,410,o),
(64,395,o),
(67,379,c),
(149,348,l),
(149,345,l),
(97,327,o),
(72,287,o),
(72,216,cs),
(72,94,ls),
(72,25,o),
(101,-10,o),
(156,-10,cs)
);
},
{
closed = 1;
nodes = (
(132,30,o),
(121,51,o),
(121,82,cs),
(121,113,o),
(132,134,o),
(158,134,cs),
(185,134,o),
(196,113,o),
(196,81,cs),
(196,50,o),
(186,30,o),
(159,30,cs)
);
},
{
closed = 1;
nodes = (
(539,-244,o),
(606,-202,o),
(606,-118,cs),
(606,-74,o),
(580,-67,o),
(533,-67,c),
(533,-97,ls),
(533,-174,o),
(490,-204,o),
(443,-204,cs),
(432,-204,o),
(421,-202,o),
(410,-197,c),
(410,-194,l),
(424,-184,o),
(438,-167,o),
(438,-130,cs),
(438,-82,o),
(408,-53,o),
(367,-53,cs),
(324,-53,o),
(296,-81,o),
(296,-131,cs),
(296,-208,o),
(364,-244,o),
(443,-244,cs)
);
},
{
closed = 1;
nodes = (
(344,-175,o),
(332,-157,o),
(332,-131,cs),
(332,-104,o),
(344,-87,o),
(365,-87,cs),
(387,-87,o),
(399,-104,o),
(399,-131,cs),
(399,-158,o),
(387,-175,o),
(366,-175,cs)
);
}
);
width = 681;
},
{
anchors = (
{
name = bottom;
pos = (677,-240);
},
{
name = top;
pos = (705,536);
}
);
layerId = "3CAB0083-C9A5-4E42-9C5D-0009229A2EB9";
shapes = (
{
closed = 1;
nodes = (
(220,-11,o),
(259,26,o),
(259,89,cs),
(259,151,o),
(227,181,o),
(202,181,cs),
(189,181,o),
(187,179,o),
(180,174,c),
(204,158,l),
(204,213,ls),
(204,287,o),
(223,314,o),
(264,314,c),
(270,320,o),
(273,329,o),
(273,339,cs),
(273,355,o),
(263,363,o),
(241,377,cs),
(200,403,l),
(200,474,o),
(217,509,o),
(257,509,cs),
(290,509,o),
(311,477,o),
(311,383,cs),
(311,81,ls),
(311,57,o),
(303,46,o),
(284,46,cs),
(275,46,l),
(275,0,l),
(579,0,ls),
(682,0,o),
(707,44,o),
(707,133,cs),
(707,552,l),
(596,552,l),
(545,483,l),
(545,112,ls),
(545,71,o),
(536,49,o),
(507,49,cs),
(464,49,l),
(464,376,ls),
(464,500,o),
(386,561,o),
(259,561,cs),
(135,561,o),
(40,507,o),
(40,421,cs),
(40,411,o),
(41,399,o),
(44,379,c),
(130,348,l),
(130,344,l),
(74,321,o),
(50,283,o),
(50,216,cs),
(50,117,ls),
(50,34,o),
(91,-11,o),
(170,-11,cs)
);
},
{
closed = 1;
nodes = (
(149,39,o),
(137,58,o),
(137,89,cs),
(137,120,o),
(149,138,o),
(176,138,cs),
(201,138,o),
(213,120,o),
(213,88,cs),
(213,57,o),
(202,39,o),
(176,39,cs)
);
},
{
closed = 1;
nodes = (
(608,-248,o),
(681,-195,o),
(681,-118,cs),
(681,-60,o),
(626,-35,o),
(539,-54,c),
(539,-77,ls),
(539,-157,o),
(514,-204,o),
(476,-204,cs),
(471,-204,o),
(467,-203,o),
(465,-201,c),
(465,-195,l),
(480,-184,o),
(491,-163,o),
(491,-129,cs),
(491,-67,o),
(446,-39,o),
(389,-39,cs),
(329,-39,o),
(289,-68,o),
(289,-128,cs),
(289,-219,o),
(374,-248,o),
(472,-248,cs)
);
},
{
closed = 1;
nodes = (
(362,-172,o),
(350,-155,o),
(350,-128,cs),
(350,-101,o),
(362,-84,o),
(385,-84,cs),
(408,-84,o),
(420,-101,o),
(420,-128,cs),
(420,-155,o),
(408,-172,o),
(385,-172,cs)
);
}
);
width = 757;
},
{
anchors = (
{
name = bottom;
pos = (652,-240);
},
{
name = top;
pos = (676,536);
}
);
layerId = "1A87246E-116E-4BF6-B440-8206DB76EC4A";
shapes = (
{
closed = 1;
nodes = (
(216,-10,o),
(251,26,o),
(251,85,cs),
(251,145,o),
(219,177,o),
(188,177,cs),
(175,177,o),
(169,174,o),
(162,168,c),
(182,156,l),
(182,214,ls),
(182,285,o),
(203,314,o),
(247,316,c),
(252,321,o),
(255,329,o),
(255,338,cs),
(255,352,o),
(247,359,o),
(230,370,cs),
(176,404,l),
(176,476,o),
(200,512,o),
(249,512,cs),
(295,512,o),
(321,475,o),
(321,379,cs),
(321,76,ls),
(321,53,o),
(314,42,o),
(296,42,cs),
(288,42,l),
(288,0,l),
(555,0,ls),
(646,0,o),
(677,37,o),
(677,129,cs),
(677,552,l),
(595,552,l),
(549,489,l),
(549,112,ls),
(549,65,o),
(536,45,o),
(501,45,cs),
(443,45,l),
(443,379,ls),
(443,499,o),
(371,559,o),
(250,559,cs),
(134,559,o),
(49,507,o),
(49,421,cs),
(49,410,o),
(50,397,o),
(53,379,c),
(139,348,l),
(139,344,l),
(84,323,o),
(59,285,o),
(59,216,cs),
(59,107,ls),
(59,30,o),
(95,-10,o),
(165,-10,cs)
);
},
{
closed = 1;
nodes = (
(142,35,o),
(130,54,o),
(130,85,cs),
(130,117,o),
(142,136,o),
(169,136,cs),
(195,136,o),
(207,117,o),
(207,85,cs),
(207,53,o),
(196,35,o),
(169,35,cs)
);
},
{
closed = 1;
nodes = (
(589,-246,o),
(660,-196,o),
(660,-117,cs),
(660,-66,o),
(618,-48,o),
(548,-60,c),
(548,-84,ls),
(548,-163,o),
(514,-205,o),
(470,-205,cs),
(461,-205,o),
(453,-203,o),
(448,-200,c),
(448,-195,l),
(463,-185,o),
(476,-165,o),
(476,-129,cs),
(476,-73,o),
(437,-45,o),
(386,-45,cs),
(333,-45,o),
(297,-73,o),
(297,-129,cs),
(297,-215,o),
(377,-246,o),
(468,-246,cs)
);
},
{
closed = 1;
nodes = (
(359,-173,o),
(347,-156,o),
(347,-129,cs),
(347,-102,o),
(359,-85,o),
(382,-85,cs),
(405,-85,o),
(417,-102,o),
(417,-129,cs),
(417,-156,o),
(405,-173,o),
(382,-173,cs)
);
}
);
width = 735;
}
);
unicode = 3597;
},
{
glyphname = "yoYing-thai.less";
lastChange = "2016-11-15 17:20:48 +0000";
layers = (
{
anchors = (
{
name = bottom;
pos = (757,0);
},
{
name = top;
pos = (770,536);
}
);
layerId = "CAA0A3A7-F9A4-46B2-91A1-CB381E1B2EFA";
shapes = (
{
closed = 1;
nodes = (
(255,-10,o),
(289,27,o),
(289,82,cs),
(289,139,o),
(250,176,o),
(197,176,cs),
(181,176,o),
(162,172,o),
(153,164,c),
(172,156,l),
(172,213,ls),
(172,280,o),
(203,313,o),
(267,318,c),
(271,322,o),
(274,330,o),
(274,337,cs),
(274,346,o),
(269,354,o),
(259,359,cs),
(162,408,l),
(162,478,o),
(208,516,o),
(287,516,cs),
(375,516,o),
(422,469,o),
(422,372,cs),
(422,68,ls),
(422,49,o),
(413,40,o),
(395,40,cs),
(387,40,l),
(387,0,l),
(627,0,ls),
(714,0,o),
(770,24,o),
(770,122,cs),
(770,552,l),
(737,552,l),
(688,494,l),
(688,112,ls),
(688,58,o),
(662,42,o),
(605,42,cs),
(502,42,l),
(502,383,ls),
(502,499,o),
(428,558,o),
(289,558,cs),
(160,558,o),
(78,507,o),
(78,423,cs),
(78,410,o),
(80,395,o),
(84,379,c),
(191,348,l),
(191,345,l),
(123,327,o),
(90,287,o),
(90,216,cs),
(90,94,ls),
(90,25,o),
(125,-10,o),
(189,-10,cs)
);
},
{
closed = 1;
nodes = (
(155,30,o),
(141,51,o),
(141,82,cs),
(141,113,o),
(155,134,o),
(191,134,cs),
(227,134,o),
(241,113,o),
(241,81,cs),
(241,50,o),
(228,30,o),
(192,30,cs)
);
}
);
width = 865;
},
{
anchors = (
{
name = bottom;
pos = (846,0);
},
{
name = top;
pos = (859,536);
}
);
layerId = "22BDAFBE-6308-4010-9D0C-693FDF26AFAA";
shapes = (
{
closed = 1;
nodes = (
(262,-12,o),
(308,26,o),
(308,91,cs),
(308,155,o),
(269,183,o),
(234,183,cs),
(218,183,o),
(214,181,o),
(206,177,c),
(235,159,l),
(235,213,ls),
(235,290,o),
(259,314,o),
(313,312,c),
(320,319,o),
(324,329,o),
(324,340,cs),
(324,358,o),
(312,369,o),
(284,380,cs),
(229,401,l),
(229,473,o),
(254,507,o),
(306,507,cs),
(352,507,o),
(381,480,o),
(381,387,cs),
(381,85,ls),
(381,60,o),
(371,48,o),
(348,48,cs),
(338,48,l),
(338,0,l),
(702,0,ls),
(825,0,o),
(859,51,o),
(859,137,cs),
(859,552,l),
(733,552,l),
(670,479,l),
(670,112,ls),
(670,75,o),
(658,52,o),
(618,52,cs),
(561,52,l),
(561,373,ls),
(561,501,o),
(464,562,o),
(307,562,cs),
(158,562,o),
(42,507,o),
(42,420,cs),
(42,412,o),
(43,400,o),
(47,379,c),
(155,348,l),
(155,344,l),
(84,319,o),
(56,281,o),
(56,216,cs),
(56,125,ls),
(56,37,o),
(104,-12,o),
(198,-12,cs)
);
},
{
closed = 1;
nodes = (
(172,42,o),
(157,60,o),
(157,91,cs),
(157,122,o),
(172,140,o),
(205,140,cs),
(238,140,o),
(253,122,o),
(253,91,cs),
(253,60,o),
(238,42,o),
(205,42,cs)
);
}
);
width = 909;
},
{
anchors = (
{
name = bottom;
pos = (733,0);
},
{
name = top;
pos = (743,536);
}
);
layerId = "2AF6F853-87AC-417E-A249-876B8C389FCE";
shapes = (
{
closed = 1;
nodes = (
(230,-4,o),
(263,25,o),
(263,69,cs),
(263,117,o),
(227,142,o),
(185,142,cs),
(161,142,o),
(142,134,o),
(133,123,c),
(130,124,l),
(130,222,ls),
(130,285,o),
(167,322,o),
(230,322,c),
(236,325,o),
(239,331,o),
(239,338,cs),
(239,347,o),
(235,352,o),
(225,356,cs),
(118,401,l),
(114,483,o),
(176,527,o),
(276,527,cs),
(383,527,o),
(438,477,o),
(438,371,cs),
(438,71,ls),
(438,34,o),
(423,19,o),
(399,19,cs),
(390,19,l),
(390,0,l),
(628,0,ls),
(710,0,o),
(743,39,o),
(743,117,cs),
(743,548,l),
(733,548,l),
(715,527,l),
(715,117,ls),
(715,49,o),
(685,23,o),
(615,23,cs),
(466,23,l),
(466,382,ls),
(466,494,o),
(396,552,o),
(276,552,cs),
(163,552,o),
(88,501,o),
(88,416,cs),
(88,406,o),
(89,395,o),
(91,385,c),
(201,343,l),
(201,340,l),
(134,330,o),
(102,290,o),
(102,215,cs),
(102,73,ls),
(102,24,o),
(132,-4,o),
(181,-4,cs)
);
},
{
closed = 1;
nodes = (
(149,17,o),
(130,36,o),
(130,69,cs),
(130,102,o),
(149,121,o),
(183,121,cs),
(216,121,o),
(235,102,o),
(235,69,cs),
(235,36,o),
(215,17,o),
(182,17,cs)
);
}
);
width = 845;
},
{
anchors = (
{
name = bottom;
pos = (804,0);
},
{
name = top;
pos = (817,536);
}
);
layerId = "B641F77A-82CB-48D8-9AD6-887D7864CC63";
shapes = (
{
closed = 1;
nodes = (
(259,-11,o),
(299,26,o),
(299,87,cs),
(299,148,o),
(260,180,o),
(217,180,cs),
(201,180,o),
(190,177,o),
(181,171,c),
(206,158,l),
(206,213,ls),
(206,285,o),
(233,314,o),
(292,315,c),
(297,320,o),
(301,329,o),
(301,339,cs),
(301,352,o),
(292,362,o),
(272,370,cs),
(198,404,l),
(198,475,o),
(233,511,o),
(297,511,cs),
(363,511,o),
(400,475,o),
(400,380,cs),
(400,77,ls),
(400,55,o),
(391,44,o),
(370,44,cs),
(361,44,l),
(361,0,l),
(667,0,ls),
(773,0,o),
(818,38,o),
(818,130,cs),
(818,552,l),
(735,552,l),
(679,486,l),
(679,112,ls),
(679,67,o),
(660,47,o),
(612,47,cs),
(534,47,l),
(534,378,ls),
(534,500,o),
(447,560,o),
(299,560,cs),
(159,560,o),
(59,507,o),
(59,421,cs),
(59,411,o),
(60,398,o),
(64,379,c),
(172,348,l),
(172,344,l),
(102,323,o),
(72,284,o),
(72,216,cs),
(72,111,ls),
(72,31,o),
(114,-11,o),
(194,-11,cs)
);
},
{
closed = 1;
nodes = (
(165,36,o),
(150,56,o),
(150,87,cs),
(150,118,o),
(165,137,o),
(199,137,cs),
(233,137,o),
(248,118,o),
(248,86,cs),
(248,55,o),
(234,36,o),
(199,36,cs)
);
}
);
width = 888;
},
{
anchors = (
{
name = bottom;
pos = (569,0);
},
{
name = top;
pos = (579,536);
}
);
layerId = "8AE4ADC8-9A9B-483B-9DC3-8C129A33EC0D";
shapes = (
{
closed = 1;
nodes = (
(186,-4,o),
(210,21,o),
(210,69,cs),
(210,118,o),
(185,142,o),
(152,142,cs),
(141,142,o),
(125,139,o),
(118,128,c),
(115,130,l),
(115,222,ls),
(115,285,o),
(143,322,o),
(191,322,c),
(195,325,o),
(197,331,o),
(197,338,cs),
(197,347,o),
(195,352,o),
(187,356,c),
(107,401,l),
(104,483,o),
(149,527,o),
(222,527,cs),
(301,527,o),
(342,477,o),
(342,371,cs),
(342,71,ls),
(342,34,o),
(332,19,o),
(314,19,cs),
(307,19,l),
(307,0,l),
(489,0,ls),
(551,0,o),
(579,39,o),
(579,117,cs),
(579,548,l),
(569,548,l),
(551,527,l),
(551,117,ls),
(551,49,o),
(529,23,o),
(478,23,cs),
(370,23,l),
(370,382,ls),
(370,494,o),
(316,552,o),
(223,552,cs),
(135,552,o),
(77,501,o),
(77,416,cs),
(77,406,o),
(78,395,o),
(80,385,c),
(163,343,l),
(163,340,l),
(112,330,o),
(87,290,o),
(87,215,cs),
(87,77,ls),
(87,22,o),
(111,-4,o),
(149,-4,cs)
);
},
{
closed = 1;
nodes = (
(125,17,o),
(111,36,o),
(111,69,cs),
(111,102,o),
(126,121,o),
(150,121,cs),
(174,121,o),
(187,102,o),
(187,69,cs),
(187,36,o),
(174,17,o),
(150,17,cs)
);
}
);
width = 666;
},
{
anchors = (
{
name = bottom;
pos = (602,0);
},
{
name = top;
pos = (612,536);
}
);
layerId = "2C876074-2AE3-4D36-A7C1-2DCA66F9377D";
shapes = (
{
closed = 1;
nodes = (
(209,-10,o),
(237,27,o),
(237,81,cs),
(237,139,o),
(208,176,o),
(167,176,cs),
(155,176,o),
(143,172,o),
(136,164,c),
(153,156,l),
(153,213,ls),
(153,280,o),
(175,313,o),
(222,318,c),
(225,322,o),
(228,330,o),
(228,337,cs),
(228,346,o),
(222,353,o),
(212,360,cs),
(146,408,l),
(146,478,o),
(177,516,o),
(232,516,cs),
(291,516,o),
(323,469,o),
(323,372,cs),
(323,68,ls),
(323,49,o),
(317,40,o),
(302,40,cs),
(295,40,l),
(295,0,l),
(501,0,ls),
(573,0,o),
(612,24,o),
(612,122,cs),
(612,552,l),
(570,552,l),
(530,494,l),
(530,112,ls),
(530,58,o),
(513,42,o),
(472,42,cs),
(403,42,l),
(403,383,ls),
(403,499,o),
(342,558,o),
(233,558,cs),
(132,558,o),
(63,507,o),
(63,423,cs),
(63,410,o),
(64,395,o),
(67,379,c),
(149,348,l),
(149,345,l),
(97,327,o),
(72,287,o),
(72,216,cs),
(72,94,ls),
(72,25,o),
(101,-10,o),
(156,-10,cs)
);
},
{
closed = 1;
nodes = (
(132,30,o),
(121,51,o),
(121,82,cs),
(121,113,o),
(132,134,o),
(158,134,cs),
(185,134,o),
(196,113,o),
(196,81,cs),
(196,50,o),
(186,30,o),
(159,30,cs)
);
}
);
userData = {
RMXScaler = {
width = 76;
};
};
width = 681;
},
{
anchors = (
{
name = bottom;
pos = (694,0);
},
{
name = top;
pos = (704,536);
}
);
layerId = "3CAB0083-C9A5-4E42-9C5D-0009229A2EB9";
shapes = (
{
closed = 1;
nodes = (
(218,-11,o),
(257,26,o),
(257,89,cs),
(257,151,o),
(225,181,o),
(200,181,cs),
(187,181,o),
(185,179,o),
(178,174,c),
(202,158,l),
(202,213,ls),
(202,287,o),
(221,314,o),
(262,314,c),
(268,320,o),
(271,329,o),
(271,339,cs),
(271,355,o),
(260,363,o),
(238,377,cs),
(197,403,l),
(198,474,o),
(215,509,o),
(255,509,cs),
(288,509,o),
(309,477,o),
(309,383,cs),
(309,81,ls),
(309,57,o),
(301,46,o),
(282,46,cs),
(273,46,l),
(273,0,l),
(577,0,ls),
(680,0,o),
(705,44,o),
(705,133,cs),
(705,552,l),
(594,552,l),
(543,483,l),
(543,112,ls),
(543,71,o),
(534,49,o),
(505,49,cs),
(462,49,l),
(462,376,ls),
(462,500,o),
(384,561,o),
(257,561,cs),
(133,561,o),
(38,507,o),
(38,421,cs),
(38,411,o),
(39,399,o),
(42,379,c),
(128,348,l),
(128,344,l),
(72,321,o),
(48,283,o),
(48,216,cs),
(48,117,ls),
(48,34,o),
(89,-11,o),
(168,-11,cs)
);
},
{
closed = 1;
nodes = (
(147,39,o),
(135,58,o),
(135,89,cs),
(135,120,o),
(147,138,o),
(174,138,cs),
(199,138,o),
(211,120,o),
(211,88,cs),
(211,57,o),
(200,39,o),
(174,39,cs)
);
}
);
width = 749;
},
{
anchors = (
{
name = bottom;
pos = (664,0);
},
{
name = top;
pos = (675,536);
}
);
layerId = "1A87246E-116E-4BF6-B440-8206DB76EC4A";
shapes = (
{
closed = 1;
nodes = (
(214,-10,o),
(249,26,o),
(249,85,cs),
(249,145,o),
(217,177,o),
(186,177,cs),
(173,177,o),
(167,174,o),
(160,168,c),
(180,156,l),
(180,214,ls),
(180,285,o),
(201,314,o),
(245,316,c),
(250,321,o),
(253,329,o),
(253,338,cs),
(253,352,o),
(244,359,o),
(227,370,cs),
(174,404,l),
(174,476,o),
(198,512,o),
(247,512,cs),
(293,512,o),
(319,475,o),
(319,379,cs),
(319,76,ls),
(319,53,o),
(312,42,o),
(294,42,cs),
(286,42,l),
(286,0,l),
(553,0,ls),
(644,0,o),
(675,37,o),
(675,129,cs),
(675,552,l),
(593,552,l),
(547,489,l),
(547,112,ls),
(547,65,o),
(534,45,o),
(499,45,cs),
(441,45,l),
(441,379,ls),
(441,499,o),
(369,559,o),
(248,559,cs),
(132,559,o),
(47,507,o),
(47,421,cs),
(47,410,o),
(48,397,o),
(51,379,c),
(137,348,l),
(137,344,l),
(82,323,o),
(57,285,o),
(57,216,cs),
(57,107,ls),
(57,30,o),
(93,-10,o),
(163,-10,cs)
);
},
{
closed = 1;
nodes = (
(140,35,o),
(128,54,o),
(128,85,cs),
(128,117,o),
(140,136,o),
(167,136,cs),
(193,136,o),
(205,117,o),
(205,85,cs),
(205,53,o),
(194,35,o),
(167,35,cs)
);
}
);
width = 729;
}
);
},
{
glyphname = "khoKhai-thai";
lastChange = "2020-01-23 22:17:12 +0000";
layers = (
{
anchors = (
{
name = bottom;
pos = (460,0);
},
{
name = top;
pos = (470,536);
}
);
layerId = "CAA0A3A7-F9A4-46B2-91A1-CB381E1B2EFA";
shapes = (
{
closed = 1;
nodes = (
(417,-10,o),
(470,23,o),
(470,119,cs),
(470,552,l),
(437,552,l),
(388,494,l),
(388,115,ls),
(388,55,o),
(364,32,o),
(303,32,cs),
(240,32,o),
(219,56,o),
(219,110,cs),
(219,244,l),
(286,282,o),
(323,346,o),
(323,412,cs),
(323,495,o),
(264,557,o),
(172,557,cs),
(86,557,o),
(23,504,o),
(23,420,cs),
(23,359,o),
(58,317,o),
(116,317,cs),
(171,317,o),
(200,352,o),
(200,397,cs),
(200,445,o),
(167,473,o),
(122,473,cs),
(101,473,o),
(87,467,o),
(75,457,c),
(70,460,l),
(80,488,o),
(113,518,o),
(162,518,cs),
(214,518,o),
(257,484,o),
(257,416,cs),
(257,340,o),
(201,295,o),
(135,270,c),
(135,114,ls),
(135,16,o),
(200,-10,o),
(304,-10,cs)
);
},
{
closed = 1;
nodes = (
(94,355,o),
(78,371,o),
(78,395,cs),
(78,419,o),
(94,435,o),
(118,435,cs),
(142,435,o),
(158,419,o),
(158,395,cs),
(158,371,o),
(142,355,o),
(118,355,cs)
);
}
);
width = 565;
},
{
anchors = (
{
name = bottom;
pos = (572,0);
},
{
name = top;
pos = (572,536);
}
);
layerId = "22BDAFBE-6308-4010-9D0C-693FDF26AFAA";
shapes = (
{
closed = 1;
nodes = (
(487,-12,o),
(572,32,o),
(572,137,cs),
(572,552,l),
(455,552,l),
(392,479,l),
(392,104,ls),
(392,58,o),
(378,41,o),
(336,41,cs),
(294,41,o),
(280,58,o),
(280,104,cs),
(280,256,l),
(337,296,o),
(364,340,o),
(364,403,cs),
(364,505,o),
(294,562,o),
(183,562,cs),
(77,562,o),
(10,510,o),
(10,422,cs),
(10,359,o),
(44,314,o),
(113,314,cs),
(173,314,o),
(213,349,o),
(213,408,cs),
(213,450,o),
(193,476,o),
(165,487,cs),
(156,491,o),
(147,493,o),
(138,494,c),
(136,498,l),
(143,506,o),
(159,512,o),
(178,512,cs),
(221,512,o),
(253,478,o),
(253,413,cs),
(253,321,o),
(189,277,o),
(100,274,c),
(100,132,ls),
(100,44,o),
(156,-12,o),
(336,-12,cs)
);
},
{
closed = 1;
nodes = (
(81,358,o),
(66,376,o),
(66,405,cs),
(66,434,o),
(81,452,o),
(112,452,cs),
(143,452,o),
(158,434,o),
(158,405,cs),
(158,376,o),
(143,358,o),
(112,358,cs)
);
}
);
width = 630;
},
{
anchors = (
{
name = bottom;
pos = (394,0);
},
{
name = top;
pos = (404,536);
}
);
layerId = "2AF6F853-87AC-417E-A249-876B8C389FCE";
shapes = (
{
closed = 1;
nodes = (
(354,-10,o),
(404,34,o),
(404,114,cs),
(404,548,l),
(396,548,l),
(376,523,l),
(376,114,ls),
(376,49,o),
(336,14,o),
(273,14,cs),
(210,14,o),
(170,49,o),
(170,114,cs),
(170,248,l),
(235,281,o),
(292,343,o),
(292,425,cs),
(292,500,o),
(245,552,o),
(158,552,cs),
(74,552,o),
(30,503,o),
(30,425,cs),
(30,362,o),
(58,327,o),
(110,327,cs),
(155,327,o),
(183,354,o),
(183,397,cs),
(183,435,o),
(161,464,o),
(114,464,cs),
(95,464,o),
(66,459,o),
(56,429,c),
(53,430,l),
(53,472,o),
(82,527,o),
(159,527,cs),
(219,527,o),
(264,493,o),
(264,424,cs),
(264,355,o),
(219,298,o),
(142,264,c),
(142,114,ls),
(142,34,o),
(192,-10,o),
(273,-10,cs)
);
},
{
closed = 1;
nodes = (
(85,348,o),
(68,365,o),
(68,395,cs),
(68,425,o),
(85,442,o),
(112,442,cs),
(139,442,o),
(157,425,o),
(157,395,cs),
(157,365,o),
(139,348,o),
(112,348,cs)
);
}
);
width = 506;
},
{
anchors = (
{
name = bottom;
pos = (520,0);
},
{
name = top;
pos = (524,536);
}
);
layerId = "B641F77A-82CB-48D8-9AD6-887D7864CC63";
shapes = (
{
closed = 1;
nodes = (
(454,-11,o),
(524,28,o),
(524,129,cs),
(524,552,l),
(447,552,l),
(390,486,l),
(390,109,ls),
(390,57,o),
(371,37,o),
(321,37,cs),
(269,37,o),
(251,57,o),
(251,107,cs),
(251,250,l),
(313,289,o),
(345,343,o),
(345,407,cs),
(345,500,o),
(280,560,o),
(178,560,cs),
(81,560,o),
(16,507,o),
(16,421,cs),
(16,359,o),
(50,315,o),
(114,315,cs),
(172,315,o),
(207,350,o),
(207,403,cs),
(207,448,o),
(181,475,o),
(145,480,cs),
(130,483,o),
(119,481,o),
(108,477,c),
(105,480,l),
(113,498,o),
(137,515,o),
(170,515,cs),
(218,515,o),
(255,481,o),
(255,414,cs),
(255,330,o),
(195,285,o),
(116,272,c),
(116,124,ls),
(116,31,o),
(176,-11,o),
(321,-11,cs)
);
},
{
closed = 1;
nodes = (
(87,357,o),
(72,374,o),
(72,400,cs),
(72,427,o),
(87,444,o),
(115,444,cs),
(143,444,o),
(158,426.991,o),
(158,400,cs),
(158,374,o),
(143,357,o),
(115,357,cs)
);
}
);
width = 600;
},
{
anchors = (
{
name = bottom;
pos = (315,0);
},
{
name = top;
pos = (325,536);
}
);
layerId = "8AE4ADC8-9A9B-483B-9DC3-8C129A33EC0D";
shapes = (
{
closed = 1;
nodes = (
(287,-10,o),
(325,34,o),
(325,114,cs),
(325,548,l),
(316,548,l),
(297,523,l),
(297,114,ls),
(297,49,o),
(269,14,o),
(221,14,cs),
(173,14,o),
(145,49,o),
(145,114,cs),
(145,248,l),
(195,281,o),
(236,343,o),
(236,425,cs),
(236,500,o),
(199,552,o),
(132,552,cs),
(68,552,o),
(32,503,o),
(32,425,cs),
(32,362,o),
(56,327,o),
(96,327,cs),
(132,327,o),
(153,354,o),
(153,397,cs),
(153,435,o),
(133,464,o),
(98,464,cs),
(83,464,o),
(63,459,o),
(55,429,c),
(52,430,l),
(54,472,o),
(76,527,o),
(131,527,cs),
(176,527,o),
(210,493,o),
(210,424,cs),
(210,355,o),
(174,298,o),
(117,264,c),
(117,114,ls),
(117,34,o),
(157,-10,o),
(221,-10,cs)
);
},
{
closed = 1;
nodes = (
(76,348,o),
(63,365,o),
(63,395,cs),
(63,425,o),
(76,442,o),
(96,442,cs),
(116,442,o),
(130,425,o),
(130,395,cs),
(130,365,o),
(116,348,o),
(96,348,cs)
);
}
);
width = 412;
},
{
anchors = (
{
name = bottom;
pos = (374,0);
},
{
name = top;
pos = (380,536);
}
);
layerId = "2C876074-2AE3-4D36-A7C1-2DCA66F9377D";
shapes = (
{
closed = 1;
nodes = (
(334,-10,o),
(380,23,o),
(380,119,cs),
(380,552,l),
(340,552,l),
(300,494,l),
(300,115,ls),
(300,55,o),
(283,32,o),
(240,32,cs),
(196,32,o),
(181,56,o),
(181,110,cs),
(181,244,l),
(231,282,o),
(257,346,o),
(257,412,cs),
(257,495,o),
(210,558,o),
(137,558,cs),
(68,558,o),
(19,504,o),
(19,420,cs),
(19,359,o),
(45,317,o),
(91,317,cs),
(134,317,o),
(162,352,o),
(162,397,cs),
(162,445,o),
(136,473,o),
(105,473,cs),
(91,473,o),
(81,467,o),
(72,457,c),
(69,460,l),
(76,488,o),
(98,518,o),
(130,518,cs),
(168,518,o),
(199,484,o),
(199,416,cs),
(199,340,o),
(155,295,o),
(100,270,c),
(100,114,ls),
(100,16,o),
(148,-10,o),
(241,-10,cs)
);
},
{
closed = 1;
nodes = (
(73,355,o),
(61,371,o),
(61,395,cs),
(61,419,o),
(73,435,o),
(93,435,cs),
(112,435,o),
(124,419,o),
(124,395,cs),
(124,371,o),
(112,355,o),
(93,355,cs)
);
}
);
width = 450;
},
{
anchors = (
{
name = bottom;
pos = (477,0);
},
{
name = top;
pos = (476,536);
}
);
layerId = "3CAB0083-C9A5-4E42-9C5D-0009229A2EB9";
shapes = (
{
closed = 1;
nodes = (
(404,-11,o),
(476,28,o),
(476,133,cs),
(476,552,l),
(372,552,l),
(322,483,l),
(322,107,ls),
(322,57,o),
(311,39,o),
(279,39,cs),
(247,39,o),
(237,57,o),
(237,106,cs),
(237,253,l),
(283,292,o),
(304,343,o),
(304,403,cs),
(304,503,o),
(245,561,o),
(155,561,cs),
(68,561,o),
(14,508,o),
(14,421,cs),
(14,359,o),
(41,315,o),
(97,315,cs),
(145,315,o),
(180,349,o),
(180,407,cs),
(180,460,o),
(150,490,o),
(109,490,cs),
(105,490,o),
(101,490,o),
(97,489,c),
(115,471,l),
(116,495,o),
(126,514,o),
(152,514,cs),
(190,514,o),
(210,471,o),
(210,415,cs),
(210,325,o),
(157,281,o),
(83,273,c),
(83,128,ls),
(83,39,o),
(129,-11,o),
(275,-11,cs)
);
},
{
closed = 1;
nodes = (
(71,357,o),
(60,375,o),
(60,402,cs),
(60,430,o),
(72,448,o),
(97,448,cs),
(122,448,o),
(135,430,o),
(135,402,cs),
(135,375,o),
(123,357,o),
(97,357,cs)
);
}
);
width = 526;
},
{
anchors = (
{
name = bottom;
pos = (437,0);
},
{
name = top;
pos = (439.006,536);
}
);
layerId = "1A87246E-116E-4BF6-B440-8206DB76EC4A";
shapes = (
{
closed = 1;
nodes = (
(377,-11,o),
(439,27,o),
(439,127,cs),
(439,552,l),
(362,552,l),
(317,489,l),
(317,110,ls),
(317,56,o),
(302,35,o),
(265,35,cs),
(227,35,o),
(214,56,o),
(214,108,cs),
(214,250,l),
(262,288,o),
(287,344,o),
(287,407,cs),
(287,500,o),
(232,559,o),
(148,559,cs),
(67,559,o),
(15,506,o),
(15,421,cs),
(15,359,o),
(42,316,o),
(95,316,cs),
(141,316,o),
(173,350,o),
(173,403,cs),
(173,453,o),
(145,482,o),
(108,483,cs),
(99,483,o),
(92,481,o),
(86,475,c),
(95,466,l),
(98,492,o),
(113,516,o),
(144,516,cs),
(183,516,o),
(208,477,o),
(208,416,cs),
(208,332,o),
(158,287,o),
(91,271,c),
(91,123,ls),
(91,31,o),
(138,-11,o),
(263,-11,cs)
);
},
{
closed = 1;
nodes = (
(71,356,o),
(59,373,o),
(59,399,cs),
(59,426,o),
(71,444,o),
(95,444,cs),
(118,444,o),
(131,426,o),
(131,399,cs),
(131,373,o),
(118,356,o),
(95,356,cs)
);
}
);
width = 497;
}
);
note = uni0E02;
unicode = 3586;
},
{
glyphname = "khoKhuat-thai";
lastChange = "2016-11-15 17:20:48 +0000";
layers = (
{
anchors = (
{
name = bottom;
pos = (498,0);
},
{
name = top;
pos = (508,536);
}
);
layerId = "CAA0A3A7-F9A4-46B2-91A1-CB381E1B2EFA";
shapes = (
{
closed = 1;
nodes = (
(455,-10,o),
(508,23,o),
(508,119,cs),
(508,552,l),
(475,552,l),
(426,494,l),
(426,115,ls),
(426,55,o),
(402,32,o),
(341,32,cs),
(278,32,o),
(257,56,o),
(257,110,cs),
(257,236,l),
(324,274,o),
(356,348,o),
(356,414,cs),
(356,479,o),
(324,536,o),
(243,556,c),
(192,508,l),
(139,556,l),
(65,537,o),
(33,471,o),
(33,400,cs),
(33,333,o),
(66,291,o),
(123,291,cs),
(179,291,o),
(208,326,o),
(208,371,cs),
(208,419,o),
(175,447,o),
(130,447,cs),
(109,447,o),
(98,441,o),
(86,431,c),
(81,434,l),
(85,467,o),
(103,496,o),
(131,504,c),
(186,461,l),
(192,461,l),
(245,504,l),
(278,490,o),
(290,459,o),
(290,418,cs),
(290,342,o),
(239,287,o),
(173,262,c),
(173,114,ls),
(173,16,o),
(238,-10,o),
(342,-10,cs)
);
},
{
closed = 1;
nodes = (
(101,329,o),
(84,345,o),
(84,369,cs),
(84,393,o),
(101,409,o),
(125,409,cs),
(149,409,o),
(166,393,o),
(166,369,cs),
(166,345,o),
(149,329,o),
(125,329,cs)
);
}
);
width = 603;
},
{
anchors = (
{
name = bottom;
pos = (589,0);
},
{
name = top;
pos = (589,536);
}
);
layerId = "22BDAFBE-6308-4010-9D0C-693FDF26AFAA";
shapes = (
{
closed = 1;
nodes = (
(504,-12,o),
(589,31,o),
(589,137,cs),
(589,552,l),
(472,552,l),
(409,479,l),
(409,104,ls),
(409,58,o),
(394,41,o),
(352,41,cs),
(309,41,o),
(296,58,o),
(296,104,cs),
(296,247,l),
(359,289,o),
(386,337,o),
(386,405,cs),
(386,486,o),
(349,545,o),
(274,559,c),
(191,495,l),
(111,559,l),
(36,536,o),
(10,463,o),
(10,395,cs),
(10,303,o),
(57,273,o),
(112,273,cs),
(170,273,o),
(210,305,o),
(210,360,cs),
(210,409,o),
(179,442,o),
(133,442,cs),
(122,442,o),
(111,440,o),
(106,439,c),
(103,442,l),
(104,456,o),
(113,478,o),
(128,489,c),
(189,454,l),
(195,454,l),
(247,487,l),
(261,477,o),
(280,452,o),
(280,402,cs),
(280,288,o),
(178,247,o),
(116,238,c),
(116,132,ls),
(116,45,o),
(173,-12,o),
(350,-12,cs)
);
},
{
closed = 1;
nodes = (
(83,313,o),
(68,331,o),
(68,358,cs),
(68,385,o),
(83,403,o),
(113,403,cs),
(143,403,o),
(158,385,o),
(158,358,cs),
(158,331,o),
(143,313,o),
(113,313,cs)
);
}
);
width = 647;
},
{
anchors = (
{
name = bottom;
pos = (422,0);
},
{
name = top;
pos = (432,536);
}
);
layerId = "2AF6F853-87AC-417E-A249-876B8C389FCE";
shapes = (
{
closed = 1;
nodes = (
(382,-10,o),
(432,34,o),
(432,114,cs),
(432,548,l),
(424,548,l),
(404,523,l),
(404,114,ls),
(404,49,o),
(364,14,o),
(301,14,cs),
(238,14,o),
(198,49,o),
(198,114,cs),
(198,264,l),
(264,299,o),
(300,353,o),
(300,424,cs),
(300,492,o),
(267,535,o),
(219,552,c),
(166,505,l),
(113,552,l),
(58,532,o),
(35,484,o),
(35,420,cs),
(35,358,o),
(63,321,o),
(115,321,cs),
(160,321,o),
(188,348,o),
(188,391,cs),
(188,429,o),
(166,458,o),
(119,458,cs),
(100,458,o),
(71,453,o),
(61,423,c),
(58,424,l),
(58,467,o),
(82,516,o),
(113,524,c),
(163,481,l),
(169,481,l),
(217,524,l),
(243,509,o),
(272,486,o),
(272,422,cs),
(272,360,o),
(244,312,o),
(170,278,c),
(170,114,ls),
(170,34,o),
(220,-10,o),
(301,-10,cs)
);
},
{
closed = 1;
nodes = (
(90,342,o),
(73,359,o),
(73,389,cs),
(73,419,o),
(90,436,o),
(117,436,cs),
(144,436,o),
(162,419,o),
(162,389,cs),
(162,359,o),
(144,342,o),
(117,342,cs)
);
}
);
width = 534;
},
{
anchors = (
{
name = bottom;
pos = (546,0);
},
{
name = top;
pos = (551,536);
}
);
layerId = "B641F77A-82CB-48D8-9AD6-887D7864CC63";
shapes = (
{
closed = 1;
nodes = (
(481,-11,o),
(551,27,o),
(551,129,cs),
(551,552,l),
(474,552,l),
(417,486,l),
(417,109,ls),
(417,57,o),
(398,37,o),
(347,37,cs),
(295,37,o),
(278,57,o),
(278,107,cs),
(278,242,l),
(343,282,o),
(372,342,o),
(372,409,cs),
(372,483,o),
(338,541,o),
(260,558,c),
(192,501,l),
(124,558,l),
(50,536,o),
(21,467,o),
(21,397,cs),
(21,317,o),
(61,281,o),
(117,281,cs),
(174,281,o),
(209,315,o),
(209,365,cs),
(209,414,o),
(177,444,o),
(132,444,cs),
(116,444,o),
(105,440,o),
(97,435,c),
(93,438,l),
(95,461,o),
(109,486,o),
(130,496,c),
(187,457,l),
(196,457,l),
(246,495,l),
(269,483,o),
(285,455,o),
(285,409,cs),
(285,313,o),
(207,266,o),
(143,249,c),
(143,124,ls),
(143,31,o),
(204,-11,o),
(347,-11,cs)
);
},
{
closed = 1;
nodes = (
(91,320,o),
(75,338,o),
(75,363,cs),
(75,389,o),
(91,406,o),
(118,406,cs),
(145,406,o),
(161,389,o),
(161,363,cs),
(161,338,o),
(145,320,o),
(118,320,cs)
);
}
);
width = 626;
},
{
anchors = (
{
name = bottom;
pos = (337,0);
},
{
name = top;
pos = (347,536);
}
);
layerId = "8AE4ADC8-9A9B-483B-9DC3-8C129A33EC0D";
shapes = (
{
closed = 1;
nodes = (
(309,-10,o),
(347,34,o),
(347,114,cs),
(347,548,l),
(338,548,l),
(319,523,l),
(319,114,ls),
(319,49,o),
(291,14,o),
(243,14,cs),
(196,14,o),
(167,49,o),
(167,114,cs),
(167,264,l),
(218,299,o),
(245,353,o),
(245,424,cs),
(245,492,o),
(220,535,o),
(179,552,c),
(139,505,l),
(99,552,l),
(55,532,o),
(36,484,o),
(36,420,cs),
(36,358,o),
(59,321,o),
(99,321,cs),
(135,321,o),
(157,348,o),
(157,391,cs),
(157,429,o),
(138,458,o),
(102,458,cs),
(88,458,o),
(67,453,o),
(59,423,c),
(57,424,l),
(57,467,o),
(75,516,o),
(98,524,c),
(135,482,l),
(143,482,l),
(178,524,l),
(199,509,o),
(219,486,o),
(219,422,cs),
(219,360,o),
(194,312,o),
(139,278,c),
(139,114,ls),
(139,34,o),
(179,-10,o),
(244,-10,cs)
);
},
{
closed = 1;
nodes = (
(79,342,o),
(66,359,o),
(66,389,cs),
(66,419,o),
(79,436,o),
(100,436,cs),
(120,436,o),
(133,419,o),
(133,389,cs),
(133,359,o),
(120,342,o),
(100,342,cs)
);
}
);
width = 434;
},
{
anchors = (
{
name = bottom;
pos = (399,0);
},
{
name = top;
pos = (405,536);
}
);
layerId = "2C876074-2AE3-4D36-A7C1-2DCA66F9377D";
shapes = (
{
closed = 1;
nodes = (
(359,-10,o),
(405,23,o),
(405,119,cs),
(405,552,l),
(365,552,l),
(325,494,l),
(325,115,ls),
(325,55,o),
(308,32,o),
(265,32,cs),
(221,32,o),
(207,56,o),
(207,110,cs),
(207,236,l),
(257,274,o),
(280,348,o),
(280,414,cs),
(280,479,o),
(255,536,o),
(195,556,c),
(150,508,l),
(105,556,l),
(48,537,o),
(25,471,o),
(25,400,cs),
(25,333,o),
(52,291,o),
(95,291,cs),
(138,291,o),
(166,326,o),
(166,371,cs),
(166,419,o),
(138,447,o),
(104,447,cs),
(89,447,o),
(81,441,o),
(73,431,c),
(70,434,l),
(72,467,o),
(84,496,o),
(103,504,c),
(146,459,l),
(154,459,l),
(191,504,l),
(212,490,o),
(223,459,o),
(223,418,cs),
(223,342,o),
(175,287,o),
(125,262,c),
(125,114,ls),
(125,16,o),
(173,-10,o),
(266,-10,cs)
);
},
{
closed = 1;
nodes = (
(77,329,o),
(65,345,o),
(65,369,cs),
(65,393,o),
(77,409,o),
(97,409,cs),
(116,409,o),
(128,393,o),
(128,369,cs),
(128,345,o),
(116,329,o),
(97,329,cs)
);
}
);
width = 474;
},
{
anchors = (
{
name = bottom;
pos = (489,0);
},
{
name = top;
pos = (487,536);
}
);
layerId = "3CAB0083-C9A5-4E42-9C5D-0009229A2EB9";
shapes = (
{
closed = 1;
nodes = (
(417,-11,o),
(489,29,o),
(489,133,cs),
(489,552,l),
(385,552,l),
(333,483,l),
(333,107,ls),
(333,57,o),
(322,39,o),
(290,39,cs),
(260,39,o),
(248,57,o),
(248,106,cs),
(248,244,l),
(298,285,o),
(321,340,o),
(321,407,cs),
(321,484,o),
(290,543,o),
(232,558,c),
(162,498,l),
(94,558,l),
(35,536,o),
(14,465,o),
(14,396,cs),
(14,311,o),
(53,277,o),
(97,277,cs),
(143,277,o),
(181,310,o),
(181,363,cs),
(181,412,o),
(152,443,o),
(116,443,cs),
(99,443,o),
(82,440,o),
(69,423,c),
(99,417,l),
(89,451,o),
(97,479,o),
(110,493,c),
(160,456,l),
(165,456,l),
(207,491,l),
(215,480,o),
(232,454,o),
(232,406,cs),
(232,302,o),
(145,257,o),
(96,244,c),
(96,128,ls),
(96,37,o),
(141,-11,o),
(288,-11,cs)
);
},
{
closed = 1;
nodes = (
(74,317,o),
(62,335,o),
(62,361,cs),
(62,387,o),
(74,405,o),
(98,405,cs),
(122,405,o),
(135,387,o),
(135,361,cs),
(135,335,o),
(122,317,o),
(98,317,cs)
);
}
);
width = 539;
},
{
anchors = (
{
name = bottom;
pos = (454,0);
},
{
name = top;
pos = (456,536);
}
);
layerId = "1A87246E-116E-4BF6-B440-8206DB76EC4A";
shapes = (
{
closed = 1;
nodes = (
(395,-11,o),
(457,27,o),
(457,127,cs),
(457,552,l),
(380,552,l),
(334,489,l),
(334,110,ls),
(334,56,o),
(319,35,o),
(281,35,cs),
(245,35,o),
(231,56,o),
(231,108,cs),
(231,243,l),
(282,283,o),
(305,343,o),
(305,410,cs),
(305,483,o),
(276,540,o),
(217,557,c),
(157,502,l),
(97,557,l),
(39,536,o),
(17,468,o),
(17,399,cs),
(17,321,o),
(51,284,o),
(96,284,cs),
(141,284,o),
(175,318,o),
(175,367,cs),
(175,415,o),
(147,445,o),
(111,445,cs),
(94,445,o),
(80,441,o),
(69,426,c),
(85,424,l),
(80,457,o),
(90,487,o),
(106,499,c),
(154,459,l),
(160,459,l),
(201,497,l),
(215,485,o),
(230,458,o),
(230,411,cs),
(230,318,o),
(159,270,o),
(109,252,c),
(109,123,ls),
(109,30,o),
(155,-11,o),
(281,-11,cs)
);
},
{
closed = 1;
nodes = (
(74,322,o),
(62,340,o),
(62,365,cs),
(62,391,o),
(74,408,o),
(97,408,cs),
(120,408,o),
(133,391,o),
(133,365,cs),
(133,340,o),
(120,322,o),
(97,322,cs)
);
}
);
width = 515;
}
);
unicode = 3587;
},
{
glyphname = "choChang-thai";
lastChange = "2016-11-15 17:20:48 +0000";
layers = (
{
anchors = (
{
name = bottom;
pos = (472,0);
},
{
name = top;
pos = (488,534);
}
);
layerId = "CAA0A3A7-F9A4-46B2-91A1-CB381E1B2EFA";
shapes = (
{
closed = 1;
nodes = (
(422,-10,o),
(480,23,o),
(480,119,cs),
(480,331,ls),
(480,369,o),
(461,400,o),
(424,413,c),
(424,416,l),
(479,433,o),
(525,466,o),
(525,530,cs),
(525,574,o),
(497,585,o),
(450,585,c),
(460,520,o),
(434,457,o),
(357,427,c),
(357,404,l),
(383,392,o),
(398,367,o),
(398,327,cs),
(398,115,ls),
(398,55,o),
(369,32,o),
(308,32,cs),
(245,32,o),
(219,56,o),
(219,110,cs),
(219,246,l),
(286,284,o),
(323,348,o),
(323,414,cs),
(323,497,o),
(264,558,o),
(172,558,cs),
(86,558,o),
(23,506,o),
(23,422,cs),
(23,361,o),
(58,319,o),
(116,319,cs),
(171,319,o),
(200,354,o),
(200,399,cs),
(200,447,o),
(167,475,o),
(122,475,cs),
(101,475,o),
(87,469,o),
(75,459,c),
(70,462,l),
(80,490,o),
(113,520,o),
(162,520,cs),
(214,520,o),
(257,486,o),
(257,418,cs),
(257,342,o),
(201,297,o),
(135,272,c),
(135,114,ls),
(135,16,o),
(205,-10,o),
(309,-10,cs)
);
},
{
closed = 1;
nodes = (
(94,357,o),
(78,373,o),
(78,397,cs),
(78,421,o),
(94,437,o),
(118,437,cs),
(142,437,o),
(158,421,o),
(158,397,cs),
(158,373,o),
(142,357,o),
(118,357,cs)
);
}
);
width = 580;
},
{
anchors = (
{
name = bottom;
pos = (572,0);
},
{
name = top;
pos = (578,534);
}
);
layerId = "22BDAFBE-6308-4010-9D0C-693FDF26AFAA";
shapes = (
{
closed = 1;
nodes = (
(487,-12,o),
(572,32,o),
(572,137,cs),
(572,315,ls),
(572,357,o),
(558,396,o),
(508,411,c),
(508,415,l),
(578,442,o),
(616,476,o),
(616,523,cs),
(616,592,o),
(532,613,o),
(433,597,c),
(443,523,o),
(446,447,o),
(351,438,c),
(351,404,l),
(387,391,o),
(392,370,o),
(392,311,cs),
(392,104,ls),
(392,58,o),
(378,41,o),
(336,41,cs),
(294,41,o),
(280,58,o),
(280,104,cs),
(280,256,l),
(337,296,o),
(364,340,o),
(364,403,cs),
(364,505,o),
(294,562,o),
(183,562,cs),
(77,562,o),
(10,510,o),
(10,422,cs),
(10,359,o),
(44,314,o),
(113,314,cs),
(173,314,o),
(213,349,o),
(213,408,cs),
(213,445,o),
(197,470,o),
(173,483,cs),
(163,489,o),
(151,493,o),
(138,494,c),
(136,498,l),
(143,506,o),
(159,512,o),
(178,512,cs),
(221,512,o),
(253,478,o),
(253,413,cs),
(253,321,o),
(189,277,o),
(100,274,c),
(100,137,ls),
(100,49,o),
(156,-12,o),
(336,-12,cs)
);
},
{
closed = 1;
nodes = (
(81,358,o),
(66,376,o),
(66,405,cs),
(66,434,o),
(81,452,o),
(112,452,cs),
(143,452,o),
(158,434,o),
(158,405,cs),
(158,376,o),
(143,358,o),
(112,358,cs)
);
}
);
width = 630;
},
{
anchors = (
{
name = bottom;
pos = (414,0);
},
{
name = top;
pos = (444,536);
}
);
layerId = "2AF6F853-87AC-417E-A249-876B8C389FCE";
shapes = (
{
closed = 1;
nodes = (
(370,-10,o),
(424,39,o),
(424,122,cs),
(424,327,ls),
(424,370,o),
(407,401,o),
(368,418,c),
(368,421,l),
(435,446,o),
(469,492,o),
(469,543,cs),
(469,572,o),
(456,575,o),
(437,575,c),
(450,500,o),
(410,456,o),
(325,428,c),
(325,413,l),
(384,395,o),
(396,366,o),
(396,327,cs),
(396,121,ls),
(396,53,o),
(352,14,o),
(283,14,cs),
(214,14,o),
(170,53,o),
(170,121,cs),
(170,248,l),
(235,281,o),
(292,343,o),
(292,425,cs),
(292,500,o),
(245,552,o),
(158,552,cs),
(74,552,o),
(30,503,o),
(30,425,cs),
(30,362,o),
(58,327,o),
(110,327,cs),
(155,327,o),
(183,354,o),
(183,397,cs),
(183,435,o),
(161,464,o),
(114,464,cs),
(95,464,o),
(66,459,o),
(56,429,c),
(53,430,l),
(53,472,o),
(82,527,o),
(159,527,cs),
(219,527,o),
(264,493,o),
(264,424,cs),
(264,355,o),
(219,298,o),
(142,264,c),
(142,122,ls),
(142,39,o),
(196,-10,o),
(283,-10,cs)
);
},
{
closed = 1;
nodes = (
(85,348,o),
(68,365,o),
(68,395,cs),
(68,425,o),
(85,442,o),
(112,442,cs),
(139,442,o),
(157,425,o),
(157,395,cs),
(157,365,o),
(139,348,o),
(112,348,cs)
);
}
);
width = 540;
},
{
anchors = (
{
name = bottom;
pos = (525,0);
},
{
name = top;
pos = (536,534);
}
);
layerId = "B641F77A-82CB-48D8-9AD6-887D7864CC63";
shapes = (
{
closed = 1;
nodes = (
(457,-11,o),
(529,28,o),
(529,129,cs),
(529,322,ls),
(529,363,o),
(513,398,o),
(469,412,c),
(469,415,l),
(532,438,o),
(573,471,o),
(573,526,cs),
(573,584,o),
(516,600,o),
(441,591,c),
(451,522,o),
(440,452,o),
(364,433,c),
(364,404,l),
(385,391,o),
(395,369,o),
(395,318,cs),
(395,109,ls),
(395,57,o),
(374,37,o),
(323,37,cs),
(271,37,o),
(251,57,o),
(251,107,cs),
(251,251,l),
(313,290,o),
(345,344,o),
(345,408,cs),
(345,501,o),
(280,561,o),
(178,561,cs),
(81,561,o),
(16,508,o),
(16,422,cs),
(16,360,o),
(50,316,o),
(114,316,cs),
(172,316,o),
(207,351,o),
(207,404,cs),
(207,446,o),
(183,472,o),
(149,479,cs),
(134,482,o),
(121,482,o),
(108,478,c),
(105,481,l),
(113,499,o),
(137,516,o),
(170,516,cs),
(218,516,o),
(255,482,o),
(255,415,cs),
(255,331,o),
(195,286,o),
(116,273,c),
(116,126,ls),
(116,34,o),
(179,-11,o),
(323,-11,cs)
);
},
{
closed = 1;
nodes = (
(87,358,o),
(72,375,o),
(72,401,cs),
(72,428,o),
(87,445,o),
(115,445,cs),
(143,445,o),
(158,428,o),
(158,401,cs),
(158,375,o),
(143,358,o),
(115,358,cs)
);
}
);
width = 607;
},
{
anchors = (
{
name = bottom;
pos = (329,0);
},
{
name = top;
pos = (339,536);
}
);
layerId = "8AE4ADC8-9A9B-483B-9DC3-8C129A33EC0D";
shapes = (
{
closed = 1;
nodes = (
(298,-10,o),
(339,39,o),
(339,122,cs),
(339,327,ls),
(339,370,o),
(326,401,o),
(297,418,c),
(297,421,l),
(346,446,o),
(373,492,o),
(373,543,cs),
(373,572,o),
(362,575,o),
(344,575,c),
(353,500,o),
(325,456,o),
(261,428,c),
(261,413,l),
(302,395,o),
(311,366,o),
(311,327,cs),
(311,121,ls),
(311,53,o),
(280,14,o),
(228,14,cs),
(177,14,o),
(145,53,o),
(145,121,cs),
(145,248,l),
(195,281,o),
(236,343,o),
(236,425,cs),
(236,500,o),
(199,552,o),
(132,552,cs),
(68,552,o),
(32,503,o),
(32,425,cs),
(32,362,o),
(54,327,o),
(94,327,cs),
(130,327,o),
(151,354,o),
(151,397,cs),
(151,435,o),
(133,464,o),
(98,464,cs),
(83,464,o),
(63,459,o),
(55,429,c),
(52,430,l),
(54,472,o),
(76,527,o),
(131,527,cs),
(176,527,o),
(210,493,o),
(210,424,cs),
(210,355,o),
(174,298,o),
(117,264,c),
(117,122,ls),
(117,39,o),
(160,-10,o),
(228,-10,cs)
);
},
{
closed = 1;
nodes = (
(76,348,o),
(63,365,o),
(63,395,cs),
(63,425,o),
(76,442,o),
(96,442,cs),
(116,442,o),
(130,425,o),
(130,395,cs),
(130,365,o),
(116,348,o),
(96,348,cs)
);
}
);
width = 435;
},
{
anchors = (
{
name = bottom;
pos = (381,0);
},
{
name = top;
pos = (391,536);
}
);
layerId = "2C876074-2AE3-4D36-A7C1-2DCA66F9377D";
shapes = (
{
closed = 1;
nodes = (
(337,-10,o),
(386,23,o),
(386,119,cs),
(386,331,ls),
(386,369,o),
(372,400,o),
(342,413,c),
(342,416,l),
(386,433,o),
(420,466,o),
(420,530,cs),
(420,574,o),
(388,585,o),
(343,585,c),
(350,520,o),
(336,457,o),
(274,427,c),
(274,404,l),
(296,392,o),
(305,367,o),
(305,327,cs),
(305,115,ls),
(305,55,o),
(286,32,o),
(243,32,cs),
(199,32,o),
(181,56,o),
(181,110,cs),
(181,246,l),
(231,284,o),
(257,348,o),
(257,414,cs),
(257,497,o),
(210,558,o),
(137,558,cs),
(68,558,o),
(19,506,o),
(19,422,cs),
(19,361,o),
(45,319,o),
(91,319,cs),
(134,319,o),
(162,354,o),
(162,399,cs),
(162,447,o),
(136,475,o),
(106,475,cs),
(92,475,o),
(82,469,o),
(72,459,c),
(69,462,l),
(76,490,o),
(98,520,o),
(130,520,cs),
(168,520,o),
(199,486,o),
(199,418,cs),
(199,342,o),
(155,297,o),
(100,272,c),
(100,114,ls),
(100,16,o),
(151,-10,o),
(244,-10,cs)
);
},
{
closed = 1;
nodes = (
(73,357,o),
(61,373,o),
(61,397,cs),
(61,421,o),
(73,437,o),
(93,437,cs),
(112,437,o),
(124,421,o),
(124,397,cs),
(124,373,o),
(112,357,o),
(93,357,cs)
);
}
);
width = 459;
},
{
anchors = (
{
name = bottom;
pos = (476,0);
},
{
name = top;
pos = (479,534);
}
);
layerId = "3CAB0083-C9A5-4E42-9C5D-0009229A2EB9";
shapes = (
{
closed = 1;
nodes = (
(404,-11,o),
(475,30,o),
(475,133,cs),
(475,319,ls),
(475,360,o),
(462,397,o),
(423,412,c),
(423,415,l),
(480,440,o),
(510,473,o),
(510,525,cs),
(510,588,o),
(436,606,o),
(352,594,c),
(360,522,o),
(366,450,o),
(286,435,c),
(286,404,l),
(318,391,o),
(326,369,o),
(326,315,cs),
(325,107,ls),
(325,57,o),
(317,39,o),
(282,39,cs),
(247,39,o),
(237,57,o),
(237,106,cs),
(237,253,l),
(283,292,o),
(299,343,o),
(299,403,cs),
(299,503,o),
(245,561,o),
(155,561,cs),
(68,561,o),
(14,508,o),
(14,421,cs),
(14,359,o),
(41,315,o),
(97,315,cs),
(145,315,o),
(180,349,o),
(180,407,cs),
(180,460,o),
(150,490,o),
(109,490,cs),
(105,490,o),
(101,490,o),
(97,489,c),
(115,471,l),
(116,495,o),
(126,514,o),
(152,514,cs),
(190,514,o),
(210,471,o),
(210,415,cs),
(210,325,o),
(157,281,o),
(83,273,c),
(83,131,ls),
(83,41,o),
(127,-11,o),
(279,-11,cs)
);
},
{
closed = 1;
nodes = (
(71,357,o),
(60,375,o),
(60,402,cs),
(60,430,o),
(72,448,o),
(97,448,cs),
(122,448,o),
(135,430,o),
(135,402,cs),
(135,375,o),
(123,357,o),
(97,357,cs)
);
}
);
width = 525;
},
{
anchors = (
{
name = bottom;
pos = (440,0);
},
{
name = top;
pos = (446,535);
}
);
layerId = "1A87246E-116E-4BF6-B440-8206DB76EC4A";
shapes = (
{
closed = 1;
nodes = (
(379,-11,o),
(442,28,o),
(442,128,cs),
(442,323,ls),
(442,364,o),
(428,398,o),
(392,413,c),
(392,416,l),
(445,438,o),
(477,472,o),
(477,528,cs),
(477,583,o),
(421,597,o),
(353,590,c),
(361,520,o),
(358,453,o),
(285,432,c),
(285,405,l),
(314,392,o),
(318,368,o),
(318,320,cs),
(318,110,ls),
(318,56,o),
(304,35,o),
(266,35,cs),
(228,35,o),
(214,56,o),
(214,108,cs),
(214,250,l),
(262,289,o),
(287,345,o),
(287,408,cs),
(287,501,o),
(232,560,o),
(148,560,cs),
(67,560,o),
(15,507,o),
(15,422,cs),
(15,360,o),
(42,317,o),
(94,317,cs),
(141,317,o),
(173,351,o),
(173,404,cs),
(173,454,o),
(145,483,o),
(108,483,cs),
(100,483,o),
(93,481,o),
(86,475,c),
(95,466,l),
(98,492,o),
(113,517,o),
(144,517,cs),
(183,517,o),
(208,478,o),
(208,416,cs),
(208,332,o),
(158,287,o),
(91,272,c),
(91,120,ls),
(91,28,o),
(138,-11,o),
(267,-11,cs)
);
},
{
closed = 1;
nodes = (
(71,356,o),
(59,374,o),
(59,400,cs),
(59,427,o),
(71,444,o),
(95,444,cs),
(118,444,o),
(131,427,o),
(131,400,cs),
(131,374,o),
(118,356,o),
(95,356,cs)
);
}
);
width = 501;
}
);
unicode = 3594;
},
{
glyphname = "soSo-thai";
lastChange = "2020-01-23 22:17:12 +0000";
layers = (
{
anchors = (
{
name = bottom;
pos = (496,0);
},
{
name = top;
pos = (508,536);
}
);
layerId = "CAA0A3A7-F9A4-46B2-91A1-CB381E1B2EFA";
shapes = (
{
closed = 1;
nodes = (
(457,-10,o),
(508,25,o),
(508,123,cs),
(508,331,ls),
(508,368,o),
(490,399,o),
(454,413,c),
(454,417,l),
(513,435,o),
(553,472,o),
(553,531,cs),
(553,570,o),
(535,585,o),
(478,585,c),
(478,520,o),
(462,457,o),
(385,427,c),
(385,404,l),
(411,392,o),
(426,367,o),
(426,327,cs),
(426,119,ls),
(426,57,o),
(403,32,o),
(338,32,cs),
(280,32,o),
(257,52,o),
(257,114,cs),
(257,236,l),
(324,274,o),
(356,348,o),
(356,414,cs),
(356,479,o),
(324,536,o),
(243,556,c),
(192,508,l),
(139,556,l),
(65,537,o),
(33,471,o),
(33,400,cs),
(33,333,o),
(66,291,o),
(123,291,cs),
(179,291,o),
(208,326,o),
(208,371,cs),
(208,419,o),
(175,447,o),
(130,447,cs),
(109,447,o),
(98,441,o),
(86,431,c),
(81,434,l),
(85,467,o),
(103,496,o),
(131,504,c),
(186,461,l),
(192,461,l),
(245,504,l),
(278,490,o),
(290,459,o),
(290,418,cs),
(290,342,o),
(239,287,o),
(173,262,c),
(173,118,ls),
(173,25,o),
(221,-10,o),
(339,-10,cs)
);
},
{
closed = 1;
nodes = (
(101,329,o),
(84,345,o),
(84,369,cs),
(84,393,o),
(101,409,o),
(125,409,cs),
(149,409,o),
(166,393,o),
(166,369,cs),
(166,345,o),
(149,329,o),
(125,329,cs)
);
}
);
width = 608;
},
{
anchors = (
{
name = bottom;
pos = (589,0);
},
{
name = top;
pos = (591,536);
}
);
layerId = "22BDAFBE-6308-4010-9D0C-693FDF26AFAA";
shapes = (
{
closed = 1;
nodes = (
(504,-12,o),
(589,32,o),
(589,137,cs),
(589,315,ls),
(589,357,o),
(575,396,o),
(525,411,c),
(525,415,l),
(595,442,o),
(633,476,o),
(633,523,cs),
(633,592,o),
(549,613,o),
(450,597,c),
(470,503,o),
(433,447,o),
(368,438,c),
(368,404,l),
(404,391,o),
(409,370,o),
(409,311,cs),
(409,104,ls),
(409,58,o),
(395,41,o),
(353,41,cs),
(311,41,o),
(297,58,o),
(297,104,cs),
(297,247,l),
(360,289,o),
(387,337,o),
(387,405,cs),
(387,486,o),
(350,545,o),
(275,559,c),
(192,495,l),
(112,559,l),
(37,536,o),
(11,463,o),
(11,395,cs),
(11,303,o),
(58,273,o),
(113,273,cs),
(171,273,o),
(211,305,o),
(211,360,cs),
(211,409,o),
(180,442,o),
(134,442,cs),
(123,442,o),
(112,440,o),
(107,439,c),
(104,442,l),
(105,456,o),
(114,478,o),
(129,489,c),
(190,454,l),
(196,454,l),
(248,487,l),
(262,477,o),
(281,452,o),
(281,402,cs),
(281,288,o),
(179,247,o),
(117,238,c),
(117,137,ls),
(117,49,o),
(173,-12,o),
(353,-12,cs)
);
},
{
closed = 1;
nodes = (
(84,313,o),
(69,331,o),
(69,358,cs),
(69,385,o),
(84,403,o),
(114,403,cs),
(144,403,o),
(159,385,o),
(159,358,cs),
(159,331,o),
(144,313,o),
(114,313,cs)
);
}
);
width = 647;
},
{
anchors = (
{
name = bottom;
pos = (414,0);
},
{
name = top;
pos = (443,536);
}
);
layerId = "2AF6F853-87AC-417E-A249-876B8C389FCE";
shapes = (
{
closed = 1;
nodes = (
(374,-10,o),
(424,39,o),
(424,122,cs),
(424,327,ls),
(424,370,o),
(407,401,o),
(368,418,c),
(368,421,l),
(435,446,o),
(469,493,o),
(469,541,cs),
(469,572,o),
(457,575,o),
(437,575,c),
(450,500,o),
(410,456,o),
(325,428,c),
(325,413,l),
(384,395,o),
(396,366,o),
(396,327,cs),
(396,121,ls),
(396,53,o),
(356,14,o),
(283,14,cs),
(210,14,o),
(170,53,o),
(170,121,cs),
(170,252,l),
(259,295,o),
(295,353,o),
(295,424,cs),
(295,492,o),
(262,535,o),
(214,552,c),
(161,505,l),
(108,552,l),
(53,532,o),
(30,484,o),
(30,420,cs),
(30,358,o),
(58,321,o),
(110,321,cs),
(155,321,o),
(183,348,o),
(183,391,cs),
(183,429,o),
(161,458,o),
(114,458,cs),
(95,458,o),
(66,453,o),
(56,423,c),
(53,424,l),
(53,467,o),
(77,516,o),
(108,524,c),
(158,481,l),
(164,481,l),
(212,524,l),
(238,509,o),
(267,486,o),
(267,422,cs),
(267,360,o),
(239,312,o),
(142,268,c),
(142,122,ls),
(142,39,o),
(192,-10,o),
(283,-10,cs)
);
},
{
closed = 1;
nodes = (
(85,342,o),
(68,359,o),
(68,389,cs),
(68,419,o),
(85,436,o),
(112,436,cs),
(139,436,o),
(157,419,o),
(157,389,cs),
(157,359,o),
(139,342,o),
(112,342,cs)
);
}
);
width = 506;
},
{
anchors = (
{
name = bottom;
pos = (546,0);
},
{
name = top;
pos = (552,536);
}
);
layerId = "B641F77A-82CB-48D8-9AD6-887D7864CC63";
shapes = (
{
closed = 1;
nodes = (
(482,-11,o),
(551,29,o),
(551,130,cs),
(551,322,ls),
(551,362,o),
(536,397,o),
(492,412,c),
(492,416,l),
(557,439,o),
(596,474,o),
(596,527,cs),
(596,582,o),
(543,600,o),
(463,591,c),
(474,511,o),
(447,452,o),
(386,433,c),
(386,404,l),
(408,391,o),
(417,369,o),
(417,318,cs),
(417,111,ls),
(417,58,o),
(399,37,o),
(346,37,cs),
(297,37,o),
(279,55,o),
(279,109,cs),
(279,242,l),
(338,282,o),
(366,342,o),
(366,409,cs),
(366,483,o),
(332,541,o),
(260,558,c),
(192,501,l),
(124,558,l),
(50,536,o),
(21,467,o),
(21,397,cs),
(21,317,o),
(61,281,o),
(117,281,cs),
(174,281,o),
(209,315,o),
(209,365,cs),
(209,414,o),
(177,444,o),
(132,444,cs),
(116,444,o),
(105,440,o),
(97,435,c),
(93,438,l),
(95,461,o),
(109,486,o),
(130,496,c),
(187,457,l),
(196,457,l),
(246,495,l),
(263,483,o),
(279,455,o),
(279,409,cs),
(279,313,o),
(207,266,o),
(143,249,c),
(143,128,ls),
(143,38,o),
(196,-11,o),
(347,-11,cs)
);
},
{
closed = 1;
nodes = (
(91,320,o),
(75,338,o),
(75,363,cs),
(75,389,o),
(91,406,o),
(118,406,cs),
(145,406,o),
(161,389,o),
(161,363,cs),
(161,338,o),
(145,320,o),
(118,320,cs)
);
}
);
width = 629;
},
{
anchors = (
{
name = bottom;
pos = (333,0);
},
{
name = top;
pos = (343,536);
}
);
layerId = "8AE4ADC8-9A9B-483B-9DC3-8C129A33EC0D";
shapes = (
{
closed = 1;
nodes = (
(304,-10,o),
(343,39,o),
(343,122,cs),
(343,327,ls),
(343,370,o),
(329,401,o),
(300,418,c),
(300,421,l),
(350,446,o),
(377,493,o),
(377,541,cs),
(377,572,o),
(367,575,o),
(347,575,c),
(355,500,o),
(328,456,o),
(264,428,c),
(264,413,l),
(305,395,o),
(315,366,o),
(315,327,cs),
(315,121,ls),
(315,53,o),
(286,14,o),
(232,14,cs),
(178,14,o),
(150,53,o),
(150,121,cs),
(150,264,l),
(201,299,o),
(228,353,o),
(228,424,cs),
(228,492,o),
(203,535,o),
(162,552,c),
(122,505,l),
(82,552,l),
(38,532,o),
(19,484,o),
(19,420,cs),
(19,358,o),
(42,321,o),
(82,321,cs),
(118,321,o),
(140,348,o),
(140,391,cs),
(140,429,o),
(121,458,o),
(85,458,cs),
(71,458,o),
(50,453,o),
(42,423,c),
(40,424,l),
(40,467,o),
(58,516,o),
(81,524,c),
(118,482,l),
(126,482,l),
(161,524,l),
(182,509,o),
(202,486,o),
(202,422,cs),
(202,360,o),
(177,312,o),
(122,278,c),
(122,122,ls),
(122,39,o),
(159,-10,o),
(232,-10,cs)
);
},
{
closed = 1;
nodes = (
(62,342,o),
(49,359,o),
(49,389,cs),
(49,419,o),
(62,436,o),
(83,436,cs),
(103,436,o),
(116,419,o),
(116,389,cs),
(116,359,o),
(103,342,o),
(83,342,cs)
);
}
);
width = 417;
},
{
anchors = (
{
name = bottom;
pos = (398,0);
},
{
name = top;
pos = (405,536);
}
);
layerId = "2C876074-2AE3-4D36-A7C1-2DCA66F9377D";
shapes = (
{
closed = 1;
nodes = (
(360,-10,o),
(405,25,o),
(405,123,cs),
(405,331,ls),
(405,368,o),
(392,399,o),
(362,413,c),
(362,417,l),
(409,435,o),
(439,472,o),
(439,531,cs),
(439,570,o),
(413,585,o),
(362,585,c),
(366,520,o),
(350,457,o),
(294,427,c),
(294,404,l),
(315,392,o),
(325,367,o),
(325,327,cs),
(325,119,ls),
(325,57,o),
(309,32,o),
(264,32,cs),
(223,32,o),
(207,52,o),
(207,114,cs),
(207,236,l),
(257,274,o),
(280,348,o),
(280,414,cs),
(280,479,o),
(255,536,o),
(195,556,c),
(150,508,l),
(105,556,l),
(48,537,o),
(25,471,o),
(25,400,cs),
(25,333,o),
(52,291,o),
(95,291,cs),
(138,291,o),
(166,326,o),
(166,371,cs),
(166,419,o),
(138,447,o),
(104,447,cs),
(89,447,o),
(81,441,o),
(73,431,c),
(70,434,l),
(72,467,o),
(84,496,o),
(103,504,c),
(146,459,l),
(154,459,l),
(191,504,l),
(212,490,o),
(223,459,o),
(223,418,cs),
(223,342,o),
(175,287,o),
(125,262,c),
(125,118,ls),
(125,25,o),
(163,-10,o),
(264,-10,cs)
);
},
{
closed = 1;
nodes = (
(77,329,o),
(65,345,o),
(65,369,cs),
(65,393,o),
(77,409,o),
(97,409,cs),
(116,409,o),
(128,393,o),
(128,369,cs),
(128,345,o),
(116,329,o),
(97,329,cs)
);
}
);
width = 477;
},
{
anchors = (
{
name = bottom;
pos = (489,0);
},
{
name = top;
pos = (490,536);
}
);
layerId = "3CAB0083-C9A5-4E42-9C5D-0009229A2EB9";
shapes = (
{
closed = 1;
nodes = (
(416,-11,o),
(487,30,o),
(487,133,cs),
(487,319,ls),
(487,360,o),
(477,397,o),
(435,412,c),
(435,416,l),
(491,440,o),
(523,475,o),
(523,525,cs),
(523,587,o),
(447,606,o),
(365,594,c),
(383,507,o),
(350,450,o),
(297,435,c),
(297,404,l),
(330,391,o),
(339,369,o),
(339,315,cs),
(339,108,ls),
(339,58,o),
(329,39,o),
(295,39,cs),
(259,39,o),
(249,56,o),
(249,107,cs),
(249,244,l),
(298,285,o),
(327,340,o),
(321,407,cs),
(314,484,o),
(290,543,o),
(232,558,c),
(162,498,l),
(94,558,l),
(35,536,o),
(14,465,o),
(14,396,cs),
(14,311,o),
(53,277,o),
(97,277,cs),
(143,277,o),
(181,310,o),
(181,363,cs),
(181,412,o),
(152,443,o),
(116,443,cs),
(99,443,o),
(82,440,o),
(69,423,c),
(99,417,l),
(89,451,o),
(97,479,o),
(110,493,c),
(160,456,l),
(165,456,l),
(207,491,l),
(215,480,o),
(232,454,o),
(232,406,cs),
(232,302,o),
(145,257,o),
(96,244,c),
(96,132,ls),
(96,43,o),
(141,-11,o),
(290,-11,cs)
);
},
{
closed = 1;
nodes = (
(74,317,o),
(62,335,o),
(62,361,cs),
(62,387,o),
(74,405,o),
(98,405,cs),
(122,405,o),
(135,387,o),
(135,361,cs),
(135,335,o),
(122,317,o),
(98,317,cs)
);
}
);
width = 538;
},
{
anchors = (
{
name = bottom;
pos = (454,0);
},
{
name = top;
pos = (457,536);
}
);
layerId = "1A87246E-116E-4BF6-B440-8206DB76EC4A";
shapes = (
{
closed = 1;
nodes = (
(395,-11,o),
(456,29,o),
(456,129,cs),
(456,323,ls),
(456,363,o),
(444,398,o),
(407,413,c),
(407,417,l),
(460,439,o),
(492,475,o),
(492,528,cs),
(492,581,o),
(437,597,o),
(368,590,c),
(381,511,o),
(353,453,o),
(298,432,c),
(298,405,l),
(327,392,o),
(333,368,o),
(333,320,cs),
(333,112,ls),
(333,57,o),
(320,35,o),
(282,35,cs),
(244,35,o),
(230,55,o),
(230,110,cs),
(230,243,l),
(280,283,o),
(304,343,o),
(304,410,cs),
(304,483,o),
(275,540,o),
(216,557,c),
(156,502,l),
(96,557,l),
(38,536,o),
(16,468,o),
(16,399,cs),
(16,321,o),
(50,284,o),
(95,284,cs),
(140,284,o),
(174,318,o),
(174,367,cs),
(174,415,o),
(146,445,o),
(110,445,cs),
(93,445,o),
(79,441,o),
(68,426,c),
(84,424,l),
(79,457,o),
(89,487,o),
(105,499,c),
(153,459,l),
(159,459,l),
(200,497,l),
(213,485,o),
(229,458,o),
(229,411,cs),
(229,318,o),
(158,270,o),
(108,252,c),
(108,122,ls),
(108,32,o),
(151,-11,o),
(281,-11,cs)
);
},
{
closed = 1;
nodes = (
(73,322,o),
(61,340,o),
(61,365,cs),
(61,391,o),
(73,408,o),
(96,408,cs),
(119,408,o),
(132,391,o),
(132,365,cs),
(132,340,o),
(119,322,o),
(96,322,cs)
);
}
);
width = 514;
}
);
note = uni0E0B;
unicode = 3595;
},
{
glyphname = "khoKhwai-thai";
lastChange = "2020-01-23 22:17:12 +0000";
layers = (
{
anchors = (
{
name = bottom;
pos = (528,0);
},
{
name = top;
pos = (528,536);
}
);
layerId = "CAA0A3A7-F9A4-46B2-91A1-CB381E1B2EFA";
shapes = (
{
closed = 1;
nodes = (
(489,-6,l),
(538,52,l),
(538,366,ls),
(538,490,o),
(468,558,o),
(312,558,cs),
(139,558,o),
(85,477,o),
(85,360,cs),
(85,277,o),
(109,193,o),
(109,68,cs),
(109,0,l),
(192,0,l),
(192,32,ls),
(193,116,o),
(209,193,o),
(238,239,c),
(240,239,l),
(254,205,o),
(284,192,o),
(322,192,cs),
(378,192,o),
(413,229,o),
(413,281,cs),
(413,339,o),
(376,374,o),
(316,374,cs),
(291,374,o),
(274,368,o),
(258,357,cs),
(226,335,o),
(198,296,o),
(169,191,c),
(165,191,l),
(165,267,o),
(159,304,o),
(159,355,cs),
(159,445,o),
(186,514,o),
(310,514,cs),
(412,514,o),
(456,473,o),
(456,369,cs),
(456,-6,l)
);
},
{
closed = 1;
nodes = (
(283,232,o),
(269,251,o),
(269,282,cs),
(269,314,o),
(283,332,o),
(317,332,cs),
(351,332,o),
(365,314,o),
(365,282,cs),
(365,251,o),
(351,232,o),
(317,232,cs)
);
}
);
width = 633;
},
{
anchors = (
{
name = bottom;
pos = (617,0);
},
{
name = top;
pos = (617,536);
}
);
layerId = "22BDAFBE-6308-4010-9D0C-693FDF26AFAA";
shapes = (
{
closed = 1;
nodes = (
(565,-6,l),
(627,66,l),
(627,366,ls),
(627,492,o),
(527,562,o),
(336,562,cs),
(146,562,o),
(58,496,o),
(58,356,cs),
(58,285,o),
(73,195,o),
(73,68,cs),
(73,0,l),
(245,0,l),
(245,32,ls),
(245,111,o),
(259,181,o),
(281,218,c),
(270,218,l),
(293,199,o),
(321,195,o),
(341,195,cs),
(394,195,o),
(429,231,o),
(429,287,cs),
(429,344,o),
(395,375,o),
(333,375,cs),
(300,375,o),
(277,366,o),
(262,349,cs),
(242,327,o),
(229,290,o),
(217,212,c),
(213,212,l),
(215,271,o),
(209,324,o),
(209,352,cs),
(209,464,o),
(245,507,o),
(329,507,cs),
(410,507,o),
(447,466,o),
(447,369,cs),
(447,-6,l)
);
},
{
closed = 1;
nodes = (
(306,240,o),
(290,256,o),
(290,285,cs),
(290,314,o),
(306,329,o),
(332,329,cs),
(359,329,o),
(375,314,o),
(375,285,cs),
(375,255,o),
(359,240,o),
(332,240,cs)
);
}
);
width = 685;
},
{
anchors = (
{
name = bottom;
pos = (491,0);
},
{
name = top;
pos = (481,536);
}
);
layerId = "2AF6F853-87AC-417E-A249-876B8C389FCE";
shapes = (
{
closed = 1;
nodes = (
(471,-4,l),
(491,21,l),
(491,364,ls),
(491,497,o),
(416,553,o),
(296,553,cs),
(170,553,o),
(92,492,o),
(92,343,cs),
(92,258,o),
(112,154,o),
(112,38,cs),
(112,0,l),
(140,0,l),
(140,45,ls),
(140,158,o),
(183,245,o),
(224,296,c),
(226,295,l),
(219,235,o),
(257,210,o),
(296,210,cs),
(336,210,o),
(369,232,o),
(369,282,cs),
(369,329,o),
(339,354,o),
(293,354,cs),
(266,354,o),
(244,345,o),
(224,327,cs),
(193,299,o),
(154,242,o),
(132,164,c),
(129,164,l),
(125,243,o),
(120,282,o),
(120,337,cs),
(120,478,o),
(187,528,o),
(296,528,cs),
(402,528,o),
(463,480,o),
(463,356,cs),
(463,-4,l)
);
},
{
closed = 1;
nodes = (
(265,231,o),
(248,250,o),
(248,282,cs),
(248,312,o),
(263,331,o),
(295,331,cs),
(327,331,o),
(344,313,o),
(344,281,cs),
(344,250,o),
(327,231,o),
(296,231,cs)
);
}
);
width = 593;
},
{
anchors = (
{
name = bottom;
pos = (575,0);
},
{
name = top;
pos = (575,536);
}
);
layerId = "B641F77A-82CB-48D8-9AD6-887D7864CC63";
shapes = (
{
closed = 1;
nodes = (
(530,-6,l),
(586,59,l),
(586,366,ls),
(586,491,o),
(500,560,o),
(325,560,cs),
(143,560,o),
(71,487,o),
(71,358,cs),
(71,281,o),
(90,194,o),
(90,68,cs),
(90,0,l),
(221,0,l),
(221,32,ls),
(221,113,o),
(236,187,o),
(261,228,c),
(256,228,l),
(275,202,o),
(304,194,o),
(333,194,cs),
(387,194,o),
(422,230,o),
(422,284,cs),
(422,342,o),
(387,375,o),
(325,375,cs),
(296,375,o),
(276,367,o),
(261,353,cs),
(235,331,o),
(215,293,o),
(195,202,c),
(191,202,l),
(192,269,o),
(186,315,o),
(186,353,cs),
(186,455,o),
(218,510,o),
(321,510,cs),
(411,510,o),
(452,469,o),
(452,369,cs),
(452,-6,l)
);
},
{
closed = 1;
nodes = (
(295,236,o),
(280,254,o),
(280,284,cs),
(280,314,o),
(295,330,o),
(325,330,cs),
(355,330,o),
(370,314,o),
(370,284,cs),
(370,253,o),
(355,236,o),
(325,236,cs)
);
}
);
width = 661;
},
{
anchors = (
{
name = bottom;
pos = (389,0);
},
{
name = top;
pos = (379,536);
}
);
layerId = "8AE4ADC8-9A9B-483B-9DC3-8C129A33EC0D";
shapes = (
{
closed = 1;
nodes = (
(370,-4,l),
(389,21,l),
(389,364,ls),
(389,497,o),
(333,553,o),
(237,553,cs),
(135,553,o),
(79,492,o),
(79,343,cs),
(79,258,o),
(95,154,o),
(95,38,cs),
(95,0,l),
(123,0,l),
(123,45,ls),
(123,158,o),
(153,245,o),
(180,296,c),
(183,295,l),
(173,230,o),
(210,210,o),
(239,210,cs),
(272,210,o),
(298,232,o),
(298,282,cs),
(298,329,o),
(273,354,o),
(236,354,cs),
(216,354,o),
(193,345,o),
(178,327,cs),
(155,299,o),
(130,242,o),
(113,164,c),
(110,164,l),
(108,243,o),
(106,282,o),
(106,337,cs),
(106,478,o),
(152,528,o),
(237,528,cs),
(317,528,o),
(361,480,o),
(361,356,cs),
(361,-4,l)
);
},
{
closed = 1;
nodes = (
(213,230,o),
(202,251,o),
(202,281,cs),
(202,311,o),
(213,332,o),
(238,332,cs),
(263,332,o),
(274,311,o),
(274,281,cs),
(274,251,o),
(263,230,o),
(238,230,cs)
);
}
);
width = 476;
},
{
anchors = (
{
name = bottom;
pos = (422,0);
},
{
name = top;
pos = (422,536);
}
);
layerId = "2C876074-2AE3-4D36-A7C1-2DCA66F9377D";
shapes = (
{
closed = 1;
nodes = (
(390,-6,l),
(430,52,l),
(430,366,ls),
(430,490,o),
(371,558,o),
(246,558,cs),
(111,558,o),
(64,477,o),
(64,360,cs),
(64,277,o),
(81,193,o),
(81,68,cs),
(81,0,l),
(160,0,l),
(160,32,ls),
(160,116,o),
(172,193,o),
(193,239,c),
(184,239,l),
(197,205,o),
(225,194,o),
(251,194,cs),
(293,194,o),
(321,229,o),
(321,281,cs),
(321,339,o),
(294,374,o),
(248,374,cs),
(227,374,o),
(212,368,o),
(201,357,cs),
(179,335,o),
(161,296,o),
(142,191,c),
(139,191,l),
(139,267,o),
(134,304,o),
(134,355,cs),
(134,445,o),
(157,514,o),
(244,514,cs),
(317,514,o),
(349,473,o),
(349,369,cs),
(349,-6,l)
);
},
{
closed = 1;
nodes = (
(223,232,o),
(212,251,o),
(212,282,cs),
(212,314,o),
(223,332,o),
(248,332,cs),
(272,332,o),
(283,314,o),
(283,282,cs),
(283,251,o),
(272,232,o),
(248,232,cs)
);
}
);
width = 499;
},
{
anchors = (
{
name = bottom;
pos = (510,0);
},
{
name = top;
pos = (510,536);
}
);
layerId = "3CAB0083-C9A5-4E42-9C5D-0009229A2EB9";
shapes = (
{
closed = 1;
nodes = (
(468,-6,l),
(519,62,l),
(519,366,ls),
(519,491,o),
(435,561,o),
(279,561,cs),
(125,561,o),
(52,491,o),
(52,357,cs),
(52,283,o),
(63,194,o),
(63,68,cs),
(63,0,l),
(210,0,l),
(210,32,ls),
(210,112,o),
(222,184,o),
(237,223,c),
(227,223,l),
(244,201,o),
(263,197,o),
(284,197,cs),
(325,197,o),
(353,230,o),
(353,285,cs),
(353,343,o),
(327,375,o),
(277,375,cs),
(250,375,o),
(229,365,o),
(218,349,cs),
(202,327,o),
(194,292,o),
(187,207,c),
(183,207,l),
(186,270,o),
(182,319,o),
(182,353,cs),
(182,459,o),
(209,509,o),
(274,509,cs),
(337,509,o),
(366,468,o),
(366,369,cs),
(366,-6,l)
);
},
{
closed = 1;
nodes = (
(255,238,o),
(243,255,o),
(243,284,cs),
(243,314,o),
(255,330,o),
(277,330,cs),
(297,330,o),
(311,314,o),
(311,284,cs),
(311,254,o),
(297,238,o),
(277,238,cs)
);
}
);
width = 569;
},
{
anchors = (
{
name = bottom;
pos = (479,0);
},
{
name = top;
pos = (478,536);
}
);
layerId = "1A87246E-116E-4BF6-B440-8206DB76EC4A";
shapes = (
{
closed = 1;
nodes = (
(440,-6,l),
(486,56,l),
(486,366,ls),
(486,491,o),
(411,560,o),
(267,560,cs),
(120,560,o),
(56,487,o),
(56,357,cs),
(56,279,o),
(70,191,o),
(70,66,cs),
(70,0,l),
(188,0,l),
(188,33,ls),
(188,116,o),
(201,191,o),
(219,233,c),
(211,233,l),
(225,204,o),
(249,197,o),
(272,197,cs),
(314,197,o),
(342,230,o),
(342,284,cs),
(342,341,o),
(315,373,o),
(267,373,cs),
(242,373,o),
(223,364,o),
(211,350,cs),
(192,328,o),
(179,290,o),
(167,199,c),
(163,199,l),
(165,267,o),
(160,312,o),
(160,352,cs),
(160,456,o),
(188,512,o),
(263,512,cs),
(332,512,o),
(364,470,o),
(364,368,cs),
(364,-6,l)
);
},
{
closed = 1;
nodes = (
(244,236,o),
(232,253,o),
(232,283,cs),
(232,314,o),
(244,331,o),
(268,331,cs),
(290,331,o),
(303,314,o),
(303,283,cs),
(303,253,o),
(290,236,o),
(268,236,cs)
);
}
);
width = 544;
}
);
note = uni0E04;
unicode = 3588;
},
{
glyphname = "khoKhon-thai";
lastChange = "2016-11-15 17:20:48 +0000";
layers = (
{
anchors = (
{
name = bottom;
pos = (538,0);
},
{
name = top;
pos = (538,536);
}
);
layerId = "CAA0A3A7-F9A4-46B2-91A1-CB381E1B2EFA";
shapes = (
{
closed = 1;
nodes = (
(499,-6,l),
(548,52,l),
(548,374,ls),
(548,490,o),
(502,535,o),
(400,558,c),
(320,494,l),
(245,558,l),
(133,533,o),
(85,467,o),
(85,360,cs),
(85,277,o),
(110,193,o),
(110,68,cs),
(110,0,l),
(192,0,l),
(192,32,ls),
(193,116,o),
(209,193,o),
(238,239,c),
(240,239,l),
(254,205,o),
(284,192,o),
(323,192,cs),
(379,192,o),
(414,229,o),
(414,281,cs),
(414,339,o),
(377,374,o),
(317,374,cs),
(292,374,o),
(275,368,o),
(259,357,cs),
(227,335,o),
(199,296,o),
(170,191,c),
(166,191,l),
(166,267,o),
(160,304,o),
(160,355,cs),
(161,408,o),
(183,479,o),
(241,501,c),
(316,440,l),
(320,440,l),
(400,501,l),
(450,477,o),
(466,459,o),
(466,374,cs),
(466,-6,l)
);
},
{
closed = 1;
nodes = (
(284,232,o),
(270,251,o),
(270,282,cs),
(270,314,o),
(284,332,o),
(318,332,cs),
(352,332,o),
(366,314,o),
(366,282,cs),
(366,251,o),
(352,232,o),
(318,232,cs)
);
}
);
width = 643;
},
{
anchors = (
{
name = bottom;
pos = (617,0);
},
{
name = top;
pos = (617,536);
}
);
layerId = "22BDAFBE-6308-4010-9D0C-693FDF26AFAA";
shapes = (
{
closed = 1;
nodes = (
(565,-6,l),
(627,66,l),
(627,366,ls),
(627,476,o),
(556,540,o),
(434,562,c),
(337,490,l),
(246,562,l),
(103,542,o),
(58,461,o),
(58,352,cs),
(58,289,o),
(73,193,o),
(73,68,cs),
(73,0,l),
(245,0,l),
(245,32,ls),
(245,111,o),
(259,181,o),
(281,218,c),
(270,218,l),
(293,199,o),
(321,195,o),
(341,195,cs),
(394,195,o),
(429,231,o),
(429,287,cs),
(429,344,o),
(395,375,o),
(333,375,cs),
(300,375,o),
(277,366,o),
(262,349,cs),
(242,327,o),
(229,290,o),
(217,212,c),
(213,212,l),
(215,271,o),
(209,324,o),
(209,373,cs),
(209,418,o),
(224,458,o),
(254,488,c),
(333,429,l),
(337,429,l),
(419,486,l),
(436,465,o),
(447,444,o),
(447,386,cs),
(447,-6,l)
);
},
{
closed = 1;
nodes = (
(306,240,o),
(290,256,o),
(290,285,cs),
(290,314,o),
(306,329,o),
(332,329,cs),
(359,329,o),
(375,314,o),
(375,285,cs),
(375,255,o),
(359,240,o),
(332,240,cs)
);
}
);
width = 685;
},
{
anchors = (
{
name = bottom;
pos = (501,0);
},
{
name = top;
pos = (491,536);
}
);
layerId = "2AF6F853-87AC-417E-A249-876B8C389FCE";
shapes = (
{
closed = 1;
nodes = (
(481,-4,l),
(501,21,l),
(501,386,ls),
(501,454,o),
(480,522,o),
(395,552,c),
(304,464,l),
(213,552,l),
(132,519,o),
(92,460,o),
(92,343,cs),
(92,258,o),
(117,184,o),
(117,38,cs),
(117,0,l),
(145,0,l),
(145,45,ls),
(145,158,o),
(188,245,o),
(229,296,c),
(231,295,l),
(224,235,o),
(262,210,o),
(301,210,cs),
(341,210,o),
(374,232,o),
(374,282,cs),
(374,329,o),
(344,354,o),
(298,354,cs),
(271,354,o),
(249,345,o),
(229,327,cs),
(198,299,o),
(159,242,o),
(137,164,c),
(134,164,l),
(130,243,o),
(120,282,o),
(120,343,cs),
(120,451,o),
(156,501,o),
(212,525,c),
(301,438,l),
(307,438,l),
(396,525,l),
(446,502,o),
(473,460,o),
(473,378,cs),
(473,-4,l)
);
},
{
closed = 1;
nodes = (
(270,231,o),
(253,250,o),
(253,282,cs),
(253,312,o),
(268,331,o),
(300,331,cs),
(332,331,o),
(349,313,o),
(349,281,cs),
(349,250,o),
(332,231,o),
(301,231,cs)
);
}
);
width = 603;
},
{
anchors = (
{
name = bottom;
pos = (580,0);
},
{
name = top;
pos = (580,536);
}
);
layerId = "B641F77A-82CB-48D8-9AD6-887D7864CC63";
shapes = (
{
closed = 1;
nodes = (
(535,-6,l),
(590,59,l),
(590,370,ls),
(590,483,o),
(531,538,o),
(418,560,c),
(329,492,l),
(246,560,l),
(117,538,o),
(71,464,o),
(71,356,cs),
(71,283,o),
(91,193,o),
(91,68,cs),
(91,0,l),
(221,0,l),
(221,32,ls),
(221,113,o),
(236,187,o),
(261,228,c),
(256,228,l),
(275,202,o),
(304,194,o),
(333,194,cs),
(387,194,o),
(422,230,o),
(422,284,cs),
(422,342,o),
(387,375,o),
(326,375,cs),
(297,375,o),
(276,367,o),
(261,353,cs),
(235,331,o),
(215,293,o),
(195,202,c),
(191,202,l),
(192,269,o),
(186,315,o),
(186,365,cs),
(187,413,o),
(205,468,o),
(248,494,c),
(325,434,l),
(329,434,l),
(411,493,l),
(443,471,o),
(456,451,o),
(456,380,cs),
(456,-6,l)
);
},
{
closed = 1;
nodes = (
(296,236,o),
(281,254,o),
(281,284,cs),
(281,314,o),
(296,330,o),
(326,330,cs),
(356,330,o),
(371,314,o),
(371,284,cs),
(371,253,o),
(356,236,o),
(326,236,cs)
);
}
);
width = 665;
},
{
anchors = (
{
name = bottom;
pos = (396,0);
},
{
name = top;
pos = (386,536);
}
);
layerId = "8AE4ADC8-9A9B-483B-9DC3-8C129A33EC0D";
shapes = (
{
closed = 1;
nodes = (
(378,-4,l),
(397,21,l),
(397,386,ls),
(397,454,o),
(377,522,o),
(311,552,c),
(243,467,l),
(176,552,l),
(110,519,o),
(79,458,o),
(79,341,cs),
(79,256,o),
(95,154,o),
(95,38,cs),
(95,0,l),
(123,0,l),
(123,45,ls),
(123,158,o),
(153,245,o),
(180,296,c),
(183,295,l),
(173,230,o),
(210,210,o),
(239,210,cs),
(272,210,o),
(298,232,o),
(298,282,cs),
(298,329,o),
(273,354,o),
(236,354,cs),
(216,354,o),
(193,345,o),
(178,327,cs),
(155,299,o),
(130,242,o),
(113,164,c),
(110,164,l),
(108,243,o),
(106,282,o),
(106,343,cs),
(106,451,o),
(132,495,o),
(175,519,c),
(239,438,l),
(247,438,l),
(311,519,l),
(349,496,o),
(369,460,o),
(369,378,cs),
(369,-4,l)
);
},
{
closed = 1;
nodes = (
(213,230,o),
(202,251,o),
(202,281,cs),
(202,311,o),
(213,332,o),
(238,332,cs),
(263,332,o),
(274,311,o),
(274,281,cs),
(274,251,o),
(263,230,o),
(238,230,cs)
);
}
);
width = 484;
},
{
anchors = (
{
name = bottom;
pos = (428,0);
},
{
name = top;
pos = (428,536);
}
);
layerId = "2C876074-2AE3-4D36-A7C1-2DCA66F9377D";
shapes = (
{
closed = 1;
nodes = (
(396,-6,l),
(435,52,l),
(435,374,ls),
(435,490,o),
(396,535,o),
(314,558,c),
(251,494,l),
(191,558,l),
(100,533,o),
(64,467,o),
(64,360,cs),
(64,277,o),
(81,193,o),
(81,68,cs),
(81,0,l),
(160,0,l),
(160,32,ls),
(160,116,o),
(172,193,o),
(193,239,c),
(184,239,l),
(197,205,o),
(227,194,o),
(253,194,cs),
(295,194,o),
(322,229,o),
(322,281,cs),
(322,339,o),
(294,374,o),
(248,374,cs),
(228,374,o),
(213,368,o),
(202,357,cs),
(180,335,o),
(161,296,o),
(142,191,c),
(139,191,l),
(139,267,o),
(135,304,o),
(135,355,cs),
(135,408,o),
(151,479,o),
(190,501,c),
(245,440,l),
(254,440,l),
(312,501,l),
(344,477,o),
(355,459,o),
(355,374,cs),
(355,-6,l)
);
},
{
closed = 1;
nodes = (
(224,232,o),
(213,251,o),
(213,282,cs),
(213,314,o),
(224,332,o),
(249,332,cs),
(273,332,o),
(284,314,o),
(284,282,cs),
(284,251,o),
(273,232,o),
(249,232,cs)
);
}
);
width = 504;
},
{
anchors = (
{
name = bottom;
pos = (510,0);
},
{
name = top;
pos = (510,536);
}
);
layerId = "3CAB0083-C9A5-4E42-9C5D-0009229A2EB9";
shapes = (
{
closed = 1;
nodes = (
(467,-6,l),
(518,62,l),
(518,368,ls),
(518,480,o),
(458,539,o),
(358,561,c),
(280,491,l),
(205,561,l),
(89,540,o),
(52,463,o),
(52,354,cs),
(52,286,o),
(64,193,o),
(64,68,cs),
(64,0,l),
(210,0,l),
(210,32,ls),
(210,112,o),
(222,184,o),
(237,223,c),
(227,223,l),
(246,201,o),
(263,197,o),
(284,197,cs),
(325,197,o),
(353,230,o),
(353,285,cs),
(353,343,o),
(327,375,o),
(276,375,cs),
(248,375,o),
(229,365,o),
(218,349,cs),
(204,327,o),
(194,292,o),
(187,207,c),
(183,207,l),
(186,270,o),
(182,319,o),
(182,369,cs),
(182,415,o),
(192,463,o),
(213,491,c),
(275,432,l),
(282,432,l),
(346,490,l),
(356,468,o),
(364,448,o),
(364,383,cs),
(364,-6,l)
);
},
{
closed = 1;
nodes = (
(254,238,o),
(242,255,o),
(242,284,cs),
(242,314,o),
(254,330,o),
(276,330,cs),
(295,330,o),
(310,314,o),
(310,284,cs),
(310,254,o),
(295,238,o),
(276,238,cs)
);
}
);
width = 568;
},
{
anchors = (
{
name = bottom;
pos = (481,0);
},
{
name = top;
pos = (480,536);
}
);
layerId = "1A87246E-116E-4BF6-B440-8206DB76EC4A";
shapes = (
{
closed = 1;
nodes = (
(443,-6,l),
(488,56,l),
(488,371,ls),
(488,481,o),
(437,537,o),
(344,559,c),
(270,490,l),
(199,559,l),
(93,536,o),
(56,464,o),
(56,355,cs),
(56,281,o),
(70,190,o),
(70,66,cs),
(70,0,l),
(188,0,l),
(188,33,ls),
(188,116,o),
(201,191,o),
(219,233,c),
(211,233,l),
(226,204,o),
(249,197,o),
(273,197,cs),
(314,197,o),
(343,230,o),
(343,284,cs),
(343,341,o),
(315,373,o),
(266,373,cs),
(241,373,o),
(223,365,o),
(211,350,cs),
(193,328,o),
(179,290,o),
(167,199,c),
(163,199,l),
(165,267,o),
(161,312,o),
(161,363,cs),
(161,415,o),
(174,470,o),
(204,496,c),
(265,435,l),
(272,435,l),
(336,495,l),
(356,473,o),
(366,452,o),
(366,380,cs),
(366,-6,l)
);
},
{
closed = 1;
nodes = (
(243,236,o),
(231,253,o),
(231,283,cs),
(231,314,o),
(243,331,o),
(267,331,cs),
(288,331,o),
(302,314,o),
(302,283,cs),
(302,253,o),
(288,236,o),
(267,236,cs)
);
}
);
width = 546;
}
);
unicode = 3589;
},
